<?xml version="1.0" encoding="utf-8"?>
<!-- Generator: Adobe Illustrator 26.1.0, SVG Export Plug-In . SVG Version: 6.00 Build 0)  -->
<svg version="1.1" id="Слой_1" xmlns="http://www.w3.org/2000/svg" xmlns:xlink="http://www.w3.org/1999/xlink" x="0px" y="0px"
	 viewBox="0 0 19.84252 19.84252" style="enable-background:new 0 0 19.84252 19.84252;" xml:space="preserve">
<style type="text/css">
	.st0{fill:#606060;}
</style>
<path class="st0" d="M10.4766,10.56772c-1.17898-0.48777-1.37793-0.75075-1.37793-1.15558c0-0.37572,0.27068-0.7772,1.0305-0.7772
	c0.75951,0,1.2373,0.27296,1.44128,0.38951l0.3174,0.18134l0.53968-1.42443l-0.22746-0.1334
	c-0.44135-0.25863-0.93209-0.41238-1.49265-0.46665V5.93297h-1.4098v1.33692c-1.1709,0.28821-1.91281,1.16557-1.91281,2.29424
	c0,1.39272,1.09986,2.01609,2.28509,2.48092c1.0866,0.44059,1.23646,0.8458,1.23646,1.21809
	c0,0.55584-0.48022,0.92919-1.19514,0.92919c-0.57992,0-1.18173-0.17944-1.65097-0.49227L7.7279,13.4784l-0.51841,1.44707
	l0.19201,0.13705c0.43868,0.31344,1.12341,0.53709,1.80746,0.59898v1.29614h1.42252v-1.37557
	c1.20787-0.30079,2.00153-1.2408,2.00153-2.40767C12.63303,11.64334,11.47973,10.97683,10.4766,10.56772z"/>
<g>
	<path class="st0" d="M7.91041,3.85279c0-0.29637-0.01511-0.57503,0.00275-0.85155c0.06076-0.94117,0.91617-1.7756,1.82114-1.83015
		c1.1815-0.07122,2.0298,0.74966,2.17037,1.68344c0.04805,0.31925,0.04042,0.64689,0.05975,0.99827c0.06487,0,0.13523,0,0.2056,0
		c0.57876,0,1.15813,0.01699,1.73616-0.00368c1.06841-0.0382,1.92514,0.55662,2.23192,1.67292
		c0.62793,2.28492,1.29083,4.56021,1.92934,6.84226c0.19188,0.68581,0.3978,1.3733,0.51038,2.07398
		c0.0971,0.60431,0.08559,1.2283,0.09281,1.84393c0.00376,0.32051-0.00668,0.6562-0.09595,0.95998
		c-0.26127,0.88904-1.02251,1.43261-1.95026,1.4334c-1.48259,0.00127-2.96519-0.00544-4.44778-0.00653
		c-2.51876-0.00184-5.03752-0.00152-7.55629-0.00311c-0.51842-0.00034-1.03696,0.00139-1.55521-0.0091
		c-0.99356-0.02012-1.88768-0.91968-1.89069-1.91516c-0.00209-0.69066-0.0184-1.38563,0.05018-2.0708
		c0.05684-0.56779,0.20697-1.12975,0.35301-1.68449c0.60195-2.28664,1.21617-4.57007,1.83085-6.85333
		C3.5146,5.73886,3.59519,5.3265,3.77431,4.96556c0.36379-0.73308,0.99917-1.09497,1.81607-1.1101
		C6.28199,3.84264,6.97403,3.8528,7.66589,3.85279C7.73751,3.85278,7.80914,3.85279,7.91041,3.85279z M9.88503,17.31131
		c-0.00001,0.00378-0.00002,0.00756-0.00003,0.01134c0.21898,0,0.43796-0.00031,0.65693,0.00005
		c2.02751,0.00327,4.05502,0.00805,6.08253,0.00879c0.3884,0.00014,0.68738-0.23899,0.69465-0.61979
		c0.0124-0.64987,0.02177-1.30636-0.05582-1.94942c-0.06828-0.56596-0.24056-1.12206-0.39581-1.6744
		c-0.68426-2.4345-1.37915-4.86602-2.06978-7.29874c-0.11819-0.4163-0.33201-0.58261-0.75597-0.58262
		c-2.79993-0.00015-5.59985-0.00015-8.39978,0c-0.40211,0.00002-0.64159,0.17298-0.74341,0.551
		C4.67691,6.58046,4.46204,7.40521,4.24168,8.2285c-0.42005,1.56941-0.81924,3.1449-1.27049,4.70531
		c-0.34951,1.20858-0.53295,2.42716-0.45759,3.6836c0.02763,0.46054,0.26288,0.69335,0.71608,0.69353
		C5.44812,17.31177,7.66658,17.31131,9.88503,17.31131z M10.59013,3.84231c0-0.24941,0.01386-0.48775-0.00337-0.72382
		c-0.02368-0.3246-0.27936-0.56854-0.59088-0.5923C9.61848,2.49741,9.3423,2.67006,9.27665,3.02623
		C9.22827,3.28867,9.23986,3.56217,9.22408,3.84231C9.68998,3.84231,10.12547,3.84231,10.59013,3.84231z"/>
</g>
</svg>
