<?xml version="1.0" encoding="utf-8"?>
<!-- Generator: Adobe Illustrator 26.1.0, SVG Export Plug-In . SVG Version: 6.00 Build 0)  -->
<svg version="1.1" id="Слой_1" xmlns="http://www.w3.org/2000/svg" xmlns:xlink="http://www.w3.org/1999/xlink" x="0px" y="0px"
	 viewBox="0 0 39.68504 28.34646" style="enable-background:new 0 0 39.68504 28.34646;" xml:space="preserve">
<style type="text/css">
	.st0{fill:#E2E2E2;}
	.st1{fill:#979695;}
	.st2{fill:#708090;}
</style>
<g>
	<path class="st0" d="M21.60833,17.39567c-1.41316,0.00009-2.82633,0.0006-4.23949-0.00043
		c-0.49495-0.00034-0.90124-0.40715-1.00756-1.0031c-0.01835-0.10279-0.02752-0.20713-0.02752-0.3131
		c0.00043-1.76159-0.00051-3.52326,0.00068-5.28485c0.00043-0.75086,0.44394-1.31586,1.0343-1.31594
		c1.41316-0.00043,2.82633,0.00008,4.23949,0c0-0.66333,0-1.08746,0-1.08746c-0.00009-0.52495-0.36343-0.8985-0.88169-0.89884
		c-2.23879-0.00146-4.47766-0.00043-6.71654-0.0018c-0.0649-0.00009-0.10914,0.02452-0.15329,0.06927L10.8969,10.5525
		c-0.05453,0.05504-0.07639,0.11111-0.0763,0.18853c0.00171,1.67714,0.00129,3.35428,0.00137,5.03142
		c0,1.66994-0.00137,2.50491,0.00111,4.17485c0.00051,0.3762,0.16444,0.65956,0.50146,0.82854
		c0.12423,0.06224,0.25883,0.08085,0.39678,0.08076c1.81646-0.00043,3.63283-0.00026,5.44929-0.00026
		c1.18511,0,2.37022,0.0006,3.55542-0.00034c0.42216-0.00034,0.77187-0.28447,0.86009-0.69531
		c0.01449-0.06756,0.02263-0.13615,0.02255-0.20576c-0.00017-0.19856-0.00026-0.52092-0.00034-0.87415
		C21.60833,18.66669,21.60833,18.0764,21.60833,17.39567z"/>
	<path class="st1" d="M21.49225,17.37149c-0.05864-0.00017-0.11728-0.00009-0.17601-0.00009
		c-0.13006,0.00017-0.13023,0.00017-0.13032,0.12912c-0.00009,0.25523,0.0006,2.19421-0.00034,2.46856
		c-0.00086,0.25978-0.19487,0.45748-0.45053,0.45748c-3.01572,0.00034-6.03143,0.00034-9.04706,0
		c-0.22694,0-0.40244-0.17447-0.41453-0.40878c-0.00129-0.02383-0.00086-0.04775-0.00086-0.07159
		c-0.00009-3.28741-0.00009-5.73985,0.00034-9.02726c0-0.04913-0.00789-0.09902,0.02452-0.14481
		c0.04938-0.06987,0.10485-0.1082,0.19788-0.10734c0.53979,0.0048,1.07957,0.00377,1.61927,0.00171
		c0.41101-0.00154,0.75198-0.27615,0.83934-0.6713c0.01595-0.07227,0.02263-0.14566,0.02255-0.22008
		c-0.0006-0.54399-0.00043-1.08789-0.00026-1.63179c0.00009-0.13486,0.08882-0.22445,0.22334-0.22445
		c2.18015-0.00017,4.36038-0.00034,6.54052,0.00017c0.26904,0.00009,0.44565,0.18064,0.44565,0.45259
		c0,0,0.00009-0.52675,0.00009,0.90227c0,0.03104,0.00069,0.06199,0.00094,0.09302c0.00034,0.04098,0.02083,0.06156,0.06104,0.06164
		c0.10091,0.00009,0.20182,0.00017,0.30264-0.00034c0.03704-0.00026,0.05573-0.021,0.05659-0.05839
		c0.0006-0.02623,0.00111-0.05247,0.00111-0.0787c0-0.5241,0-0.7819,0-0.90227c-0.00009-0.52495-0.36343-0.8985-0.88169-0.89884
		c-2.2387-0.00154-4.47758-0.00051-6.71645-0.00189c-0.0649,0-0.10914,0.02461-0.15329,0.06927l-2.9599,2.99317
		c-0.05444,0.05496-0.0763,0.11103-0.07622,0.18845c0.00171,1.67714,0.00129,3.35428,0.00129,5.03142
		c0.00008,1.66994-0.00137,2.50499,0.00111,4.17493c0.0006,0.3762,0.16453,0.65956,0.50155,0.82854
		c0.12423,0.06224,0.25875,0.08085,0.39678,0.08076c1.81646-0.00043,3.63283-0.00026,5.44929-0.00026
		c1.18511,0,2.37022,0.0006,3.55542-0.00034c0.42207-0.00034,0.77187-0.28447,0.86009-0.69531
		c0.01449-0.06765,0.02263-0.13615,0.02246-0.20585c-0.00051-0.52958-0.00017-1.93889-0.00034-2.46856
		C21.60825,17.37363,21.60602,17.37192,21.49225,17.37149z"/>
	<path class="st1" d="M19.28964,12.25656h-0.63641v2.59013h0.55745c0.29913,0,0.55307-0.11043,0.7615-0.33111
		c0.20842-0.22068,0.31276-0.54913,0.31276-0.98526c0-0.35606-0.09114-0.65733-0.27332-0.9039
		C19.82951,12.37985,19.58877,12.25656,19.28964,12.25656z"/>
	<path class="st1" d="M23.01824,12.21112c-0.57297,0-0.85941,0.45302-0.85941,1.35915c0,0.43973,0.07296,0.77307,0.21897,1.00001
		c0.14592,0.22703,0.35485,0.34045,0.6268,0.34045c0.24117,0,0.44514-0.09791,0.61189-0.29373s0.25017-0.55093,0.25017-1.06542
		c0-0.4183-0.06893-0.74632-0.20671-0.98398C23.52227,12.32995,23.30836,12.21112,23.01824,12.21112z"/>
	<path class="st1" d="M27.82949,9.94919c-3.29624-0.00094-6.59256-0.00086-9.8888-0.00009
		c-0.59037,0.00026-1.03396,0.49795-1.03439,1.15948c-0.0012,1.55205-0.00026,3.10411-0.00068,4.65616
		c0,0.09336,0.00917,0.18527,0.02752,0.27581c0.10631,0.52504,0.51261,0.88341,1.00755,0.88375
		c1.64679,0.00112,3.29358,0.00043,4.94029,0.00043c1.6467,0,3.29341,0.0006,4.9402-0.00034
		c0.59851-0.00034,1.04193-0.49366,1.04236-1.15973c0.0012-1.55197,0.0012-3.10411,0-4.65608
		C28.86311,10.44585,28.42089,9.94936,27.82949,9.94919z M20.53794,14.86273c-0.3155,0.34714-0.7669,0.52075-1.35435,0.52075
		h-1.21846v-3.64492h1.36798c0.50592,0,0.91204,0.17576,1.21846,0.52735c0.30633,0.35151,0.45954,0.7855,0.45954,1.30171
		C21.0111,14.08391,20.85344,14.51559,20.53794,14.86273z M24.15645,14.92008c-0.29107,0.3462-0.67679,0.51938-1.15725,0.51938
		c-0.49314,0-0.87707-0.1815-1.15176-0.54476c-0.27469-0.36309-0.41204-0.81174-0.41204-1.34578
		c0-0.53053,0.14601-0.9742,0.43785-1.33112c0.29193-0.357,0.67722-0.53541,1.15587-0.53541
		c0.48226,0,0.86343,0.17841,1.14361,0.53541c0.28018,0.35691,0.42019,0.80325,0.42019,1.33909
		C24.59293,14.11949,24.44735,14.5738,24.15645,14.92008z M25.96631,14.54894c0.14858,0.22522,0.34534,0.33779,0.5902,0.33779
		c0.19582,0,0.36257-0.0757,0.50043-0.22703c0.13778-0.15132,0.21571-0.33196,0.23388-0.54202l0.62012,0.0667
		c-0.03987,0.36497-0.18356,0.66539-0.43099,0.90124c-0.2476,0.23586-0.57254,0.35383-0.97506,0.35383
		c-0.33899,0-0.6142-0.08359-0.82537-0.25103c-0.21125-0.16727-0.37397-0.39421-0.48817-0.6809
		c-0.1142-0.28661-0.17138-0.60254-0.17138-0.94797c0-0.55539,0.13417-1.00712,0.40252-1.35512
		c0.26826-0.348,0.63727-0.52204,1.10683-0.52204c0.36806,0,0.67447,0.11128,0.91916,0.33377
		c0.24477,0.22248,0.39892,0.54116,0.46237,0.95594l-0.62012,0.06404c-0.1142-0.55007-0.36626-0.82502-0.75601-0.82502
		c-0.25017,0-0.44462,0.11437-0.58334,0.34311c-0.13872,0.22874-0.20808,0.56028-0.20808,0.99469
		C25.74323,13.99046,25.81764,14.3238,25.96631,14.54894z"/>
	<path class="st1" d="M15.30949,12.22278h-2.58147c-0.13426,0-0.24306-0.1088-0.24306-0.24306v-0.0042
		c0-0.13426,0.1088-0.24306,0.24306-0.24306h2.58156c0.13426,0,0.24306,0.1088,0.24306,0.24306v0.0042
		C15.55255,12.11399,15.44376,12.22278,15.30949,12.22278z"/>
	<path class="st1" d="M15.30949,14.081h-2.58147c-0.13426,0-0.24306-0.1088-0.24306-0.24306v-0.00412
		c0-0.13426,0.1088-0.24306,0.24306-0.24306h2.58156c0.13426,0,0.24306,0.1088,0.24306,0.24306v0.00412
		C15.55255,13.9722,15.44376,14.081,15.30949,14.081z"/>
	<path class="st1" d="M15.30949,15.93921h-2.58147c-0.13426,0-0.24306-0.1088-0.24306-0.24306v-0.00412
		c0-0.13426,0.1088-0.24306,0.24306-0.24306h2.58156c0.13426,0,0.24306,0.1088,0.24306,0.24306v0.0042
		C15.55255,15.83041,15.44376,15.93921,15.30949,15.93921z"/>
</g>
<g>
	<path class="st2" d="M36.5556,25.51181h-1.76879c-0.16237,0-0.2948-0.10988-0.2948-0.24461s0.13243-0.24461,0.2948-0.24461h1.47399
		v-1.22305c0-0.13473,0.13243-0.24461,0.2948-0.24461s0.2948,0.10988,0.2948,0.24461v1.46767
		C36.8504,25.40193,36.71796,25.51181,36.5556,25.51181z"/>
	<path class="st2" d="M31.46573,25.51181h-3.32108c-0.16237,0-0.2948-0.10988-0.2948-0.24461s0.13243-0.24461,0.2948-0.24461
		h3.32108c0.16237,0,0.2948,0.10988,0.2948,0.24461S31.6281,25.51181,31.46573,25.51181z M24.82357,25.51181h-3.32108
		c-0.16237,0-0.2948-0.10988-0.2948-0.24461s0.13243-0.24461,0.2948-0.24461h3.32108c0.16237,0,0.2948,0.10988,0.2948,0.24461
		S24.98594,25.51181,24.82357,25.51181z M18.18255,25.51181H14.8609c-0.16294,0-0.2948-0.10988-0.2948-0.24461
		s0.13185-0.24461,0.2948-0.24461h3.32166c0.16237,0,0.2948,0.10988,0.2948,0.24461S18.34492,25.51181,18.18255,25.51181z
		 M11.54039,25.51181H8.21931c-0.16295,0-0.2948-0.10988-0.2948-0.24461s0.13185-0.24461,0.2948-0.24461h3.32108
		c0.16294,0,0.2948,0.10988,0.2948,0.24461S11.70334,25.51181,11.54039,25.51181z"/>
	<path class="st2" d="M4.89823,25.51181H3.12944c-0.16294,0-0.2948-0.10988-0.2948-0.24461v-1.46767
		c0-0.13473,0.13185-0.24461,0.2948-0.24461s0.2948,0.10988,0.2948,0.24461v1.22305h1.47399
		c0.16294,0,0.2948,0.10988,0.2948,0.24461S5.06117,25.51181,4.89823,25.51181z"/>
	<path class="st2" d="M3.12944,21.29418c-0.16294,0-0.2948-0.10988-0.2948-0.24461v-2.74996
		c0-0.13473,0.13185-0.24461,0.2948-0.24461s0.2948,0.10988,0.2948,0.24461v2.74996
		C3.42424,21.1843,3.29239,21.29418,3.12944,21.29418z M3.12944,15.7933c-0.16294,0-0.2948-0.10988-0.2948-0.24461v-2.75044
		c0-0.1352,0.13185-0.24461,0.2948-0.24461s0.2948,0.10941,0.2948,0.24461v2.75044
		C3.42424,15.68342,3.29239,15.7933,3.12944,15.7933z M3.12944,10.29242c-0.16294,0-0.2948-0.10941-0.2948-0.24461V7.29736
		c0-0.1352,0.13185-0.24461,0.2948-0.24461s0.2948,0.10941,0.2948,0.24461v2.75044
		C3.42424,10.18301,3.29239,10.29242,3.12944,10.29242z"/>
	<path class="st2" d="M3.12944,4.79153c-0.16294,0-0.2948-0.10941-0.2948-0.24461V3.07926c0-0.13521,0.13185-0.24461,0.2948-0.24461
		h1.76879c0.16294,0,0.2948,0.10941,0.2948,0.24461c0,0.1352-0.13185,0.24461-0.2948,0.24461H3.42424v1.22306
		C3.42424,4.68213,3.29239,4.79153,3.12944,4.79153z"/>
	<path class="st2" d="M31.46573,3.32387h-3.32108c-0.16237,0-0.2948-0.10941-0.2948-0.24461
		c0-0.13521,0.13243-0.24461,0.2948-0.24461h3.32108c0.16237,0,0.2948,0.10941,0.2948,0.24461
		C31.76053,3.21446,31.6281,3.32387,31.46573,3.32387z M24.82357,3.32387h-3.32108c-0.16237,0-0.2948-0.10941-0.2948-0.24461
		c0-0.13521,0.13243-0.24461,0.2948-0.24461h3.32108c0.16237,0,0.2948,0.10941,0.2948,0.24461
		C25.11836,3.21446,24.98594,3.32387,24.82357,3.32387z M18.18255,3.32387H14.8609c-0.16294,0-0.2948-0.10941-0.2948-0.24461
		c0-0.13521,0.13185-0.24461,0.2948-0.24461h3.32166c0.16237,0,0.2948,0.10941,0.2948,0.24461
		C18.47735,3.21446,18.34492,3.32387,18.18255,3.32387z M11.54039,3.32387H8.21931c-0.16295,0-0.2948-0.10941-0.2948-0.24461
		c0-0.13521,0.13185-0.24461,0.2948-0.24461h3.32108c0.16294,0,0.2948,0.10941,0.2948,0.24461
		C11.83519,3.21446,11.70334,3.32387,11.54039,3.32387z"/>
	<path class="st2" d="M36.5556,4.79153c-0.16237,0-0.2948-0.10941-0.2948-0.24461V3.32387h-1.47399
		c-0.16237,0-0.2948-0.10941-0.2948-0.24461c0-0.13521,0.13243-0.24461,0.2948-0.24461h1.76879
		c0.16237,0,0.2948,0.10941,0.2948,0.24461v1.46767C36.8504,4.68213,36.71796,4.79153,36.5556,4.79153z"/>
	<path class="st2" d="M36.5556,21.29418c-0.16237,0-0.2948-0.10988-0.2948-0.24461v-2.75092
		c0-0.13473,0.13243-0.24461,0.2948-0.24461s0.2948,0.10988,0.2948,0.24461v2.75092
		C36.8504,21.1843,36.71796,21.29418,36.5556,21.29418z M36.5556,15.7933c-0.16237,0-0.2948-0.10988-0.2948-0.24461v-2.75044
		c0-0.1352,0.13243-0.24461,0.2948-0.24461s0.2948,0.10941,0.2948,0.24461v2.75044
		C36.8504,15.68342,36.71796,15.7933,36.5556,15.7933z M36.5556,10.29242c-0.16237,0-0.2948-0.10941-0.2948-0.24461V7.29736
		c0-0.1352,0.13243-0.24461,0.2948-0.24461s0.2948,0.10941,0.2948,0.24461v2.75044
		C36.8504,10.18301,36.71796,10.29242,36.5556,10.29242z"/>
</g>
</svg>
