<?xml version="1.0" encoding="utf-8"?>
<!-- Generator: Adobe Illustrator 26.1.0, SVG Export Plug-In . SVG Version: 6.00 Build 0)  -->
<svg version="1.1" id="Слой_1" xmlns="http://www.w3.org/2000/svg" xmlns:xlink="http://www.w3.org/1999/xlink" x="0px" y="0px"
	 viewBox="0 0 39.68504 28.34646" style="enable-background:new 0 0 39.68504 28.34646;" xml:space="preserve">
<style type="text/css">
	.st0{fill:#708090;}
	.st1{fill:#E2E2E2;}
	.st2{fill:#979695;}
</style>
<g>
	<path class="st0" d="M36.5556,25.5118h-1.76879c-0.16237,0-0.2948-0.10988-0.2948-0.24461s0.13243-0.24461,0.2948-0.24461h1.47399
		v-1.22305c0-0.13473,0.13243-0.24461,0.2948-0.24461s0.2948,0.10988,0.2948,0.24461v1.46767
		C36.8504,25.40191,36.71796,25.5118,36.5556,25.5118z"/>
	<path class="st0" d="M31.46573,25.5118h-3.32108c-0.16237,0-0.2948-0.10988-0.2948-0.24461s0.13243-0.24461,0.2948-0.24461h3.32108
		c0.16237,0,0.2948,0.10988,0.2948,0.24461S31.6281,25.5118,31.46573,25.5118z M24.82357,25.5118h-3.32108
		c-0.16237,0-0.2948-0.10988-0.2948-0.24461s0.13243-0.24461,0.2948-0.24461h3.32108c0.16237,0,0.2948,0.10988,0.2948,0.24461
		S24.98594,25.5118,24.82357,25.5118z M18.18255,25.5118H14.8609c-0.16294,0-0.2948-0.10988-0.2948-0.24461
		s0.13185-0.24461,0.2948-0.24461h3.32166c0.16237,0,0.2948,0.10988,0.2948,0.24461S18.34492,25.5118,18.18255,25.5118z
		 M11.54039,25.5118H8.21931c-0.16295,0-0.2948-0.10988-0.2948-0.24461s0.13185-0.24461,0.2948-0.24461h3.32108
		c0.16294,0,0.2948,0.10988,0.2948,0.24461S11.70334,25.5118,11.54039,25.5118z"/>
	<path class="st0" d="M4.89823,25.5118H3.12944c-0.16294,0-0.2948-0.10988-0.2948-0.24461v-1.46767
		c0-0.13473,0.13185-0.24461,0.2948-0.24461s0.2948,0.10988,0.2948,0.24461v1.22305h1.47399
		c0.16294,0,0.2948,0.10988,0.2948,0.24461S5.06117,25.5118,4.89823,25.5118z"/>
	<path class="st0" d="M3.12944,21.29416c-0.16294,0-0.2948-0.10988-0.2948-0.24461v-2.74996
		c0-0.13473,0.13185-0.24461,0.2948-0.24461s0.2948,0.10988,0.2948,0.24461v2.74996
		C3.42424,21.18428,3.29239,21.29416,3.12944,21.29416z M3.12944,15.79329c-0.16294,0-0.2948-0.10988-0.2948-0.24461v-2.75044
		c0-0.1352,0.13185-0.24461,0.2948-0.24461s0.2948,0.10941,0.2948,0.24461v2.75044
		C3.42424,15.68341,3.29239,15.79329,3.12944,15.79329z M3.12944,10.29241c-0.16294,0-0.2948-0.10941-0.2948-0.24461V7.29735
		c0-0.1352,0.13185-0.24461,0.2948-0.24461s0.2948,0.10941,0.2948,0.24461v2.75044
		C3.42424,10.183,3.29239,10.29241,3.12944,10.29241z"/>
	<path class="st0" d="M3.12944,4.79152c-0.16294,0-0.2948-0.10941-0.2948-0.24461V3.07925c0-0.13521,0.13185-0.24461,0.2948-0.24461
		h1.76879c0.16294,0,0.2948,0.10941,0.2948,0.24461s-0.13185,0.24461-0.2948,0.24461H3.42424v1.22306
		C3.42424,4.68212,3.29239,4.79152,3.12944,4.79152z"/>
	<path class="st0" d="M31.46573,3.32386h-3.32108c-0.16237,0-0.2948-0.10941-0.2948-0.24461
		c0-0.13521,0.13243-0.24461,0.2948-0.24461h3.32108c0.16237,0,0.2948,0.10941,0.2948,0.24461S31.6281,3.32386,31.46573,3.32386z
		 M24.82357,3.32386h-3.32108c-0.16237,0-0.2948-0.10941-0.2948-0.24461c0-0.13521,0.13243-0.24461,0.2948-0.24461h3.32108
		c0.16237,0,0.2948,0.10941,0.2948,0.24461C25.11836,3.21445,24.98594,3.32386,24.82357,3.32386z M18.18255,3.32386H14.8609
		c-0.16294,0-0.2948-0.10941-0.2948-0.24461c0-0.13521,0.13185-0.24461,0.2948-0.24461h3.32166
		c0.16237,0,0.2948,0.10941,0.2948,0.24461C18.47735,3.21445,18.34492,3.32386,18.18255,3.32386z M11.54039,3.32386H8.21931
		c-0.16295,0-0.2948-0.10941-0.2948-0.24461c0-0.13521,0.13185-0.24461,0.2948-0.24461h3.32108
		c0.16294,0,0.2948,0.10941,0.2948,0.24461S11.70334,3.32386,11.54039,3.32386z"/>
	<path class="st0" d="M36.5556,4.79152c-0.16237,0-0.2948-0.10941-0.2948-0.24461V3.32386h-1.47399
		c-0.16237,0-0.2948-0.10941-0.2948-0.24461c0-0.13521,0.13243-0.24461,0.2948-0.24461h1.76879
		c0.16237,0,0.2948,0.10941,0.2948,0.24461v1.46767C36.8504,4.68212,36.71796,4.79152,36.5556,4.79152z"/>
	<path class="st0" d="M36.5556,21.29416c-0.16237,0-0.2948-0.10988-0.2948-0.24461v-2.75092
		c0-0.13473,0.13243-0.24461,0.2948-0.24461s0.2948,0.10988,0.2948,0.24461v2.75092
		C36.8504,21.18428,36.71796,21.29416,36.5556,21.29416z M36.5556,15.79329c-0.16237,0-0.2948-0.10988-0.2948-0.24461v-2.75044
		c0-0.1352,0.13243-0.24461,0.2948-0.24461s0.2948,0.10941,0.2948,0.24461v2.75044
		C36.8504,15.68341,36.71796,15.79329,36.5556,15.79329z M36.5556,10.29241c-0.16237,0-0.2948-0.10941-0.2948-0.24461V7.29735
		c0-0.1352,0.13243-0.24461,0.2948-0.24461s0.2948,0.10941,0.2948,0.24461v2.75044
		C36.8504,10.183,36.71796,10.29241,36.5556,10.29241z"/>
</g>
<g>
	<path class="st1" d="M21.60164,17.40868c-1.40781,0.00008-2.81562,0.0006-4.22343-0.00043
		c-0.49307-0.00034-0.89783-0.40561-1.00374-0.9993c-0.01828-0.10241-0.02742-0.20635-0.02742-0.31192
		c0.00043-1.75492-0.00051-3.50992,0.00068-5.26483c0.00043-0.74802,0.44225-1.31087,1.03038-1.31096
		c1.40781-0.00043,2.81562,0.00008,4.22343,0c0-0.66082,0-1.08334,0-1.08334c-0.00009-0.52296-0.36205-0.8951-0.87836-0.89544
		c-2.23031-0.00145-4.4607-0.00043-6.69109-0.00179c-0.06466-0.00009-0.10873,0.02443-0.15271,0.06901l-2.9486,2.98174
		c-0.05432,0.05483-0.0761,0.11069-0.07601,0.18782c0.00171,1.67079,0.00128,3.34157,0.00137,5.01236
		c0,1.66361-0.00137,2.49542,0.00111,4.15903c0.00051,0.37478,0.16382,0.65706,0.49956,0.8254
		c0.12376,0.06201,0.25785,0.08054,0.39528,0.08046c1.80958-0.00043,3.61907-0.00026,5.42865-0.00026
		c1.18062,0,2.36124,0.0006,3.54195-0.00034c0.42056-0.00034,0.76894-0.28339,0.85683-0.69267
		c0.01443-0.0673,0.02255-0.13563,0.02246-0.20498c-0.00017-0.19781-0.00026-0.51895-0.00034-0.87084
		C21.60164,18.67488,21.60164,18.08683,21.60164,17.40868z"/>
	<path class="st2" d="M21.48599,17.38459c-0.05842-0.00017-0.11684-0.00009-0.17535-0.00009
		c-0.12957,0.00017-0.12974,0.00017-0.12982,0.12863c-0.00009,0.25426,0.0006,2.18589-0.00034,2.45921
		c-0.00085,0.25879-0.19414,0.45575-0.44883,0.45575c-3.00429,0.00034-6.00858,0.00034-9.01279,0
		c-0.22608,0-0.40091-0.17381-0.41296-0.40723c-0.00128-0.02374-0.00085-0.04757-0.00085-0.07132
		c-0.00008-3.27496-0.00008-5.7181,0.00034-8.99306c0-0.04894-0.00786-0.09865,0.02443-0.14426
		c0.0492-0.06961,0.10446-0.10779,0.19713-0.10693c0.53774,0.00478,1.07548,0.00376,1.61314,0.00171
		c0.40946-0.00154,0.74913-0.27511,0.83616-0.66876c0.01589-0.072,0.02255-0.14511,0.02246-0.21925
		c-0.0006-0.54193-0.00043-1.08377-0.00026-1.62561c0.00008-0.13435,0.08848-0.2236,0.22249-0.2236
		c2.17189-0.00017,4.34386-0.00034,6.51575,0.00017c0.26802,0.00009,0.44396,0.17996,0.44396,0.45088
		c0,0,0.00009-0.52476,0.00009,0.89885c0,0.03092,0.00068,0.06175,0.00094,0.09267c0.00034,0.04083,0.02075,0.06133,0.06081,0.06141
		c0.10053,0.00009,0.20105,0.00017,0.3015-0.00034c0.0369-0.00026,0.05552-0.02093,0.05637-0.05816
		c0.0006-0.02614,0.00111-0.05227,0.00111-0.07841c0-0.52211,0-0.77894,0-0.89885c-0.00009-0.52296-0.36205-0.89509-0.87835-0.89544
		c-2.23022-0.00154-4.46062-0.00051-6.69101-0.00188c-0.06466,0-0.10873,0.02451-0.15271,0.06901l-2.94869,2.98183
		c-0.05423,0.05475-0.07601,0.11061-0.07593,0.18773c0.00171,1.67079,0.00128,3.34157,0.00128,5.01236
		c0.00009,1.66361-0.00137,2.4955,0.00111,4.15912c0.0006,0.37478,0.1639,0.65706,0.49965,0.8254
		c0.12376,0.06201,0.25777,0.08054,0.39528,0.08046c1.80958-0.00043,3.61907-0.00026,5.42865-0.00026
		c1.18062,0,2.36124,0.0006,3.54195-0.00034c0.42047-0.00034,0.76894-0.28339,0.85683-0.69267
		c0.01443-0.06739,0.02255-0.13563,0.02238-0.20507c-0.00051-0.52758-0.00017-1.93154-0.00034-2.45921
		C21.60155,17.38673,21.59933,17.38502,21.48599,17.38459z"/>
	<path class="st2" d="M15.32666,12.25539h-2.57169c-0.13375,0-0.24214-0.10839-0.24214-0.24214v-0.00418
		c0-0.13375,0.10839-0.24214,0.24214-0.24214h2.57178c0.13375,0,0.24214,0.10839,0.24214,0.24214v0.00418
		C15.5688,12.147,15.46041,12.25539,15.32666,12.25539z"/>
	<path class="st2" d="M15.32666,14.10656h-2.57169c-0.13375,0-0.24214-0.10839-0.24214-0.24214v-0.0041
		c0-0.13375,0.10839-0.24214,0.24214-0.24214h2.57178c0.13375,0,0.24214,0.10839,0.24214,0.24214v0.0041
		C15.5688,13.99818,15.46041,14.10656,15.32666,14.10656z"/>
	<path class="st2" d="M15.32666,15.95773h-2.57169c-0.13375,0-0.24214-0.10838-0.24214-0.24214v-0.0041
		c0-0.13375,0.10839-0.24214,0.24214-0.24214h2.57178c0.13375,0,0.24214,0.10839,0.24214,0.24214v0.00418
		C15.5688,15.84935,15.46041,15.95773,15.32666,15.95773z"/>
	<g>
		<path class="st2" d="M26.44676,13.2367c-0.17443,0-0.32566,0.06923-0.45296,0.20727
			c-0.12729,0.13805-0.20502,0.30986-0.23229,0.51588h1.29856C27.06007,13.47775,26.85593,13.2367,26.44676,13.2367z"/>
		<path class="st2" d="M27.79922,9.9904c-3.28373-0.00094-6.5676-0.00084-9.85133-0.0001
			c-0.58813,0.00027-1.03004,0.49607-1.03045,1.1551c-0.0012,1.54617-0.00027,3.09236-0.00073,4.63853
			c0,0.093,0.00917,0.18454,0.02742,0.27478c0.10592,0.52302,0.51066,0.88006,1.00376,0.88037
			c1.64054,0.00114,3.28111,0.00042,4.92155,0.00042c1.64048,0,3.28096,0.00062,4.92149-0.00031
			c0.59626-0.00037,1.03801-0.4918,1.03843-1.15536c0.00119-1.54607,0.00119-3.09236,0-4.63843
			C28.82895,10.48517,28.3884,9.99056,27.79922,9.9904z M20.48496,11.79749c-0.14054-0.05296-0.27483-0.07924-0.40338-0.07924
			c-0.34921,0-0.52365,0.18099-0.52365,0.54257v0.35823h0.80634v0.76568h-0.80634v2.59941h-1.08571v-2.59941h-0.59267v-0.76568
			h0.59267v-0.41746c0-0.38368,0.131-0.69229,0.39301-0.92666c0.26164-0.23479,0.6179-0.35198,1.06799-0.35198
			c0.22066,0,0.40463,0.0221,0.55175,0.06589V11.79749z M21.97739,15.98416h-1.08946v-3.3651h1.08946V15.98416z M21.89305,11.93511
			c-0.11651,0.10092-0.26696,0.15139-0.45379,0.15139c-0.18349,0-0.33436-0.05213-0.45171-0.15598
			c-0.11698-0.10426-0.17568-0.23187-0.17568-0.38284c0-0.15556,0.0587-0.28275,0.17568-0.38159
			c0.11734-0.09842,0.26821-0.14763,0.45171-0.14763c0.18683,0,0.33728,0.04921,0.45379,0.14763
			c0.11573,0.09884,0.1736,0.22604,0.1736,0.38159C22.06664,11.70532,22.00878,11.83461,21.89305,11.93511z M23.98268,15.98416
			h-1.08941v-4.98238h1.08941V15.98416z M28.0702,14.5975h-2.30206c0.03639,0.48836,0.35959,0.73274,0.96795,0.73274
			c0.38847,0,0.72987-0.08758,1.02415-0.26316v0.74942c-0.32649,0.16599-0.75056,0.25022-1.27213,0.25022
			c-0.56952,0-1.01174-0.15097-1.32671-0.4529c-0.31491-0.30027-0.47198-0.72065-0.47198-1.25988
			c0-0.55842,0.17031-1.0009,0.51004-1.32744c0.33974-0.32654,0.75797-0.4896,1.25477-0.4896
			c0.51411,0,0.91254,0.14555,1.19357,0.43706c0.28187,0.29109,0.42241,0.68687,0.42241,1.18606v0.43748H28.0702z"/>
	</g>
</g>
</svg>
