<?xml version="1.0" encoding="utf-8"?>
<!-- Generator: Adobe Illustrator 26.1.0, SVG Export Plug-In . SVG Version: 6.00 Build 0)  -->
<svg version="1.1" id="Слой_1" xmlns="http://www.w3.org/2000/svg" xmlns:xlink="http://www.w3.org/1999/xlink" x="0px" y="0px"
	 viewBox="0 0 19.84252 19.84252" style="enable-background:new 0 0 19.84252 19.84252;" xml:space="preserve">
<style type="text/css">
	.st0{fill:#606060;}
</style>
<path class="st0" d="M18.5778,14.43828c-0.11257-0.70068-0.31849-1.38817-0.51037-2.074
	c-0.6385-2.28202-1.30144-4.55731-1.92934-6.84223c-0.30676-1.11635-1.16351-1.71114-2.23196-1.67297
	c-0.57798,0.02068-1.15737,0.00371-1.73612,0.00371c-0.07036,0-0.14073,0-0.2056,0
	c-0.01933-0.35139-0.01168-0.67904-0.05976-0.99828c-0.14056-0.93379-0.98886-1.75464-2.17036-1.68341
	c-0.90499,0.05454-1.7604,0.88894-1.82113,1.83012c-0.01787,0.27656-0.0028,0.55522-0.0028,0.85159c-0.10127,0-0.17287,0-0.24447,0
	c-0.69185,0-1.38392-0.01018-2.07556,0.00264c-0.81686,0.01513-1.45223,0.37702-1.81607,1.1101
	c-0.17911,0.36092-0.2597,0.77331-0.36581,1.1675c-0.61465,2.28331-1.22887,4.56673-1.83087,6.85338
	C1.4316,13.54116,1.28146,14.1031,1.2246,14.67091c-0.06854,0.68517-0.05228,1.38015-0.05017,2.07082
	c0.00302,0.99544,0.89713,1.89499,1.89068,1.91512c0.51829,0.0105,1.03684,0.00878,1.55522,0.00909
	c2.51879,0.00161,5.03753,0.00124,7.55632,0.00312c1.48255,0.00108,2.96515,0.00775,4.44775,0.00652
	c0.92776-0.00081,1.68901-0.54434,1.95028-1.43339c0.08926-0.3038,0.09971-0.63947,0.09593-0.95996
	C18.66341,15.66656,18.67493,15.04259,18.5778,14.43828z M9.27665,3.02619C9.34232,2.67006,9.61851,2.49741,9.9959,2.52616
	c0.3115,0.0238,0.56717,0.26773,0.59085,0.59231c0.01723,0.23607,0.0034,0.47441,0.0034,0.72383c-0.46466,0-0.90015,0-1.36605,0
	C9.23987,3.56219,9.22825,3.28865,9.27665,3.02619z M10.54659,15.31291v1.21331H9.29188v-1.14327
	c-0.6034-0.05459-1.20733-0.25184-1.59432-0.52835L7.5282,14.73373l0.45728-1.27641l0.29314,0.19553
	c0.4139,0.27592,0.94472,0.43419,1.45627,0.43419c0.63058,0,1.05417-0.32932,1.05417-0.81961
	c0-0.32835-0.13217-0.68583-1.09062-1.07442c-1.04545-0.41001-2.01559-0.95985-2.01559-2.18829
	c0-0.99559,0.65438-1.76944,1.68718-2.02366V6.80185h1.24351v1.10111c0.49449,0.04786,0.92733,0.18348,1.31663,0.41158
	l0.20065,0.11768l-0.47607,1.25644l-0.27995-0.16001c-0.17992-0.10278-0.60135-0.34353-1.27129-0.34353
	c-0.67021,0-0.90892,0.35414-0.90892,0.6855c0,0.3571,0.17545,0.58908,1.21541,1.01929
	c0.8848,0.36087,1.90209,0.94876,1.90209,2.29925C12.31211,14.21842,11.61202,15.04755,10.54659,15.31291z"/>
</svg>
