<?xml version="1.0" encoding="utf-8"?>
<!-- Generator: Adobe Illustrator 26.1.0, SVG Export Plug-In . SVG Version: 6.00 Build 0)  -->
<svg version="1.1" id="Слой_1" xmlns="http://www.w3.org/2000/svg" xmlns:xlink="http://www.w3.org/1999/xlink" x="0px" y="0px"
	 viewBox="0 0 17.0079 15.5906" style="enable-background:new 0 0 17.0079 15.5906;" xml:space="preserve">
<style type="text/css">
	.st0{fill:#979695;}
</style>
<g>
	<path class="st0" d="M17.0079,3.7918c0.0001-0.0903-0.0254-0.1557-0.0889-0.2199c-1.1522-1.1622-2.3027-2.3263-3.4524-3.4911
		C13.4151,0.0287,13.3635,0,13.2878,0C10.6764,0.0016,8.065,0.0004,5.4537,0.0021C4.8491,0.0025,4.4254,0.4382,4.4253,1.0505
		C4.425,2.7173,4.4251,2.4362,4.4252,4.103c0,0.0306,0.0006,0.0612,0.0013,0.0918c0.001,0.0435,0.0228,0.0678,0.066,0.0681
		c0.1177,0.0007,0.2354,0.0005,0.3531,0.0004c0.0468,0,0.0707-0.0241,0.0711-0.0719C4.9171,4.1552,4.9178,4.119,4.9178,4.0829
		c0.0001-1.6668,0-1.3857,0.0001-3.0525c0-0.3171,0.206-0.5278,0.5199-0.5278c2.5429-0.0006,5.0859-0.0004,7.6288-0.0002
		c0.1568,0,0.2604,0.1045,0.2604,0.2618c0.0002,0.6344,0.0005,1.2689-0.0003,1.9033c-0.0001,0.0868,0.0077,0.1724,0.0263,0.2567
		c0.1019,0.4609,0.4997,0.7811,0.979,0.783c0.6296,0.0024,1.2592,0.0035,1.8887-0.002c0.1085-0.0009,0.1732,0.0437,0.2308,0.1252
		c0.0377,0.0534,0.0285,0.1116,0.0285,0.1689c0.0005,3.8344,0.0005,6.6949,0.0004,10.5294c0,0.0278,0.0004,0.0557-0.001,0.0835
		c-0.0142,0.2733-0.2188,0.4768-0.4835,0.4769c-3.5175,0.0004-7.0349,0.0004-10.5524,0c-0.2982,0-0.5245-0.2307-0.5255-0.5336
		c-0.0011-0.32-0.0002-0.5815-0.0004-0.8793c-0.0001-0.1504-0.0003-0.1504-0.1519-0.1506c-0.0684-0.0001-0.1369-0.0002-0.2053,0
		c-0.1328,0.0005-0.1353,0.0025-0.1353,0.134c-0.0002,0.6177,0.0002,0.2615-0.0004,0.8793c-0.0001,0.0813,0.0094,0.1612,0.0263,0.24
		c0.103,0.4792,0.5109,0.8106,1.0032,0.811c1.3823,0.0011,2.7647,0.0004,4.147,0.0004c2.1187,0,4.2373-0.0002,6.356,0.0003
		c0.1609,0,0.3178-0.0216,0.4628-0.0943c0.3931-0.197,0.5843-0.5275,0.5849-0.9664c0.0029-1.9478,0.0013-2.9217,0.0013-4.8695
		C17.0063,7.7042,17.0059,5.748,17.0079,3.7918z"/>
	<g>
		<path class="st0" d="M2.7807,7.5595H2.0384v3.0211h0.6503c0.3489,0,0.645-0.1288,0.8882-0.3862
			c0.2432-0.2575,0.3648-0.6405,0.3648-1.1493c0-0.4153-0.1062-0.7667-0.3188-1.0543C3.4104,7.7033,3.1296,7.5595,2.7807,7.5595z"/>
		<path class="st0" d="M7.1297,7.5066c-0.6683,0-1.0024,0.5284-1.0024,1.5853c0,0.5128,0.0851,0.9017,0.2554,1.1664
			c0.1702,0.2648,0.414,0.3971,0.7312,0.3971c0.2813,0,0.5192-0.1142,0.7137-0.3426C8.0221,10.0843,8.1194,9.6701,8.1194,9.07
			c0-0.4879-0.0804-0.8705-0.2411-1.1477C7.7176,7.6451,7.468,7.5066,7.1297,7.5066z"/>
		<path class="st0" d="M12.7415,4.8683C8.8968,4.8671,5.052,4.8672,1.2072,4.8682C0.5186,4.8684,0.0013,5.4489,0.0008,6.2205
			C-0.0006,8.0308,0.0005,9.8411,0,11.6514c0,0.1089,0.0107,0.2161,0.0321,0.3217c0.124,0.6124,0.5979,1.0304,1.1752,1.0308
			c1.9208,0.0013,3.8416,0.0005,5.7623,0.0005c1.9208,0,3.8415,0.0008,5.7623-0.0004c0.698-0.0004,1.2153-0.5758,1.2158-1.3527
			c0.0014-1.8102,0.0014-3.6206,0-5.4309C13.9471,5.4476,13.4313,4.8684,12.7415,4.8683z M4.2367,10.5993
			c-0.368,0.4049-0.8945,0.6074-1.5797,0.6074H1.2358V6.9553h1.5956c0.59,0,1.0637,0.205,1.4211,0.6151
			c0.3573,0.4101,0.536,0.9162,0.536,1.5183C4.7886,9.6909,4.6046,10.1944,4.2367,10.5993z M8.4572,10.6663
			c-0.3395,0.4038-0.7894,0.6057-1.3498,0.6057c-0.5752,0-1.023-0.2117-1.3434-0.6354c-0.3204-0.4235-0.4806-0.9468-0.4806-1.5697
			c0-0.6188,0.1702-1.1363,0.5107-1.5526C6.1347,7.098,6.5841,6.8899,7.1424,6.8899c0.5625,0,1.0071,0.2081,1.3339,0.6245
			C8.803,7.9306,8.9663,8.4513,8.9663,9.0763C8.9663,9.7324,8.7966,10.2624,8.4572,10.6663z M10.5683,10.2333
			c0.1734,0.2627,0.4028,0.394,0.6883,0.394c0.2284,0,0.4229-0.0883,0.5837-0.2648c0.1607-0.1765,0.2516-0.3872,0.2728-0.6322
			l0.7233,0.0778c-0.0465,0.4257-0.2141,0.7761-0.5027,1.0512c-0.2887,0.2751-0.6678,0.4127-1.1372,0.4127
			c-0.3954,0-0.7164-0.0975-0.9627-0.2928c-0.2464-0.1952-0.4362-0.4599-0.5694-0.7942C9.531,9.8507,9.4643,9.4822,9.4643,9.0794
			c0-0.6478,0.1565-1.1747,0.4695-1.5806c0.313-0.406,0.7433-0.6089,1.291-0.6089c0.4293,0,0.7867,0.1298,1.0721,0.3893
			c0.2855,0.2595,0.4653,0.6312,0.5393,1.115l-0.7233,0.0747c-0.1332-0.6416-0.4272-0.9624-0.8818-0.9624
			c-0.2918,0-0.5186,0.1334-0.6804,0.4002c-0.1618,0.2668-0.2427,0.6535-0.2427,1.1602
			C10.3081,9.5819,10.3949,9.9707,10.5683,10.2333z"/>
	</g>
</g>
</svg>
