<?xml version="1.0" encoding="utf-8"?>
<!-- Generator: Adobe Illustrator 26.1.0, SVG Export Plug-In . SVG Version: 6.00 Build 0)  -->
<svg version="1.1" id="Слой_1" xmlns="http://www.w3.org/2000/svg" xmlns:xlink="http://www.w3.org/1999/xlink" x="0px" y="0px"
	 viewBox="0 0 21.0462 15.5906" style="enable-background:new 0 0 21.0462 15.5906;" xml:space="preserve">
<style type="text/css">
	.st0{fill:#E2E2E2;}
	.st1{fill:#979695;}
</style>
<path class="st0" d="M12.5827,11.55369c-1.6483,0.0001-3.2966,0.0007-4.9449-0.0005c-0.5773-0.0004-1.0512-0.4749-1.1752-1.17
	c-0.0214-0.1199-0.0321-0.2416-0.0321-0.3652c0.0005-2.0547-0.0006-4.1095,0.0008-6.1642c0.0005-0.8758,0.5178-1.5348,1.2064-1.5349
	c1.6483-0.0005,3.2966,0.0001,4.9449,0c0-0.7737,0-1.2684,0-1.2684c-0.0001-0.6123-0.4239-1.048-1.0284-1.0484
	c-2.6113-0.0017-5.2227-0.0005-7.8341-0.0021c-0.0757-0.0001-0.1273,0.0286-0.1788,0.0808L0.089,3.57189
	C0.0254,3.63609-0.0001,3.70149,0,3.79179c0.002,1.9562,0.0015,3.9124,0.0016,5.8686c0,1.9478-0.0016,2.9217,0.0013,4.8695
	c0.0006,0.4388,0.1918,0.7693,0.5849,0.9664c0.1449,0.0726,0.3019,0.0943,0.4628,0.0942c2.1187-0.0005,4.2373-0.0003,6.356-0.0003
	c1.3823,0,2.7646,0.0007,4.147-0.0004c0.4924-0.0004,0.9003-0.3318,1.0032-0.811c0.0169-0.0788,0.0264-0.1588,0.0263-0.24
	c-0.0002-0.2316-0.0003-0.6076-0.0004-1.0196C12.5827,13.03619,12.5827,12.34769,12.5827,11.55369z"/>
<path class="st1" d="M12.4473,11.52549c-0.0684-0.0002-0.1368-0.0001-0.2053-0.0001c-0.1517,0.0002-0.1519,0.0002-0.152,0.1506
	c-0.0001,0.2977,0.0007,2.5593-0.0004,2.8793c-0.001,0.303-0.2273,0.5336-0.5255,0.5336c-3.5175,0.0004-7.035,0.0004-10.5524,0
	c-0.2647,0-0.4694-0.2035-0.4835-0.4768c-0.0015-0.0278-0.001-0.0557-0.001-0.0835c-0.0001-3.8344-0.0001-6.6949,0.0004-10.5293
	c0-0.0573-0.0092-0.1155,0.0286-0.1689c0.0576-0.0815,0.1223-0.1262,0.2308-0.1252c0.6296,0.0056,1.2592,0.0044,1.8887,0.002
	c0.4794-0.0018,0.8771-0.3221,0.979-0.783c0.0186-0.0843,0.0264-0.1699,0.0263-0.2567c-0.0007-0.6345-0.0005-1.2689-0.0003-1.9033
	c0.0001-0.1573,0.1036-0.2618,0.2605-0.2618c2.5429-0.0002,5.0859-0.0004,7.6288,0.0002c0.3138,0.0001,0.5198,0.2107,0.5198,0.5279
	c0,0,0.0001-0.6144,0.0001,1.0524c0,0.0362,0.0008,0.0723,0.0011,0.1085c0.0004,0.0478,0.0243,0.0718,0.0712,0.0719
	c0.1177,0.0001,0.2354,0.0002,0.353-0.0004c0.0432-0.0003,0.065-0.0245,0.066-0.0681c0.0007-0.0306,0.0013-0.0612,0.0013-0.0918
	c0-0.6113,0-0.912,0-1.0524c-0.0001-0.6123-0.4239-1.048-1.0284-1.0484c-2.6112-0.0018-5.2226-0.0006-7.834-0.0022
	c-0.0757,0-0.1273,0.0287-0.1788,0.0808l-3.4524,3.4912C0.0254,3.63609-0.0001,3.70149,0,3.79179
	c0.002,1.9562,0.0015,3.9124,0.0015,5.8686c0.0001,1.9478-0.0016,2.9218,0.0013,4.8696c0.0007,0.4388,0.1919,0.7693,0.585,0.9664
	c0.1449,0.0726,0.3018,0.0943,0.4628,0.0942c2.1187-0.0005,4.2373-0.0003,6.356-0.0003c1.3823,0,2.7646,0.0007,4.147-0.0004
	c0.4923-0.0004,0.9003-0.3318,1.0032-0.811c0.0169-0.0789,0.0264-0.1588,0.0262-0.2401c-0.0006-0.6177-0.0002-2.2615-0.0004-2.8793
	C12.5826,11.52799,12.58,11.52599,12.4473,11.52549z"/>
<path class="st1" d="M5.2358,5.52009h-3.011c-0.1566,0-0.2835-0.1269-0.2835-0.2835v-0.0049c0-0.1566,0.1269-0.2835,0.2835-0.2835
	h3.0111c0.1566,0,0.2835,0.1269,0.2835,0.2835v0.0049C5.5193,5.39319,5.3924,5.52009,5.2358,5.52009z"/>
<path class="st1" d="M5.2358,7.68749h-3.011c-0.1566,0-0.2835-0.1269-0.2835-0.2835v-0.0048c0-0.1566,0.1269-0.2835,0.2835-0.2835
	h3.0111c0.1566,0,0.2835,0.1269,0.2835,0.2835v0.0048C5.5193,7.56059,5.3924,7.68749,5.2358,7.68749z"/>
<path class="st1" d="M5.2358,9.85489h-3.011c-0.1566,0-0.2835-0.1269-0.2835-0.2835v-0.0048c0-0.1566,0.1269-0.2835,0.2835-0.2835
	h3.0111c0.1566,0,0.2835,0.1269,0.2835,0.2835v0.0049C5.5193,9.72799,5.3924,9.85489,5.2358,9.85489z"/>
<g>
	<path class="st1" d="M18.25549,6.66903c-0.20422,0-0.38129,0.08105-0.53033,0.24268s-0.24005,0.36279-0.27197,0.604h1.52039
		C18.97357,6.95126,18.73456,6.66903,18.25549,6.66903z"/>
	<path class="st1" d="M19.83899,2.86819c-3.84467-0.0011-7.68951-0.00098-11.53418-0.00012
		c-0.6886,0.00031-1.20599,0.58081-1.20648,1.35242c-0.0014,1.8103-0.00031,3.62061-0.00085,5.43091
		c0,0.10889,0.01074,0.21606,0.0321,0.32172c0.12402,0.61237,0.5979,1.0304,1.17523,1.03076
		c1.92078,0.00134,3.84161,0.00049,5.76227,0.00049c1.92072,0,3.84143,0.00073,5.76221-0.00037
		c0.69812-0.00043,1.21533-0.57581,1.21582-1.35272c0.0014-1.81018,0.0014-3.62061,0-5.43079
		C21.04462,3.44747,20.52881,2.86837,19.83899,2.86819z M11.27527,4.98397c-0.16455-0.06201-0.32178-0.09277-0.47229-0.09277
		c-0.40887,0-0.6131,0.21191-0.6131,0.63525v0.41943h0.94409v0.89648h-0.94409v3.04346H8.9187V6.84237H8.22479V5.94589H8.9187
		V5.45712c0-0.44922,0.15338-0.81055,0.46014-1.08496c0.30634-0.2749,0.72345-0.41211,1.25043-0.41211
		c0.25836,0,0.47375,0.02588,0.646,0.07715V4.98397z M13.02264,9.88583h-1.27557V5.94589h1.27557V9.88583z M12.92389,5.1451
		c-0.13641,0.11816-0.31256,0.17725-0.53131,0.17725c-0.21484,0-0.39148-0.06104-0.52887-0.18262
		c-0.13696-0.12207-0.20569-0.27148-0.20569-0.44824c0-0.18213,0.06873-0.33105,0.20569-0.44678
		c0.13739-0.11523,0.31403-0.17285,0.52887-0.17285c0.21875,0,0.3949,0.05762,0.53131,0.17285
		c0.1355,0.11572,0.20325,0.26465,0.20325,0.44678C13.12714,4.87606,13.05939,5.02743,12.92389,5.1451z M15.37048,9.88583h-1.27551
		v-5.8335h1.27551V9.88583z M20.15625,8.26229h-2.69531c0.0426,0.57178,0.42102,0.85791,1.1333,0.85791
		c0.45483,0,0.85455-0.10254,1.1991-0.30811v0.87744c-0.38226,0.19434-0.87878,0.29297-1.48944,0.29297
		c-0.66681,0-1.18457-0.17676-1.55334-0.53027c-0.36871-0.35156-0.55261-0.84375-0.55261-1.4751
		c0-0.65381,0.1994-1.17188,0.59717-1.5542s0.88745-0.57324,1.46912-0.57324c0.60193,0,1.06842,0.17041,1.39746,0.51172
		c0.33002,0.34082,0.49457,0.8042,0.49457,1.38867V8.26229z"/>
</g>
</svg>
