<?xml version="1.0" encoding="utf-8"?>
<!-- Generator: Adobe Illustrator 26.1.0, SVG Export Plug-In . SVG Version: 6.00 Build 0)  -->
<svg version="1.1" id="Слой_1" xmlns="http://www.w3.org/2000/svg" xmlns:xlink="http://www.w3.org/1999/xlink" x="0px" y="0px"
	 viewBox="0 0 19.84252 19.84252" style="enable-background:new 0 0 19.84252 19.84252;" xml:space="preserve">
<style type="text/css">
	.st0{fill:#606060;}
</style>
<path class="st0" d="M11.23693,16.6242c-0.2555,0-0.5087-0.04871-0.75455-0.14797c-0.55006-0.21966-1.09414-0.45585-1.64052-0.69297
	l-1.01694-0.43931l0.11902-0.31616c0.61577-1.63041,0.38463-3.0623-0.68562-4.25432
	C6.18119,9.57365,4.78239,9.18857,3.09821,9.62282L2.71083,9.72346l-0.06066-0.5041L2.64604,8.01493
	C2.6419,6.99937,2.63777,5.98335,2.64742,4.96825C2.65523,4.11629,3.10189,3.44767,3.90423,3.0851
	C4.93035,2.62144,5.9597,2.16559,6.98904,1.70927l2.02147-0.89884c0.45264-0.20265,0.90527-0.4053,1.36021-0.60198
	c0.58406-0.2509,1.17501-0.24815,1.75954,0.01195l2.55038,1.13504c0.04228,0.0216,1.47784,0.66126,1.5431,0.68883l0.47975,0.20817
	c0.65988,0.28491,1.31977,0.56982,1.9677,0.88c0.74168,0.35522,1.15525,1.01004,1.16537,1.84455
	c0.01011,0.90435,0.00551,1.80871,0,2.71306l-0.00643,1.8735c-0.00184,0.73295-0.00276,1.46544-0.01379,2.19885
	c-0.01379,0.90343-0.46412,1.57067-1.30231,1.93094c-2.14876,0.92273-4.29843,1.84179-6.45087,2.75717
	C11.79204,16.5663,11.51357,16.6242,11.23693,16.6242z M8.71595,14.95887l0.40714,0.17646
	c0.53995,0.23528,1.0776,0.46872,1.62168,0.68562c0.33362,0.1351,0.69435,0.12867,1.04267-0.0193
	c2.15059-0.91538,4.30027-1.83444,6.44719-2.75717c0.57993-0.24907,0.86667-0.67183,0.87586-1.29311
	c0.01103-0.72973,0.01195-1.45946,0.01378-2.1892l0.00643-1.87626c0.00551-0.90022,0.01011-1.80043,0-2.70065
	c-0.00643-0.56706-0.26377-0.9765-0.76466-1.21591c-0.63966-0.30651-1.29128-0.58774-1.94197-0.86897l-0.48067-0.20817
	c-0.06433-0.02757-1.50725-0.66999-1.50725-0.66999l-0.15532-0.07674l-2.43734-1.07989
	c-0.40255-0.17922-0.79223-0.18105-1.19294-0.00919C10.19839,1.05169,9.74851,1.25342,9.2991,1.4547L7.27487,2.35491
	C6.24736,2.81031,5.2194,3.2657,4.19465,3.72844c-0.55281,0.24952-0.83588,0.66907-0.8414,1.24624
	C3.3436,5.98703,3.34774,6.99937,3.35187,8.01171l0.00276,0.83037c1.77056-0.33592,3.25668,0.15394,4.42894,1.45946
	C8.97329,11.62729,9.28623,13.19244,8.71595,14.95887z M12.9859,10.16323c0,0.00092-0.00092,0.00184-0.00092,0.00276
	C12.98498,10.16506,12.9859,10.16415,12.9859,10.16323z"/>
<path class="st0" d="M16.53952,8.53345c-0.10363,0.04413-0.18819,0.09277-0.2792,0.11533
	C16.16893,8.67143,16.0711,8.6681,15.9761,8.67617c0.01045-0.09692-0.00183-0.20375,0.03537-0.28901
	c0.14478-0.33191,0.30459-0.6573,0.4601-0.98451c0.12457-0.26212,0.24733-0.52524,0.37885-0.78385
	c0.04004-0.07872,0.09679-0.15522,0.16317-0.21281c0.10523-0.09128,0.21462-0.09309,0.31576,0.02427
	c0.27322,0.31705,0.55244,0.62895,0.82523,0.94636c0.10569,0.12298,0.09417,0.264-0.04893,0.37999
	c-0.10581,0.08577-0.23338,0.15089-0.3605,0.20237c-0.12051,0.04881-0.15426,0.11839-0.15357,0.24484
	c0.00444,0.82013-0.00384,1.64033,0.00147,2.46044c0.00141,0.21825-0.08887,0.35537-0.28335,0.43714
	c-0.15552,0.06539-0.30886,0.13602-0.46481,0.20035c-0.22702,0.09363-0.30206,0.04465-0.30285-0.19883
	c-0.00199-0.61348-0.00191-1.22695-0.0025-1.84043C16.53933,9.02603,16.53952,8.78956,16.53952,8.53345z"/>
<path class="st0" d="M13.18046,10.08772c-0.12191,0.05428-0.21717,0.10643-0.31879,0.13818
	c-0.05793,0.0181-0.15815,0.02777-0.18229-0.00321c-0.03485-0.04473-0.04291-0.14056-0.0191-0.19599
	c0.18575-0.43264,0.38157-0.86095,0.57492-1.29031c0.0793-0.17609,0.15262-0.35544,0.24217-0.52622
	c0.13068-0.24925,0.29679-0.26443,0.47537-0.05518c0.23224,0.27214,0.46464,0.54416,0.69831,0.81508
	c0.12986,0.15056,0.12614,0.29788-0.03385,0.41876c-0.095,0.07177-0.20753,0.12394-0.31835,0.17009
	c-0.10425,0.0434-0.13792,0.10375-0.13549,0.21884c0.01601,0.758,0.02331,1.51619,0.03318,2.27432
	c0.00441,0.33886-0.04745,0.416-0.36101,0.54715c-0.12793,0.05351-0.253,0.11405-0.38204,0.1646
	c-0.15374,0.06023-0.22768,0.01277-0.23566-0.15518c-0.00749-0.15751-0.00224-0.31559-0.00391-0.47342
	c-0.00676-0.63713-0.01389-1.27427-0.02147-1.9114C13.19199,10.18823,13.18634,10.1527,13.18046,10.08772z"/>
<path class="st0" d="M12.26254,14.24201c-0.00711-0.11244-0.01353-0.19607-0.01741-0.27982
	c-0.00599-0.12959,0.0472-0.20676,0.17495-0.26094c1.81787-0.77082,3.63345-1.547,5.44951-2.32209
	c0.19398-0.08279,0.38807-0.16541,0.58097-0.25068c0.11665-0.05156,0.17708-0.03496,0.18384,0.11014
	c0.01528,0.32838,0.00161,0.35203-0.3621,0.50503c-1.92532,0.80987-3.85031,1.62053-5.77602,2.42949
	C12.42754,14.20202,12.35253,14.21594,12.26254,14.24201z"/>
<g>
	<path class="st0" d="M3.72533,10.91599c0.77557,0,1.50801,0.30729,2.0624,0.86528c0.55715,0.56076,0.86121,1.29824,0.85618,2.07662
		c-0.0107,1.66103-1.3047,2.96217-2.96971,2.96207c-0.77946-0.00607-1.51515-0.3189-2.07154-0.88085
		C1.0468,15.3777,0.74403,14.64188,0.7501,13.86722c0.01296-1.6523,1.31781-2.94863,2.96942-2.95123H3.72533 M3.72533,10.16598
		c-0.00199,0-0.00382,0-0.00581,0c-2.07983,0.00327-3.70321,1.63224-3.7194,3.69534
		c-0.01582,2.01885,1.64527,3.69285,3.66824,3.70861c0.00978,0.00008,0.01985,0.00011,0.02962,0.00011
		c2.04045,0,3.68264-1.64398,3.69591-3.70733C7.40691,11.84899,5.75672,10.16598,3.72533,10.16598L3.72533,10.16598z"/>
</g>
<g>
	<path class="st0" d="M5.49083,14.59758c-0.15826,0.73477-0.71216,1.26983-1.69788,1.26983
		c-1.24873,0-1.8388-0.88323-1.8388-2.00384c0-1.07917,0.60891-2.04604,1.8795-2.04604c1.04827,0,1.55695,0.61494,1.65266,1.2736
		H4.63548c-0.08214-0.3037-0.29391-0.6059-0.82897-0.6059c-0.70199,0-0.97328,0.63152-0.97328,1.34745
		c0,0.66619,0.23513,1.36704,0.99589,1.36704c0.55616,0,0.731-0.37228,0.80561-0.60213H5.49083z"/>
</g>
<path class="st0" d="M14.27064,1.87165L6.78079,5.37198c0,0-0.09075,0.03302-0.14715,0.09748
	c-0.0534,0.06103-0.05248,0.1793-0.05248,0.1793L6.58024,7.6628c0,0-0.00055,0.15769,0.03466,0.20464
	c0.04274,0.05699,0.099,0.07762,0.099,0.07762l1.24849,0.56105l-0.0015-2.13208c0.00166-0.19617-0.04496-0.25834,0.17438-0.36535
	l7.47737-3.53054L14.27064,1.87165z"/>
</svg>
