<?xml version="1.0" encoding="utf-8"?>
<!-- Generator: Adobe Illustrator 26.1.0, SVG Export Plug-In . SVG Version: 6.00 Build 0)  -->
<svg version="1.1" id="Слой_1" xmlns="http://www.w3.org/2000/svg" xmlns:xlink="http://www.w3.org/1999/xlink" x="0px" y="0px"
	 viewBox="0 0 100 100" style="enable-background:new 0 0 100 100;" xml:space="preserve">
<style type="text/css">
	.st0{fill:#828282;}
</style>
<path d="M38.9-542.90002"/>
<path class="st0" d="M89.47623,43.83261L56.10615,57.18064c-3.4663,1.38652-9.13845,1.38652-12.60476,0L10.13131,43.83261
	c-3.46632-1.38653-3.46632-3.65538,0-5.04191l33.37008-13.34802c3.46632-1.38652,9.13847-1.38652,12.60476,0L89.47623,38.7907
	C92.94254,40.17722,92.94254,42.44608,89.47623,43.83261z"/>
<path class="st0" d="M89.4762,59.61668l-6.4304-2.57219L56.10615,67.82037c-3.4663,1.38658-9.13845,1.38658-12.60474,0
	L16.56175,57.04448l-6.43041,2.57219c-3.46638,1.38651-3.46638,3.65538,0,5.04189L43.5014,78.00657
	c3.4663,1.38658,9.13845,1.38658,12.60474,0L89.4762,64.65856C92.94258,63.27206,92.94258,61.00318,89.4762,59.61668z"/>
<path class="st0" d="M89.4762,80.44251l-6.4304-2.57219L56.10615,88.64621c-3.4663,1.38658-9.13845,1.38658-12.60474,0
	L16.56175,77.87032l-6.43041,2.57219c-3.46638,1.38651-3.46638,3.65538,0,5.04189L43.5014,98.83241
	c3.4663,1.38658,9.13845,1.38658,12.60474,0L89.4762,85.4844C92.94258,84.09789,92.94258,81.82902,89.4762,80.44251z"/>
<circle class="st0" cx="49.80376" cy="8.40279" r="7.87234"/>
</svg>
