<?xml version="1.0" encoding="utf-8"?>
<!-- Generator: Adobe Illustrator 26.1.0, SVG Export Plug-In . SVG Version: 6.00 Build 0)  -->
<svg version="1.1" id="Слой_1" xmlns="http://www.w3.org/2000/svg" xmlns:xlink="http://www.w3.org/1999/xlink" x="0px" y="0px"
	 viewBox="0 0 19.84252 19.84252" style="enable-background:new 0 0 19.84252 19.84252;" xml:space="preserve">
<style type="text/css">
	.st0{fill:#E2E2E2;}
	.st1{fill:#FFFFFF;}
	.st2{fill:#606060;}
</style>
<path class="st0" d="M14.56352,1.37447l1.91236,0.85149L7.76233,6.82561L7.65223,9.7568L5.34031,8.67467
	c0,0,0.04128-2.93621,0.11009-2.9775C5.51921,5.65589,14.56352,1.37447,14.56352,1.37447z"/>
<path class="st1" d="M7.92546,15.70076c0.83222,0.35669,1.65192,0.72488,2.48545,1.05856
	c0.45598,0.18254,0.93673,0.16975,1.39354-0.02467c2.28595-0.97291,4.57031-1.9496,6.8532-2.92967
	c0.74798-0.32112,1.14428-0.89755,1.15656-1.71238c0.01603-1.0635,0.01288-2.12731,0.01641-3.19099
	c0.00443-1.33639,0.02095-2.67294,0.00534-4.00911c-0.0086-0.73573-0.35913-1.30703-1.02542-1.62627
	c-0.85073-0.40761-1.72134-0.77394-2.5871-1.14951c-0.0689-0.02989-0.17804-0.0175-0.24938,0.01595
	c-2.75013,1.28969-5.49773,2.58478-8.24738,3.87549C7.62249,6.05706,7.59065,6.11559,7.59137,6.22681
	c0.00474,0.73622,0.00245,1.47248,0.00244,2.20872c0,0.06038,0,0.12076,0,0.20247C7.11239,8.42354,6.65987,8.22638,6.21327,8.0166
	C6.16501,7.99393,6.12563,7.89832,6.12514,7.8362C6.11919,7.07417,6.11806,6.31204,6.12673,5.55006
	c0.00078-0.06883,0.06175-0.17153,0.12234-0.20015c2.40425-1.13578,4.8118-2.26457,7.21862-3.39491
	c0.37932-0.17815,0.75724-0.35929,1.15774-0.54946c-0.07561-0.03745-0.12065-0.06186-0.16734-0.08256
	c-0.86247-0.38225-1.72536-0.76357-2.58769-1.14615c-0.52168-0.23145-1.04818-0.23616-1.56884-0.01135
	C9.58829,0.47343,8.88127,0.7958,8.17132,1.11141c-1.57875,0.70185-3.16066,1.3967-4.73514,2.10801
	c-0.70616,0.31902-1.1075,0.8804-1.11485,1.66283C2.3072,6.38672,2.32138,7.89146,2.32419,9.39608
	c0.00004,0.02325,0.005,0.04649,0.00717,0.0655c1.86361-0.48213,3.50213-0.10357,4.79302,1.33446
	C8.41492,12.23368,8.60269,13.90555,7.92546,15.70076z M7.4449,13.83713c0.01309-2.02958-1.65154-3.72547-3.69975-3.72223
	c-2.09413,0.00331-3.72875,1.64351-3.74504,3.72087c-0.01593,2.03274,1.6566,3.71829,3.69354,3.73417
	C5.76187,17.58605,7.43143,15.92469,7.4449,13.83713z"/>
<path class="st2" d="M7.92546,15.70076c0.67724-1.79521,0.48947-3.46708-0.80107-4.90472
	C5.8335,9.35801,4.19498,8.97946,2.33137,9.46158c-0.00218-0.01902-0.00713-0.04225-0.00717-0.0655
	c-0.00282-1.50462-0.017-3.00936-0.00286-4.51383c0.00735-0.78243,0.40869-1.3438,1.11485-1.66283
	c1.57448-0.71131,3.15639-1.40616,4.73514-2.10801c0.70995-0.31562,1.41698-0.63798,2.13023-0.94594
	c0.52066-0.22481,1.04716-0.2201,1.56884,0.01135c0.86233,0.38258,1.72521,0.76389,2.58769,1.14615
	c0.04669,0.02069,0.09173,0.04511,0.16734,0.08256C14.22492,1.5957,13.847,1.77685,13.46768,1.955
	c-2.40682,1.13034-4.81437,2.25913-7.21862,3.39491C6.18848,5.37853,6.12751,5.48122,6.12673,5.55006
	C6.11806,6.31204,6.11919,7.07417,6.12514,7.8362c0.00048,0.06211,0.03987,0.15773,0.08813,0.1804
	C6.65987,8.22638,7.11239,8.42354,7.59381,8.638c0-0.08172,0-0.1421,0-0.20247c0-0.73625,0.00229-1.47251-0.00244-2.20872
	C7.59065,6.11559,7.62249,6.05706,7.72668,6.00816c2.74966-1.29071,5.49725-2.5858,8.24738-3.87549
	c0.07134-0.03346,0.18047-0.04584,0.24938-0.01595c0.86576,0.37557,1.73637,0.7419,2.5871,1.14951
	c0.66628,0.31924,1.01682,0.89054,1.02542,1.62627c0.01561,1.33617-0.00092,2.67272-0.00534,4.00911
	c-0.00352,1.06368-0.00038,2.12748-0.01641,3.19099c-0.01228,0.81483-0.40858,1.39126-1.15656,1.71238
	c-2.28289,0.98007-4.56725,1.95677-6.8532,2.92967c-0.45681,0.19442-0.93756,0.20721-1.39354,0.02467
	C9.57738,16.42564,8.75767,16.05745,7.92546,15.70076z M16.70761,8.66705c0,0.27214-0.0002,0.5234,0.00004,0.77466
	c0.00064,0.65186,0.00056,1.30372,0.00266,1.95558c0.00084,0.25871,0.08058,0.31076,0.3218,0.21127
	c0.1657-0.06835,0.32864-0.1434,0.49389-0.21288c0.20666-0.08688,0.30258-0.23258,0.30108-0.46449
	c-0.00564-0.87143,0.00316-1.74295-0.00156-2.61439c-0.00073-0.13435,0.03513-0.2083,0.16318-0.26016
	c0.13508-0.0547,0.27063-0.1239,0.38306-0.21503c0.15205-0.12325,0.16429-0.2731,0.05199-0.40377
	c-0.28987-0.33728-0.58656-0.66868-0.87687-1.00557c-0.10747-0.12471-0.22372-0.12278-0.33552-0.02579
	c-0.07053,0.06119-0.13084,0.14248-0.17338,0.22612c-0.13976,0.2748-0.27019,0.55438-0.40256,0.8329
	c-0.16524,0.34768-0.33505,0.69343-0.48889,1.04611C16.107,8.6022,16.12004,8.71571,16.10894,8.8187
	c0.10095-0.00856,0.2049-0.00502,0.302-0.0291C16.50765,8.76562,16.59749,8.71393,16.70761,8.66705z M13.13838,10.31857
	c0.00625,0.06906,0.01226,0.1068,0.01271,0.14461c0.00805,0.67699,0.01563,1.35399,0.02281,2.031
	c0.00178,0.16769-0.00379,0.33567,0.00416,0.50304c0.00849,0.17846,0.08705,0.22888,0.25041,0.16489
	c0.13711-0.05371,0.27001-0.11804,0.40594-0.1749c0.33318-0.13935,0.3883-0.22132,0.3836-0.58138
	c-0.0105-0.80556-0.01826-1.61119-0.03526-2.41662c-0.00259-0.12229,0.0332-0.1864,0.14397-0.23253
	c0.11776-0.04904,0.23733-0.10448,0.33827-0.18073c0.17-0.12844,0.17396-0.28498,0.03597-0.44496
	c-0.24829-0.28787-0.49523-0.57691-0.742-0.86608c-0.18975-0.22235-0.36625-0.20621-0.50511,0.05863
	c-0.09515,0.18147-0.17306,0.37204-0.25732,0.55915c-0.20545,0.45622-0.41352,0.91134-0.61089,1.37104
	c-0.02529,0.05891-0.01673,0.16072,0.0203,0.20825c0.02565,0.03292,0.13215,0.02264,0.1937,0.00341
	C12.90762,10.43165,13.00883,10.37625,13.13838,10.31857z M12.16302,14.7328c0.09563-0.02771,0.17533-0.04251,0.24836-0.07319
	c2.04619-0.85958,4.09163-1.72096,6.13742-2.5815c0.38647-0.16256,0.401-0.1877,0.38476-0.53663
	c-0.00718-0.15418-0.07139-0.17183-0.19534-0.11703c-0.20497,0.09061-0.41119,0.1784-0.61732,0.26637
	c-1.92968,0.82358-3.85887,1.64833-5.79048,2.46738c-0.13576,0.05756-0.19227,0.13956-0.1859,0.27727
	C12.14864,14.52446,12.15547,14.61332,12.16302,14.7328z"/>
<path class="st0" d="M16.70761,8.66705c-0.11011,0.04689-0.19996,0.09857-0.29667,0.12255
	c-0.0971,0.02407-0.20105,0.02053-0.302,0.0291c0.0111-0.10298-0.00194-0.2165,0.03758-0.30709
	c0.15384-0.35268,0.32365-0.69843,0.48889-1.04611c0.13237-0.27852,0.2628-0.5581,0.40256-0.8329
	c0.04254-0.08364,0.10285-0.16493,0.17338-0.22612c0.11181-0.09699,0.22805-0.09892,0.33552,0.02579
	c0.29032,0.33689,0.58701,0.6683,0.87687,1.00557c0.1123,0.13067,0.10006,0.28052-0.05199,0.40377
	c-0.11243,0.09114-0.24798,0.16033-0.38306,0.21503c-0.12805,0.05186-0.16391,0.1258-0.16318,0.26016
	c0.00472,0.87144-0.00408,1.74296,0.00156,2.61439c0.0015,0.23191-0.09443,0.37761-0.30108,0.46449
	c-0.16525,0.06948-0.32819,0.14453-0.49389,0.21288c-0.24122,0.09949-0.32096,0.04744-0.3218-0.21127
	c-0.00211-0.65186-0.00203-1.30372-0.00266-1.95558C16.70741,9.19045,16.70761,8.93919,16.70761,8.66705z"/>
<path class="st0" d="M13.13838,10.31857c-0.12954,0.05768-0.23076,0.11309-0.33874,0.14683
	c-0.06155,0.01923-0.16805,0.02951-0.1937-0.00341c-0.03703-0.04753-0.04559-0.14935-0.0203-0.20825
	c0.19737-0.45971,0.40544-0.91482,0.61089-1.37104c0.08426-0.18711,0.16217-0.37768,0.25732-0.55915
	c0.13886-0.26484,0.31536-0.28098,0.50511-0.05863c0.24677,0.28917,0.49371,0.57821,0.742,0.86608
	c0.13799,0.15998,0.13403,0.31652-0.03597,0.44496c-0.10094,0.07626-0.22051,0.1317-0.33827,0.18073
	c-0.11077,0.04612-0.14655,0.11024-0.14397,0.23253c0.01701,0.80543,0.02477,1.61106,0.03526,2.41662
	c0.00469,0.36006-0.05042,0.44203-0.3836,0.58138c-0.13593,0.05686-0.26883,0.12119-0.40594,0.1749
	c-0.16336,0.064-0.24193,0.01357-0.25041-0.16489c-0.00796-0.16737-0.00238-0.33534-0.00416-0.50304
	c-0.00718-0.677-0.01476-1.354-0.02281-2.031C13.15063,10.42537,13.14463,10.38762,13.13838,10.31857z"/>
<path class="st0" d="M12.16302,14.7328c-0.00755-0.11948-0.01438-0.20834-0.0185-0.29733
	c-0.00637-0.1377,0.05015-0.2197,0.1859-0.27727c1.93161-0.81905,3.86079-1.6438,5.79048-2.46738
	c0.20612-0.08797,0.41235-0.17576,0.61732-0.26637c0.12395-0.05479,0.18816-0.03715,0.19534,0.11703
	c0.01624,0.34893,0.00171,0.37406-0.38476,0.53663c-2.04579,0.86054-4.09122,1.72193-6.13742,2.5815
	C12.33835,14.6903,12.25865,14.70509,12.16302,14.7328z"/>
<path class="st2" d="M3.74518,10.11492c-2.09418,0.0033-3.72876,1.64349-3.74506,3.72083
	c-0.01593,2.03278,1.65662,3.71832,3.69354,3.73419c2.06818,0.01611,3.73779-1.64526,3.75122-3.73279
	C7.45801,11.80755,5.79333,10.11168,3.74518,10.11492z"/>
<g>
	<path class="st0" d="M4.72871,16.65125H2.84303v-0.23816c0.06074-0.00481,0.12347-0.00962,0.18817-0.01443
		c0.0647-0.00481,0.12083-0.01443,0.16836-0.02887c0.07395-0.02165,0.12875-0.05924,0.1644-0.11337
		c0.03565-0.05413,0.05348-0.12449,0.05348-0.2108v-2.19518c0-0.07698-0.01915-0.14705-0.05744-0.2108
		c-0.03829-0.06375-0.09178-0.11728-0.16044-0.16028c-0.05018-0.02887-0.12281-0.05353-0.21788-0.07397
		c-0.09508-0.02045-0.18223-0.03308-0.26146-0.03789v-0.23816l1.37861-0.07939l0.05546,0.05052v2.90124
		c0,0.0842,0.01783,0.15396,0.05282,0.20929c0.03565,0.05533,0.09111,0.09623,0.1677,0.12269
		c0.05744,0.02165,0.11356,0.03909,0.16902,0.05232c0.0548,0.01323,0.11686,0.02225,0.18487,0.02706V16.65125z M4.23352,11.64625
		c0,0.13712-0.04952,0.25681-0.14856,0.35905c-0.09904,0.10224-0.22118,0.15336-0.36644,0.15336
		c-0.13469,0-0.25156-0.04871-0.35059-0.14614c-0.09904-0.09743-0.14856-0.20869-0.14856-0.33379
		c0-0.13231,0.04952-0.24778,0.14856-0.34642c0.09904-0.09863,0.2159-0.14795,0.35059-0.14795
		c0.15054,0,0.274,0.04631,0.3704,0.13893C4.18532,11.4159,4.23352,11.52356,4.23352,11.64625z"/>
</g>
</svg>
