<?xml version="1.0" encoding="utf-8"?>
<!-- Generator: Adobe Illustrator 26.1.0, SVG Export Plug-In . SVG Version: 6.00 Build 0)  -->
<svg version="1.1" id="Слой_1" xmlns="http://www.w3.org/2000/svg" xmlns:xlink="http://www.w3.org/1999/xlink" x="0px" y="0px"
	 viewBox="0 0 19.84252 19.84252" style="enable-background:new 0 0 19.84252 19.84252;" xml:space="preserve">
<style type="text/css">
	.st0{fill:#606060;}
</style>
<path class="st0" d="M13.38158,18.54688c-0.26465,0-0.39844,0-1.69238-1.9209c-0.1543-0.22852-0.09375-0.54004,0.13574-0.69434
	c0.22852-0.15234,0.53906-0.09473,0.69434,0.13574c0.37793,0.56152,0.66797,0.9668,0.86621,1.22754
	c1.25586-1.64551,5.45703-8.13672,5.45703-10.83447C18.84252,3.44971,16.39232,1,13.38158,1
	c-0.50781,0-1.01172,0.06982-1.49707,0.20752c-0.26855,0.07617-0.54297-0.07959-0.61816-0.34424
	c-0.0752-0.26562,0.0791-0.54248,0.34473-0.61768C12.18529,0.08252,12.781,0,13.38158,0c3.5625,0,6.46094,2.89795,6.46094,6.46045
	C19.84252,9.27832,14.51928,18.54688,13.38158,18.54688z"/>
<path class="st0" d="M6.29822,2.30212c2.92148,0,5.29828,2.3768,5.29828,5.29828c0,2.3954-3.67584,8.38547-5.29824,10.66272
	C4.67585,15.98591,1,9.99592,1,7.6004C1,4.67892,3.37677,2.30212,6.29822,2.30212 M6.29822,1.30212
	C2.81978,1.30212,0,4.12196,0,7.6004s6.03264,12.24212,6.29828,12.24212c0.26558,0,6.29822-8.76368,6.29822-12.24212
	S9.77666,1.30212,6.29822,1.30212L6.29822,1.30212z M6.22334,10.32532c-1.73444,0-3.1405-1.40606-3.1405-3.1405
	c0-1.73452,1.40606-3.14057,3.1405-3.14057c1.73451,0,3.1405,1.40605,3.1405,3.14057
	C9.36384,8.91926,7.95785,10.32532,6.22334,10.32532L6.22334,10.32532z"/>
<circle class="st0" cx="6.22334" cy="7.18478" r="3.13382"/>
</svg>
