<?xml version="1.0" encoding="utf-8"?>
<!-- Generator: Adobe Illustrator 26.1.0, SVG Export Plug-In . SVG Version: 6.00 Build 0)  -->
<svg version="1.1" id="Слой_1" xmlns="http://www.w3.org/2000/svg" xmlns:xlink="http://www.w3.org/1999/xlink" x="0px" y="0px"
	 viewBox="0 0 40 40" style="enable-background:new 0 0 40 40;" xml:space="preserve">
<style type="text/css">
	.st0{fill:#828282;}
	.st1{fill:#E30613;}
	.st2{fill:#FFFFFF;}
</style>
<path class="st0" d="M28.9,10.1c0.2,4.7-4.1,9.1-9.2,8.9c-4.5-0.2-8.7-4.1-8.5-9.2c0.2-4.6,4.1-8.7,9.2-8.5
	C25,1.3,28.9,5.3,28.9,10.1z"/>
<circle class="st1" cx="31.18134" cy="30.92875" r="7.67646"/>
<g>
	<path class="st2" d="M25.46727,35.53286l3.79263-4.78885l-3.45498-4.41937h3.9858l1.47622,2.33088l1.61128-2.33088h3.89628
		l-3.57434,4.41937l3.69526,4.78885h-4.0015l-1.67096-2.49466l-1.67881,2.49466H25.46727z"/>
</g>
<path class="st0" d="M21.27551,30.92877c0-5.47083,4.435-9.90582,9.90582-9.90582c0.59106,0,1.16681,0.06128,1.72943,0.16052
	c-0.58917-0.59308-1.28003-1.07196-2.11078-1.38348c-1.39996-0.5-2.70001-0.70001-4,0.40002
	c-0.29999,0.20001-0.59998,0.39996-0.89996,0.59998c-2.5,1.5-5.20001,2.10004-8.10004,1.5
	c-1.89996-0.39996-3.59998-1.39996-5.20001-2.5c-0.39996-0.20001-0.89996-0.39996-1.29999-0.39996
	c-1.89996,0.09998-3.5,0.79999-4.70001,2.29999c-0.89996,1.09998-1.5,2.39996-1.89996,3.70001c-0.79999,2.5-1,5-1,7.5
	C3.79999,36.20001,6,38.5,9.29999,38.59998c3.60004,0.10004,7.10004,0,10.70001,0c1.65637,0,3.28564-0.00226,4.90198-0.01123
	C22.68842,36.77203,21.27551,34.01581,21.27551,30.92877z"/>
</svg>
