<?xml version="1.0" encoding="utf-8"?>
<!-- Generator: Adobe Illustrator 26.1.0, SVG Export Plug-In . SVG Version: 6.00 Build 0)  -->
<svg version="1.1" id="Слой_1" xmlns="http://www.w3.org/2000/svg" xmlns:xlink="http://www.w3.org/1999/xlink" x="0px" y="0px"
	 viewBox="0 0 104 33" style="enable-background:new 0 0 104 33;" xml:space="preserve">
<style type="text/css">
	.st0{fill:#FFFFFF;}
	.st1{fill:#E2E1E1;}
</style>
<g>
	<g>
		<path class="st0" d="M12.15801,0C5.35791,0,0,5.36378,0,12.17132s5.35791,12.17132,12.15801,12.17132
			s12.158-5.36378,12.158-12.17132S18.95983,0,12.15801,0z M17.30964,17.1221h-10.097V7.22054h10.097L17.30964,17.1221z"/>
		<g>
			<path class="st0" d="M31.1161,3.30052c6.80009-0.2065,12.77683-0.2065,17.72219,0
				c-0.20627,3.09402-0.41255,5.15728-0.61882,5.77678h-5.56419c0.41255,6.80754,0.41255,10.72756,0.20627,11.75832
				c-1.44218,0.2065-3.50319,0.413-5.97673,0.413V9.28206h-5.975L31.1161,3.30052L31.1161,3.30052z"/>
			<path class="st0" d="M63.26358,3.30052c1.64846,4.12652,3.70945,9.69506,6.18128,16.5026l-6.80009,0.6195l-1.85473-7.01404
				l-3.70946,0.2065l-1.23591,7.42704c-2.88436,0-5.15164-0.2065-6.59382-0.6195c0.8251-3.50702,2.88436-9.2838,5.975-17.3286
				C58.31648,3.09402,60.9963,3.09402,63.26358,3.30052z M60.17121,10.31456c-0.61882-1.65026-1.02964-2.88752-1.64846-3.50702
				l-1.02964,3.71352L60.17121,10.31456z"/>
			<path class="st0" d="M81.19031,2.47452l1.44218,4.33128c-2.67809,0.2065-4.53282,0.6195-5.15164,1.65026
				c-0.8251,1.03076-0.61882,1.85676,0.20628,2.47626c1.02963,0.826,2.061,1.65026,3.29691,2.68102s1.85473,2.47626,1.64846,4.12652
				c-0.20628,1.65026-1.23592,2.88752-3.29691,3.50702c-2.061,0.6195-4.94537,0.6195-8.8611-0.2065l-0.41254-3.71352
				c3.09064,0,4.94537-0.2065,5.77046-0.6195c0.8251-0.413,0.61881-1.03076-0.41255-1.65026
				c-1.02963-0.6195-2.26727-1.44376-3.29691-2.26976c-1.02964-0.826-1.64846-1.85676-1.64846-3.30052
				c0-1.23726,0.41255-2.47626,1.44218-3.92002C72.94803,4.33128,76.03867,3.30052,81.19031,2.47452z"/>
		</g>
	</g>
	<g>
		<path class="st1" d="M0,28.41189h0.53735v-1.22685h0.91696v1.22685h0.70549v0.76873H1.45258v1.08108
			c0,0.1423,0.02253,0.25335,0.06934,0.33318c0.0468,0.07982,0.11787,0.118,0.21841,0.118
			c0.07627,0,0.13694-0.01562,0.18547-0.04512c0.04853-0.0295,0.078-0.05206,0.0884-0.06421l0.32761,0.66288
			c-0.01387,0.01562-0.06067,0.03991-0.1404,0.07635c-0.07974,0.03644-0.17854,0.06941-0.30161,0.10065
			c-0.12307,0.0295-0.26001,0.04511-0.41255,0.04511c-0.27388,0-0.50095-0.07982-0.67949-0.23947
			c-0.17854-0.15965-0.27041-0.40606-0.27041-0.74097v-1.32923H0C0,29.17889,0,28.41189,0,28.41189z"/>
		<path class="st1" d="M3.66786,31.4018h-0.9239v-2.9899h0.9239v0.48414H3.65052c0.01733-0.059,0.06414-0.13188,0.1404-0.22212
			c0.07627-0.09023,0.18374-0.17179,0.31894-0.24294c0.1352-0.07115,0.29814-0.10759,0.49055-0.10759
			c0.13867,0,0.26347,0.01909,0.37615,0.059c0.11267,0.03991,0.19241,0.07982,0.24094,0.118L4.8535,29.25872
			c-0.03293-0.03991-0.09014-0.07982-0.17681-0.12147c-0.08494-0.04165-0.19241-0.06073-0.32241-0.06073
			c-0.15254,0-0.27908,0.04165-0.38135,0.12667c-0.10227,0.0833-0.17854,0.18568-0.22881,0.30541s-0.07627,0.23253-0.07627,0.33665
			V31.4018z"/>
		<path class="st1" d="M7.83319,31.4018v-0.52059c-0.02253,0.05379-0.078,0.12841-0.16814,0.22559
			c-0.09014,0.09718-0.20974,0.18568-0.36055,0.26377c-0.15254,0.07982-0.32934,0.11973-0.53388,0.11973
			c-0.28601,0-0.53908-0.06767-0.75922-0.20476c-0.22187-0.13882-0.39348-0.3245-0.51828-0.5657
			c-0.12654-0.23947-0.18894-0.50844-0.18894-0.81038c0-0.30194,0.0624-0.57091,0.18894-0.81038
			c0.1248-0.23947,0.29641-0.42862,0.51828-0.5657c0.22014-0.13882,0.47322-0.20824,0.75922-0.20824
			c0.19934,0,0.37095,0.03297,0.51828,0.09891s0.26521,0.14403,0.35534,0.23253c0.09187,0.0885,0.14907,0.16832,0.17681,0.23947
			V28.4119h0.91696v2.9899C8.73802,31.4018,7.83319,31.4018,7.83319,31.4018z M6.21074,29.90945
			c0,0.16659,0.03813,0.31582,0.1144,0.4425c0.07454,0.12841,0.17334,0.22733,0.29814,0.29673
			c0.1248,0.06941,0.25828,0.10585,0.40388,0.10585c0.15254,0,0.28948-0.03644,0.40735-0.10759
			c0.11787-0.07115,0.21147-0.17179,0.28254-0.29847c0.06934-0.12841,0.104-0.27418,0.104-0.43903
			c0-0.16485-0.03467-0.31062-0.104-0.43903c-0.06934-0.12668-0.16294-0.22732-0.28254-0.30021
			c-0.1196-0.07288-0.25481-0.10932-0.40735-0.10932c-0.1456,0-0.27908,0.03471-0.40388,0.10759
			c-0.12307,0.07288-0.22361,0.17179-0.29814,0.29847C6.24888,29.59362,6.21074,29.74113,6.21074,29.90945z"/>
		<path class="st1" d="M11.40398,28.32513c0.20281,0,0.40215,0.04165,0.59629,0.12494
			c0.19414,0.08329,0.35361,0.21691,0.47842,0.39912c0.1248,0.1822,0.18721,0.41994,0.18721,0.71494v1.83767h-0.92736v-1.67803
			c0-0.24641-0.0572-0.42688-0.17334-0.54662c-0.1144-0.118-0.26521-0.17874-0.45242-0.17874
			c-0.12134,0-0.23574,0.03297-0.34668,0.10065c-0.1092,0.06594-0.20107,0.15965-0.26868,0.27591
			c-0.06934,0.118-0.104,0.25162-0.104,0.40259v1.62423h-0.9239v-2.9899h0.9239v0.47721
			c0.026-0.0833,0.0884-0.16659,0.18027-0.25509c0.09534-0.0885,0.21494-0.16138,0.36055-0.22038
			C11.07984,28.35463,11.23584,28.32513,11.40398,28.32513z"/>
		<path class="st1" d="M14.63849,28.32513c0.17854,0,0.34494,0.01562,0.49748,0.04859
			c0.15254,0.03297,0.28254,0.07115,0.38655,0.11106c0.10574,0.04165,0.17507,0.07635,0.20974,0.10412l-0.31721,0.55876
			c-0.04853-0.03991-0.1352-0.08503-0.26001-0.13882c-0.1248-0.05379-0.26348-0.07982-0.41601-0.07982
			c-0.13867,0-0.25481,0.02256-0.34841,0.07115c-0.09534,0.04685-0.14214,0.118-0.14214,0.21344s0.05027,0.17006,0.15254,0.22559
			s0.24268,0.10412,0.42641,0.14576c0.15254,0.03297,0.30334,0.07982,0.45068,0.14403
			c0.14734,0.06421,0.27041,0.15618,0.36748,0.27765c0.09707,0.11974,0.1456,0.27938,0.1456,0.47894
			c0,0.19609-0.0416,0.35921-0.1248,0.48935c-0.0832,0.13014-0.19587,0.23253-0.33281,0.30888
			c-0.13867,0.07462-0.28948,0.12841-0.45415,0.15964c-0.16467,0.03123-0.32761,0.04685-0.49055,0.04685
			c-0.20974,0-0.39695-0.02082-0.55642-0.06073c-0.15947-0.03991-0.29121-0.08503-0.39521-0.13882
			c-0.10227-0.05206-0.17681-0.09718-0.22014-0.13362l0.31721-0.6195c0.0624,0.05727,0.1664,0.118,0.31028,0.18394
			c0.14387,0.06594,0.29988,0.09891,0.46628,0.09891c0.17507,0,0.31374-0.0295,0.41428-0.09023
			c0.10054-0.06074,0.15081-0.1423,0.15081-0.24294c0-0.07635-0.026-0.13709-0.0728-0.18394
			c-0.04853-0.04685-0.1144-0.08676-0.20107-0.118c-0.08494-0.03297-0.18374-0.059-0.29814-0.08329
			c-0.104-0.02256-0.21147-0.05379-0.32068-0.09718c-0.1092-0.04165-0.21147-0.09891-0.30508-0.17006
			c-0.09534-0.07115-0.17161-0.15965-0.22881-0.26377c-0.05894-0.10585-0.0884-0.23253-0.0884-0.38003
			c0-0.18915,0.06067-0.34706,0.18201-0.47547c0.12134-0.12668,0.27908-0.22385,0.47322-0.29153
			C14.21034,28.3581,14.41661,28.32513,14.63849,28.32513z"/>
		<path class="st1" d="M17.34951,32.91671h-0.91523v-4.50481h0.92736v0.48414c0.02947-0.07115,0.09187-0.14924,0.18894-0.23947
			c0.09707-0.09023,0.22361-0.16832,0.37961-0.23426c0.15601-0.06594,0.33455-0.09718,0.53562-0.09718
			c0.28428,0,0.53042,0.06767,0.74189,0.20824c0.20974,0.13882,0.37268,0.32623,0.48882,0.5657
			c0.1144,0.23947,0.17161,0.50844,0.17161,0.81038c0,0.30194-0.06067,0.57091-0.18027,0.81038
			c-0.12134,0.23947-0.28948,0.42688-0.50615,0.56571c-0.21494,0.13709-0.46628,0.20476-0.75229,0.20476
			c-0.21667,0-0.40215-0.03991-0.55642-0.11626c-0.15427-0.07809-0.27734-0.16485-0.36401-0.26203s-0.14041-0.17353-0.15947-0.22906
			V32.91671z M18.96503,29.90945c0-0.16659-0.03467-0.31582-0.10747-0.4425c-0.07107-0.12841-0.1664-0.22732-0.28601-0.29847
			c-0.11787-0.07115-0.25134-0.10759-0.39695-0.10759c-0.15254,0-0.29121,0.03644-0.41428,0.10932s-0.22187,0.17353-0.29294,0.30021
			s-0.10574,0.27418-0.10574,0.43903c0,0.16485,0.0364,0.31062,0.10747,0.43903c0.07107,0.12668,0.16987,0.22732,0.29294,0.29847
			s0.26174,0.10759,0.41428,0.10759c0.1456,0,0.27734-0.03471,0.39695-0.10585c0.11787-0.07115,0.21494-0.17006,0.28601-0.29673
			C18.92863,30.22354,18.96503,30.07603,18.96503,29.90945z"/>
		<path class="st1" d="M21.9326,31.4903c-0.31721,0-0.60149-0.06768-0.84936-0.20477
			c-0.24788-0.13535-0.44201-0.32277-0.58415-0.55876c-0.14041-0.236-0.21147-0.5067-0.21147-0.81038
			s0.07107-0.57438,0.21147-0.81385c0.1404-0.23947,0.33454-0.42862,0.58415-0.56744
			c0.24787-0.13882,0.53215-0.20824,0.84936-0.20824c0.32068,0,0.60322,0.06941,0.84763,0.20824
			c0.24614,0.14056,0.43682,0.32971,0.57549,0.56744c0.13867,0.23947,0.20801,0.51018,0.20801,0.81385
			s-0.06934,0.57438-0.20801,0.81038c-0.13867,0.236-0.32934,0.42341-0.57549,0.55876
			C22.53582,31.42089,22.25327,31.4903,21.9326,31.4903z M21.9326,30.72157c0.15254,0,0.28601-0.03471,0.39868-0.10412
			c0.11267-0.06941,0.20107-0.16485,0.26174-0.28806c0.0624-0.12147,0.0936-0.26029,0.0936-0.41647
			c0-0.15618-0.0312-0.295-0.0936-0.4182c-0.06067-0.12321-0.14907-0.22212-0.26174-0.29327
			c-0.11267-0.07115-0.24614-0.10759-0.39868-0.10759c-0.15254,0-0.28428,0.03644-0.39868,0.10759
			c-0.11267,0.07115-0.20107,0.17006-0.26348,0.29327c-0.0624,0.1232-0.09534,0.26376-0.09534,0.4182
			c0,0.15444,0.03293,0.29326,0.09534,0.41647c0.06413,0.12321,0.1508,0.21865,0.26348,0.28806
			C21.64832,30.68686,21.78006,30.72157,21.9326,30.72157z"/>
		<path class="st1" d="M25.0423,31.4018h-0.9239v-2.9899h0.9239v0.48414h-0.01733c0.01733-0.059,0.06413-0.13188,0.1404-0.22212
			s0.18374-0.17179,0.31894-0.24294c0.1352-0.07115,0.29814-0.10759,0.49055-0.10759c0.13867,0,0.26348,0.01909,0.37615,0.059
			s0.19241,0.07982,0.24094,0.118l-0.36401,0.75832c-0.03293-0.03991-0.09014-0.07982-0.17681-0.12147
			c-0.08494-0.04165-0.19241-0.06073-0.32241-0.06073c-0.15254,0-0.27908,0.04165-0.38135,0.12667
			c-0.10227,0.0833-0.17854,0.18568-0.22881,0.30541c-0.05027,0.11974-0.07627,0.23253-0.07627,0.33665V31.4018z"/>
		<path class="st1" d="M26.74796,28.41189h0.53735v-1.22685h0.91696v1.22685h0.70549v0.76873h-0.70549v1.08108
			c0,0.1423,0.02254,0.25335,0.06934,0.33318s0.11787,0.118,0.21841,0.118c0.07627,0,0.13694-0.01562,0.18547-0.04512
			c0.04853-0.0295,0.078-0.05206,0.0884-0.06421l0.32761,0.66288c-0.01387,0.01562-0.06067,0.03991-0.1404,0.07635
			c-0.07973,0.03644-0.17854,0.06941-0.30161,0.10065c-0.12307,0.0295-0.26001,0.04511-0.41255,0.04511
			c-0.27388,0-0.50095-0.07982-0.67949-0.23947c-0.17854-0.15965-0.27041-0.40606-0.27041-0.74097v-1.32923h-0.53735
			L26.74796,28.41189L26.74796,28.41189z"/>
		<path class="st1" d="M31.90653,31.4018v-0.52059c-0.02253,0.05379-0.078,0.12841-0.16814,0.22559
			c-0.09014,0.09718-0.20974,0.18568-0.36055,0.26377c-0.15254,0.07982-0.32934,0.118-0.53388,0.118
			c-0.28601,0-0.53909-0.06767-0.75923-0.20476c-0.22187-0.13882-0.39348-0.3245-0.51828-0.5657
			c-0.12654-0.23947-0.18894-0.50844-0.18894-0.81038c0-0.30194,0.0624-0.57091,0.18894-0.81038
			c0.12481-0.23947,0.29641-0.42862,0.51828-0.5657c0.22014-0.13882,0.47322-0.20824,0.75923-0.20824
			c0.19934,0,0.37095,0.03297,0.51828,0.09891c0.14734,0.06594,0.26521,0.14403,0.35535,0.23253
			c0.09187,0.0885,0.14907,0.16832,0.1768,0.23947v-0.48415h0.91696v2.9899L31.90653,31.4018L31.90653,31.4018z M30.28234,29.90945
			c0,0.16659,0.03813,0.31582,0.1144,0.4425c0.07453,0.12841,0.17334,0.22733,0.29814,0.29673
			c0.12481,0.06941,0.25828,0.10585,0.40388,0.10585c0.15254,0,0.28948-0.03644,0.40735-0.10759
			c0.11787-0.07115,0.21147-0.17179,0.28254-0.29847c0.06934-0.12841,0.104-0.27418,0.104-0.43903
			c0-0.16485-0.03467-0.31062-0.104-0.43903c-0.06934-0.12668-0.16294-0.22732-0.28254-0.30021
			c-0.1196-0.07288-0.25481-0.10932-0.40735-0.10932c-0.14561,0-0.27908,0.03471-0.40388,0.10759
			c-0.12307,0.07288-0.22361,0.17179-0.29814,0.29847C30.32221,29.59362,30.28234,29.74113,30.28234,29.90945z"/>
		<path class="st1" d="M33.31751,28.41189h0.53735v-1.22685h0.91696v1.22685h0.70549v0.76873h-0.70549v1.08108
			c0,0.1423,0.02253,0.25335,0.06934,0.33318s0.11787,0.118,0.21841,0.118c0.07627,0,0.13694-0.01562,0.18547-0.04512
			c0.04853-0.0295,0.078-0.05206,0.0884-0.06421l0.32761,0.66288c-0.01387,0.01562-0.06067,0.03991-0.1404,0.07635
			c-0.07973,0.03644-0.17854,0.06941-0.30161,0.10065c-0.12307,0.0295-0.26001,0.04511-0.41255,0.04511
			c-0.27388,0-0.50095-0.07982-0.67949-0.23947c-0.17854-0.15965-0.27041-0.40606-0.27041-0.74097v-1.32923h-0.53735
			L33.31751,28.41189L33.31751,28.41189z"/>
		<path class="st1" d="M36.64735,27.64142c-0.15254,0-0.28254-0.05379-0.38655-0.15965
			c-0.104-0.10585-0.15774-0.23426-0.15774-0.3835c0-0.1475,0.05374-0.27591,0.15947-0.38523
			c0.10747-0.10932,0.23574-0.16312,0.38482-0.16312c0.0988,0,0.19067,0.02429,0.27214,0.07462
			c0.0832,0.04859,0.14907,0.11626,0.20107,0.19782c0.052,0.08329,0.07627,0.17353,0.07627,0.27591
			c0,0.1475-0.05374,0.27591-0.16121,0.3835C36.92817,27.58763,36.79816,27.64142,36.64735,27.64142z M36.17587,31.4018v-2.9899
			h0.92043v2.9899H36.17587z"/>
		<path class="st1" d="M39.40518,31.4903c-0.31721,0-0.60149-0.06768-0.84936-0.20477
			c-0.24788-0.13535-0.44201-0.32277-0.58415-0.55876c-0.1404-0.236-0.21148-0.5067-0.21148-0.81038
			s0.07107-0.57438,0.21148-0.81385c0.1404-0.23947,0.33455-0.42862,0.58415-0.56744
			c0.24788-0.13882,0.53215-0.20824,0.84936-0.20824c0.32067,0,0.60322,0.06941,0.84763,0.20824
			c0.24614,0.14056,0.43681,0.32971,0.57549,0.56744c0.13867,0.23947,0.20801,0.51018,0.20801,0.81385
			s-0.06934,0.57438-0.20801,0.81038s-0.32935,0.42341-0.57549,0.55876C40.0084,31.42089,39.72586,31.4903,39.40518,31.4903z
			 M39.40518,30.72157c0.15254,0,0.28601-0.03471,0.39868-0.10412c0.11267-0.06941,0.20107-0.16485,0.26174-0.28806
			c0.0624-0.12147,0.09361-0.26029,0.09361-0.41647c0-0.15618-0.0312-0.295-0.09361-0.4182
			c-0.06067-0.12321-0.14907-0.22212-0.26174-0.29327c-0.11267-0.07115-0.24614-0.10759-0.39868-0.10759
			s-0.28428,0.03644-0.39868,0.10759c-0.11267,0.07115-0.20107,0.17006-0.26348,0.29327
			c-0.0624,0.1232-0.09534,0.26376-0.09534,0.4182c0,0.15444,0.03293,0.29326,0.09534,0.41647
			c0.06414,0.12321,0.1508,0.21865,0.26348,0.28806C39.1209,30.68686,39.25264,30.72157,39.40518,30.72157z"/>
		<path class="st1" d="M43.55839,28.32513c0.2028,0,0.40215,0.04165,0.59629,0.12494
			c0.19414,0.08329,0.35361,0.21691,0.47841,0.39912c0.1248,0.1822,0.18721,0.41994,0.18721,0.71494v1.83767h-0.92736v-1.67803
			c0-0.24641-0.05721-0.42688-0.17334-0.54662c-0.1144-0.118-0.26521-0.17874-0.45242-0.17874
			c-0.12133,0-0.23574,0.03297-0.34668,0.10065c-0.1092,0.06594-0.20107,0.15965-0.26868,0.27591
			c-0.06934,0.118-0.104,0.25162-0.104,0.40259v1.62423h-0.9239v-2.9899h0.9239v0.47721
			c0.026-0.0833,0.08841-0.16659,0.18027-0.25509c0.09534-0.0885,0.21494-0.16138,0.36055-0.22038
			C43.23424,28.35463,43.39025,28.32513,43.55839,28.32513z"/>
		<path class="st1" d="M49.77086,31.4018v-0.52059c-0.02253,0.05379-0.078,0.12841-0.16814,0.22559
			c-0.09014,0.09718-0.20974,0.18568-0.36055,0.26377c-0.15254,0.07982-0.32935,0.118-0.53389,0.118
			c-0.28601,0-0.53909-0.06767-0.75922-0.20476c-0.22188-0.13882-0.39348-0.3245-0.51828-0.5657
			c-0.12654-0.23947-0.18894-0.50844-0.18894-0.81038c0-0.30194,0.0624-0.57091,0.18894-0.81038
			c0.12481-0.23947,0.29641-0.42862,0.51828-0.5657c0.22014-0.13882,0.47322-0.20824,0.75922-0.20824
			c0.19934,0,0.37094,0.03297,0.51828,0.09891c0.14734,0.06594,0.26521,0.14403,0.35534,0.23253
			c0.09187,0.0885,0.14907,0.16832,0.17681,0.23947v-0.48415h0.91696v2.9899L49.77086,31.4018L49.77086,31.4018z M48.1484,29.90945
			c0,0.16659,0.03814,0.31582,0.1144,0.4425c0.07454,0.12841,0.17334,0.22733,0.29815,0.29673
			c0.12481,0.06941,0.25828,0.10585,0.40388,0.10585c0.15254,0,0.28947-0.03644,0.40735-0.10759
			c0.11787-0.07115,0.21147-0.17179,0.28254-0.29847c0.06934-0.12841,0.104-0.27418,0.104-0.43903
			c0-0.16485-0.03467-0.31062-0.104-0.43903c-0.06934-0.12668-0.16294-0.22732-0.28254-0.30021
			c-0.11961-0.07288-0.25481-0.10932-0.40735-0.10932c-0.1456,0-0.27908,0.03471-0.40388,0.10759
			c-0.12307,0.07288-0.22361,0.17179-0.29815,0.29847C48.18654,29.59362,48.1484,29.74113,48.1484,29.90945z"/>
		<path class="st1" d="M52.97417,30.75453c0.15774,0,0.28601-0.02777,0.38481-0.07982
			c0.0988-0.05379,0.16467-0.09371,0.19587-0.11973l0.42815,0.63685c-0.03293,0.02777-0.09707,0.06421-0.18894,0.11279
			c-0.09187,0.04859-0.20801,0.09197-0.35015,0.13015c-0.14214,0.03644-0.30334,0.05727-0.48535,0.05727
			c-0.31548,0-0.59802-0.06421-0.84763-0.19088c-0.24961-0.12841-0.44722-0.30888-0.59109-0.54662
			c-0.14387-0.236-0.21667-0.51885-0.21667-0.84682c0-0.32971,0.0728-0.61256,0.21667-0.84856
			c0.1456-0.236,0.34148-0.41647,0.59109-0.54141c0.24961-0.12668,0.53215-0.18915,0.84763-0.18915
			c0.17854,0,0.33974,0.01909,0.47841,0.05727c0.1404,0.03991,0.25654,0.08329,0.35188,0.13362
			c0.09534,0.05032,0.15947,0.09023,0.19588,0.12147l-0.44028,0.64206c-0.01733-0.02082-0.04853-0.04685-0.0988-0.07982
			c-0.04854-0.03471-0.11094-0.06594-0.19068-0.09544c-0.07973-0.0295-0.17334-0.04338-0.28254-0.04338
			c-0.13347,0-0.26001,0.03471-0.37962,0.10585c-0.1196,0.07115-0.21667,0.16832-0.29294,0.29326
			c-0.07627,0.12668-0.11267,0.27418-0.11267,0.44424c0,0.17006,0.0364,0.31929,0.11267,0.44597
			c0.07627,0.12841,0.17334,0.22732,0.29294,0.29673C52.71416,30.71809,52.84069,30.75453,52.97417,30.75453z"/>
		<path class="st1" d="M56.04053,30.75453c0.15774,0,0.28601-0.02777,0.38482-0.07982
			c0.0988-0.05379,0.16467-0.09371,0.19587-0.11973l0.42815,0.63685c-0.03294,0.02777-0.09707,0.06421-0.18894,0.11279
			c-0.09187,0.04859-0.208,0.09197-0.35014,0.13015c-0.14214,0.03644-0.30334,0.05727-0.48535,0.05727
			c-0.31548,0-0.59802-0.06421-0.84763-0.19088c-0.24961-0.12841-0.44721-0.30888-0.59108-0.54662
			c-0.14387-0.236-0.21667-0.51885-0.21667-0.84682c0-0.32971,0.0728-0.61256,0.21667-0.84856
			c0.1456-0.236,0.34148-0.41647,0.59108-0.54141c0.24961-0.12668,0.53215-0.18915,0.84763-0.18915
			c0.17854,0,0.33974,0.01909,0.47842,0.05727c0.1404,0.03991,0.25654,0.08329,0.35188,0.13362
			c0.09534,0.05032,0.15947,0.09023,0.19587,0.12147l-0.44028,0.64206c-0.01733-0.02082-0.04853-0.04685-0.0988-0.07982
			c-0.04853-0.03471-0.11094-0.06594-0.19067-0.09544c-0.07974-0.0295-0.17334-0.04338-0.28254-0.04338
			c-0.13347,0-0.26001,0.03471-0.37962,0.10585c-0.1196,0.07115-0.21667,0.16832-0.29294,0.29326
			c-0.07626,0.12668-0.11267,0.27418-0.11267,0.44424c0,0.17006,0.0364,0.31929,0.11267,0.44597
			c0.07627,0.12841,0.17334,0.22732,0.29294,0.29673C55.77879,30.71984,55.90707,30.75453,56.04053,30.75453z"/>
		<path class="st1" d="M59.03236,31.4903c-0.31721,0-0.60149-0.06768-0.84936-0.20477
			c-0.24788-0.13535-0.44202-0.32277-0.58416-0.55876c-0.14041-0.236-0.21148-0.5067-0.21148-0.81038
			s0.07107-0.57438,0.21148-0.81385c0.1404-0.23947,0.33455-0.42862,0.58416-0.56744
			c0.24788-0.13882,0.53215-0.20824,0.84936-0.20824c0.32068,0,0.60322,0.06941,0.84763,0.20824
			c0.24614,0.14056,0.43681,0.32971,0.57549,0.56744c0.13868,0.23947,0.208,0.51018,0.208,0.81385s-0.06934,0.57438-0.208,0.81038
			c-0.13868,0.236-0.32934,0.42341-0.57549,0.55876C59.63559,31.42089,59.35305,31.4903,59.03236,31.4903z M59.03236,30.72157
			c0.15254,0,0.28601-0.03471,0.39868-0.10412c0.11267-0.06941,0.20107-0.16485,0.26174-0.28806
			c0.0624-0.12147,0.09361-0.26029,0.09361-0.41647c0-0.15618-0.0312-0.295-0.09361-0.4182
			c-0.06067-0.12321-0.14907-0.22212-0.26174-0.29327c-0.11267-0.07115-0.24614-0.10759-0.39868-0.10759
			c-0.15254,0-0.28428,0.03644-0.39868,0.10759c-0.11267,0.07115-0.20108,0.17006-0.26348,0.29327
			c-0.0624,0.1232-0.09534,0.26376-0.09534,0.4182c0,0.15444,0.03294,0.29326,0.09534,0.41647
			c0.06414,0.12321,0.15081,0.21865,0.26348,0.28806C58.74809,30.68686,58.87983,30.72157,59.03236,30.72157z"/>
		<path class="st1" d="M62.15421,29.84351c0,0.26723,0.05373,0.47894,0.15947,0.63859
			c0.10747,0.15965,0.27907,0.23947,0.51655,0.23947c0.24094,0,0.41428-0.07982,0.52002-0.23947
			c0.10747-0.15965,0.15947-0.37135,0.15947-0.63859v-1.43161h0.91003v1.53746c0,0.30888-0.06067,0.57785-0.18547,0.81038
			c-0.12307,0.23253-0.30334,0.41126-0.54082,0.53968c-0.23574,0.12668-0.52348,0.19088-0.86496,0.19088
			c-0.33628,0-0.62402-0.06421-0.85976-0.19088c-0.23574-0.12841-0.41602-0.30715-0.54082-0.53968
			c-0.12307-0.23253-0.18547-0.5015-0.18547-0.81038V28.4119h0.91003L62.15421,29.84351L62.15421,29.84351z"/>
		<path class="st1" d="M67.07183,28.32513c0.20281,0,0.40215,0.04165,0.59629,0.12494s0.35361,0.21691,0.47842,0.39912
			c0.1248,0.1822,0.1872,0.41994,0.1872,0.71494v1.83767h-0.92736v-1.67803c0-0.24641-0.05721-0.42688-0.17334-0.54662
			c-0.1144-0.118-0.26521-0.17874-0.45242-0.17874c-0.12134,0-0.23574,0.03297-0.34668,0.10065
			c-0.1092,0.06594-0.20107,0.15965-0.26867,0.27591c-0.06934,0.118-0.10401,0.25162-0.10401,0.40259v1.62423h-0.9239v-2.9899
			h0.9239v0.47721c0.026-0.0833,0.08667-0.16659,0.18027-0.25509c0.09534-0.0885,0.21494-0.16138,0.36054-0.22038
			C66.74769,28.35463,66.90369,28.32513,67.07183,28.32513z"/>
		<path class="st1" d="M68.79482,28.41189h0.53735v-1.22685h0.91696v1.22685h0.7055v0.76873h-0.7055v1.08108
			c0,0.1423,0.02254,0.25335,0.06934,0.33318c0.0468,0.07982,0.11787,0.118,0.2184,0.118c0.07627,0,0.13694-0.01562,0.18547-0.04512
			c0.04854-0.0295,0.078-0.05206,0.08667-0.06421l0.32761,0.66288c-0.01387,0.01562-0.06067,0.03991-0.14041,0.07635
			c-0.07973,0.03644-0.17854,0.06941-0.30161,0.10065c-0.12307,0.0295-0.26002,0.04511-0.41254,0.04511
			c-0.27388,0-0.50095-0.07982-0.67949-0.23947c-0.17854-0.15965-0.27041-0.40606-0.27041-0.74097v-1.32923h-0.53735V28.41189z"/>
		<path class="st1" d="M72.1264,27.64142c-0.15254,0-0.28254-0.05379-0.38654-0.15965
			c-0.10574-0.10759-0.15774-0.23426-0.15774-0.3835c0-0.1475,0.05373-0.27591,0.15947-0.38523
			c0.10747-0.10932,0.23574-0.16312,0.38481-0.16312c0.0988,0,0.19067,0.02429,0.27215,0.07462
			c0.0832,0.04859,0.14906,0.11626,0.20107,0.19782c0.052,0.08329,0.07626,0.17353,0.07626,0.27591
			c0,0.1475-0.05373,0.27591-0.1612,0.3835C72.40722,27.58937,72.27547,27.64142,72.1264,27.64142z M71.65319,31.4018v-2.9899
			h0.92043v2.9899H71.65319z"/>
		<path class="st1" d="M75.32278,28.32513c0.20281,0,0.40215,0.04165,0.59629,0.12494
			c0.19414,0.08329,0.35361,0.21691,0.47842,0.39912c0.1248,0.1822,0.18721,0.41994,0.18721,0.71494v1.83767h-0.92736v-1.67803
			c0-0.24641-0.05721-0.42688-0.17334-0.54662c-0.1144-0.118-0.26521-0.17874-0.45242-0.17874
			c-0.12134,0-0.23574,0.03297-0.34668,0.10065c-0.1092,0.06594-0.20107,0.15965-0.26868,0.27591
			c-0.06934,0.118-0.104,0.25162-0.104,0.40259v1.62423h-0.9239v-2.9899h0.9239v0.47721
			c0.026-0.0833,0.08667-0.16659,0.18027-0.25509c0.09534-0.0885,0.21494-0.16138,0.36054-0.22038
			C75.00037,28.35463,75.15464,28.32513,75.32278,28.32513z"/>
		<path class="st1" d="M79.65279,31.4018v-0.52059c-0.02254,0.05379-0.078,0.12841-0.16814,0.22559
			s-0.20974,0.18568-0.36055,0.26377c-0.15254,0.07982-0.32934,0.118-0.53388,0.118c-0.28601,0-0.53909-0.06767-0.75922-0.20476
			c-0.22187-0.13882-0.39348-0.3245-0.51828-0.5657c-0.12654-0.23947-0.18894-0.50844-0.18894-0.81038
			c0-0.30194,0.0624-0.57091,0.18894-0.81038c0.1248-0.23947,0.29641-0.42862,0.51828-0.5657
			c0.22014-0.13882,0.47321-0.20824,0.75922-0.20824c0.19934,0,0.37095,0.03297,0.51829,0.09891
			c0.14733,0.06594,0.26521,0.14403,0.35535,0.23253c0.09187,0.0885,0.14907,0.16832,0.1768,0.23947v-0.48415h0.91697v2.9899
			L79.65279,31.4018L79.65279,31.4018z M78.81556,33c-0.21841,0-0.42641-0.02082-0.62749-0.06247
			c-0.20107-0.04165-0.38135-0.10411-0.54428-0.19262c-0.1612-0.08677-0.29814-0.20129-0.40735-0.34185l0.55989-0.56744
			c0.052,0.06594,0.11614,0.13188,0.1976,0.19782c0.08147,0.06594,0.18547,0.12321,0.31028,0.16659
			c0.12654,0.04512,0.28428,0.06767,0.47321,0.06767c0.17854,0,0.33455-0.03471,0.46455-0.10411
			c0.13-0.06768,0.23054-0.16659,0.30161-0.29326c0.07108-0.12668,0.10748-0.27244,0.10748-0.44076v-0.08329h0.90483v0.13882
			c0,0.32971-0.078,0.60909-0.23401,0.83468c-0.15427,0.22559-0.36401,0.39565-0.62402,0.51017
			C79.43611,32.94273,79.14317,33,78.81556,33z M78.02859,29.90945c0,0.16659,0.03814,0.31582,0.11441,0.4425
			c0.07453,0.12841,0.17334,0.22733,0.29814,0.29673c0.12481,0.06941,0.25828,0.10585,0.40388,0.10585
			c0.15254,0,0.28947-0.03644,0.40735-0.10759s0.21148-0.17179,0.28254-0.29847c0.06934-0.12841,0.104-0.27418,0.104-0.43903
			c0-0.16485-0.03467-0.31062-0.104-0.43903c-0.06934-0.12668-0.16294-0.22732-0.28254-0.30021
			c-0.11787-0.07288-0.25481-0.10932-0.40735-0.10932c-0.1456,0-0.27908,0.03471-0.40388,0.10759
			c-0.12307,0.07288-0.22361,0.17179-0.29814,0.29847C78.06674,29.59362,78.02859,29.74113,78.02859,29.90945z"/>
		<path class="st1" d="M84.46988,28.32513c0.17854,0,0.34495,0.01562,0.49748,0.04859
			c0.15254,0.03297,0.28254,0.07115,0.38654,0.11106c0.10574,0.04165,0.17508,0.07635,0.20974,0.10412l-0.31721,0.55876
			c-0.04854-0.03991-0.13521-0.08503-0.26002-0.13882c-0.1248-0.05379-0.26347-0.07982-0.41602-0.07982
			c-0.13867,0-0.25481,0.02256-0.34841,0.07115c-0.09534,0.04685-0.14214,0.118-0.14214,0.21344s0.05026,0.17006,0.15254,0.22559
			c0.10226,0.05553,0.24267,0.10412,0.42641,0.14576c0.15254,0.03297,0.30334,0.07982,0.45068,0.14403
			c0.14733,0.06421,0.2704,0.15618,0.36748,0.27765c0.09707,0.11974,0.14561,0.27938,0.14561,0.47894
			c0,0.19609-0.0416,0.35921-0.1248,0.48935c-0.08321,0.13014-0.19587,0.23253-0.33282,0.30888
			c-0.13867,0.07462-0.28947,0.12841-0.45415,0.15964c-0.16467,0.03123-0.32761,0.04685-0.49055,0.04685
			c-0.20973,0-0.39694-0.02082-0.55641-0.06073s-0.29121-0.08503-0.39522-0.13882c-0.10226-0.05206-0.1768-0.09718-0.22014-0.13362
			l0.31721-0.6195c0.0624,0.05727,0.1664,0.118,0.31028,0.18394c0.14388,0.06594,0.29988,0.09891,0.46629,0.09891
			c0.17507,0,0.31374-0.0295,0.41428-0.09023c0.10053-0.06074,0.15081-0.1423,0.15081-0.24294
			c0-0.07635-0.026-0.13709-0.07281-0.18394c-0.0468-0.04685-0.1144-0.08676-0.20107-0.118
			c-0.08494-0.03297-0.18374-0.059-0.29814-0.08329c-0.10401-0.02256-0.21148-0.05379-0.32069-0.09718
			c-0.1092-0.04338-0.21147-0.09891-0.30507-0.17006c-0.09534-0.07115-0.17161-0.15965-0.22881-0.26377
			c-0.05893-0.10585-0.08666-0.23253-0.08666-0.38003c0-0.18915,0.06067-0.34706,0.18201-0.47547
			c0.12133-0.12668,0.27907-0.22385,0.47321-0.29153C84.04173,28.3581,84.24974,28.32513,84.46988,28.32513z"/>
		<path class="st1" d="M87.66972,30.58968l0.88403-2.17779h0.91177l-2.04021,4.50481h-0.92737l0.68642-1.51491l-1.2411-2.9899
			h0.9239L87.66972,30.58968z"/>
		<path class="st1" d="M91.11917,28.32513c0.17854,0,0.34495,0.01562,0.49748,0.04859
			c0.15254,0.03297,0.28254,0.07115,0.38654,0.11106c0.10574,0.04165,0.17508,0.07635,0.20974,0.10412l-0.31721,0.55876
			c-0.04854-0.03991-0.13521-0.08503-0.26001-0.13882c-0.1248-0.05379-0.26348-0.07982-0.41602-0.07982
			c-0.13867,0-0.25481,0.02256-0.34841,0.07115c-0.09534,0.04685-0.14214,0.118-0.14214,0.21344s0.05026,0.17006,0.15254,0.22559
			c0.10226,0.05553,0.24267,0.10412,0.42641,0.14576c0.15254,0.03297,0.30334,0.07982,0.45068,0.14403
			c0.14733,0.06421,0.2704,0.15618,0.36748,0.27765c0.09707,0.11974,0.14561,0.27938,0.14561,0.47894
			c0,0.19609-0.0416,0.35921-0.1248,0.48935c-0.08321,0.13015-0.19587,0.23253-0.33282,0.30888
			c-0.13867,0.07462-0.28947,0.12841-0.45415,0.15964c-0.16467,0.03123-0.32761,0.04685-0.49055,0.04685
			c-0.20973,0-0.39694-0.02082-0.55641-0.06073s-0.29121-0.08503-0.39522-0.13882c-0.10226-0.05206-0.1768-0.09718-0.22014-0.13362
			l0.31721-0.6195c0.0624,0.05727,0.1664,0.118,0.31028,0.18394c0.14388,0.06594,0.29988,0.09891,0.46629,0.09891
			c0.17507,0,0.31374-0.0295,0.41428-0.09023c0.10053-0.06074,0.15081-0.1423,0.15081-0.24294
			c0-0.07635-0.026-0.13709-0.07281-0.18394c-0.0468-0.04685-0.1144-0.08676-0.20107-0.118
			c-0.08494-0.03297-0.18374-0.059-0.29814-0.08329c-0.10401-0.02256-0.21148-0.05379-0.32068-0.09718
			c-0.10921-0.04338-0.21148-0.09891-0.30508-0.17006c-0.09534-0.07115-0.17161-0.15965-0.22881-0.26377
			c-0.05894-0.10585-0.0884-0.23253-0.0884-0.38003c0-0.18915,0.06067-0.34706,0.182-0.47547
			c0.12134-0.12668,0.27908-0.22385,0.47322-0.29153C90.68929,28.3581,90.89729,28.32513,91.11917,28.32513z"/>
		<path class="st1" d="M92.60989,28.41189h0.53735v-1.22685h0.91696v1.22685h0.7055v0.76873h-0.7055v1.08108
			c0,0.1423,0.02254,0.25335,0.06934,0.33318c0.0468,0.07982,0.11787,0.118,0.21841,0.118
			c0.07626,0,0.13693-0.01562,0.18547-0.04512c0.04853-0.0295,0.078-0.05206,0.08666-0.06421l0.32761,0.66288
			c-0.01387,0.01562-0.06067,0.03991-0.14041,0.07635c-0.07973,0.03644-0.17854,0.06941-0.30161,0.10065
			c-0.12307,0.0295-0.26001,0.04511-0.41254,0.04511c-0.27388,0-0.50095-0.07982-0.67949-0.23947
			c-0.17854-0.15965-0.27041-0.40606-0.27041-0.74097v-1.32923h-0.53735V28.41189z"/>
		<path class="st1" d="M96.1044,30.11248c0.00694,0.13535,0.04334,0.25856,0.10921,0.36441
			c0.06586,0.10759,0.1612,0.19088,0.28601,0.25162c0.1248,0.06074,0.27387,0.09197,0.44894,0.09197
			c0.15774,0,0.29641-0.02082,0.41602-0.059c0.11961-0.03991,0.22187-0.08676,0.30508-0.14403s0.14561-0.11106,0.18721-0.16485
			l0.38308,0.56744c-0.0676,0.08503-0.15947,0.16485-0.27215,0.236c-0.11266,0.07115-0.25481,0.12841-0.42815,0.17006
			c-0.17334,0.04338-0.39001,0.06421-0.65002,0.06421c-0.32761,0-0.61362-0.06421-0.8615-0.19262s-0.44028-0.31409-0.57895-0.55703
			c-0.13867-0.24294-0.20801-0.531-0.20801-0.86591c0-0.29153,0.06067-0.55356,0.18547-0.78956
			c0.12307-0.23426,0.30334-0.4182,0.54082-0.55529c0.23574-0.13535,0.52175-0.20303,0.85283-0.20303
			c0.31374,0,0.58416,0.059,0.81297,0.18047c0.22881,0.11974,0.40735,0.295,0.53215,0.52579
			c0.12654,0.23079,0.18894,0.51191,0.18894,0.84335c0,0.02082,0,0.059-0.00173,0.118s-0.00346,0.09891-0.00867,0.118H96.1044z
			 M97.49111,29.54157c-0.00346-0.07809-0.02599-0.16138-0.07107-0.25162c-0.04507-0.09023-0.1144-0.16659-0.20801-0.22906
			c-0.09534-0.06421-0.22187-0.09544-0.37788-0.09544c-0.15774,0-0.28601,0.0295-0.38654,0.09023
			c-0.10053,0.06074-0.1768,0.13535-0.22707,0.22385c-0.052,0.0885-0.07974,0.177-0.08667,0.26029h1.35725
			C97.49112,29.53983,97.49112,29.54157,97.49111,29.54157z"/>
		<path class="st1" d="M102.88543,28.32513c0.22187,0,0.41775,0.04685,0.58415,0.14229s0.29642,0.23947,0.39001,0.43556
			C103.95146,29.09907,104,29.34895,104,29.65436v1.74744h-0.91003v-1.5982c0-0.25162-0.0364-0.44944-0.11093-0.59
			c-0.07454-0.14056-0.21494-0.2117-0.42122-0.2117c-0.11613,0-0.22187,0.03123-0.32068,0.09197
			c-0.09707,0.06247-0.17333,0.1527-0.23054,0.27071c-0.05721,0.118-0.08494,0.2655-0.08494,0.43729v1.5982h-0.8511v-1.5982
			c0-0.25162-0.0416-0.44944-0.12827-0.59c-0.08494-0.14056-0.22014-0.21171-0.40388-0.21171
			c-0.11787,0-0.22534,0.0295-0.32241,0.09023c-0.09534,0.06074-0.1716,0.14924-0.22534,0.26723
			c-0.05374,0.118-0.08147,0.2655-0.08147,0.4425v1.5982h-0.91696v-2.9899h0.91696v0.43729
			c0.026-0.07635,0.08667-0.1527,0.18374-0.23253c0.09707-0.07982,0.21494-0.14923,0.35882-0.20476
			c0.14387-0.05727,0.29814-0.08503,0.46281-0.08503c0.17854,0,0.32761,0.0295,0.44722,0.09024
			c0.11787,0.06073,0.21494,0.13882,0.28947,0.23253c0.0728,0.09197,0.13,0.19088,0.16987,0.29153
			c0.03294-0.09544,0.10053-0.18915,0.19934-0.28285c0.09881-0.09544,0.22362-0.17353,0.37614-0.236
			C102.54395,28.35637,102.70689,28.32513,102.88543,28.32513z"/>
	</g>
</g>
</svg>
