<?xml version="1.0" encoding="utf-8"?>
<!-- Generator: Adobe Illustrator 26.1.0, SVG Export Plug-In . SVG Version: 6.00 Build 0)  -->
<svg version="1.1" id="Слой_1" xmlns="http://www.w3.org/2000/svg" xmlns:xlink="http://www.w3.org/1999/xlink" x="0px" y="0px"
	 viewBox="0 0 19.84252 19.84252" style="enable-background:new 0 0 19.84252 19.84252;" xml:space="preserve">
<style type="text/css">
	.st0{fill:#606060;}
</style>
<g>
	<path class="st0" d="M9.92126,1.17126c-4.8325,0-8.75,3.9175-8.75,8.75001s3.9175,8.75,8.75,8.75s8.75-3.9175,8.75-8.75
		S14.75376,1.17126,9.92126,1.17126z M9.92137,17.63311c-4.25254,0-7.71185-3.45974-7.71185-7.71185s3.4593-7.71142,7.71185-7.71142
		c4.25168,0,7.71141,3.4593,7.71141,7.71141S14.17305,17.63311,9.92137,17.63311z"/>
	<path class="st0" d="M9.92137,3.09179c-3.76592,0-6.8299,3.06355-6.8299,6.82947c0,3.76635,3.06398,6.8299,6.8299,6.8299
		s6.82947-3.06355,6.82947-6.8299C16.75084,6.15534,13.68729,3.09179,9.92137,3.09179z M10.54763,13.56967v1.21316H9.29307V13.6397
		c-0.60332-0.05458-1.20718-0.25181-1.59411-0.52823l-0.16935-0.1209l0.45723-1.27624l0.29311,0.19551
		c0.41384,0.27588,0.9446,0.43414,1.45609,0.43414c0.6305,0,1.05404-0.32927,1.05404-0.8195
		c0-0.3283-0.13215-0.68568-1.09048-1.07428c-1.04532-0.40991-2.01533-0.95973-2.01533-2.18802
		c0-0.99542,0.6543-1.76922,1.68697-2.0234V5.0597h1.24336v1.10098c0.49443,0.04785,0.92721,0.18345,1.31646,0.41158
		l0.20062,0.11762l-0.47601,1.25628l-0.27991-0.15993c-0.1799-0.10282-0.60127-0.34354-1.27113-0.34354
		c-0.67013,0-0.90881,0.35409-0.90881,0.68546c0,0.357,0.17543,0.58895,1.21526,1.01916
		c0.88469,0.36077,1.90185,0.94864,1.90185,2.29896C12.31292,12.47537,11.61292,13.30439,10.54763,13.56967z"/>
</g>
</svg>
