<?xml version="1.0" encoding="utf-8"?>
<!-- Generator: Adobe Illustrator 26.1.0, SVG Export Plug-In . SVG Version: 6.00 Build 0)  -->
<svg version="1.1" id="Слой_1" xmlns="http://www.w3.org/2000/svg" xmlns:xlink="http://www.w3.org/1999/xlink" x="0px" y="0px"
	 viewBox="0 0 100 100" style="enable-background:new 0 0 100 100;" xml:space="preserve">
<style type="text/css">
	.st0{fill:#828282;}
</style>
<path d="M38.9-542.90002"/>
<g>
	<g>
		<path class="st0" d="M59.23304,0.58316c0.76299,0.42388,0,2.62808-0.33911,3.39107
			c-1.52598,3.73017-3.30629,7.46034-4.74749,11.27529c-0.25433,0.76299,0.16955,1.52598,0.67821,2.5433
			c0.16956,0.33911,0.42388,0.76299,0.67821,1.1021c3.39107,5.4257,8.64722,5.76481,14.1577,5.25615
			c0.67822-0.08478,1.52598-0.76299,1.7803-1.4412c1.78031-3.89973,3.39107-7.79945,5.0866-11.69918
			c0.25433-0.59344,0.76299-1.52598,1.4412-1.61075c0.59344,0,0.84776,1.27165,0.93254,1.94986
			c0.42388,2.45852,0.67822,4.91705,0.93254,7.37557c1.1021,10.34275-6.27347,19.2443-16.78577,20.00729
			c-1.78031,0.08477-2.5433,0.84777-3.22151,2.37374c-5.84959,13.90337-11.86873,27.72197-17.71832,41.54055
			c-0.42388,1.1021-0.33911,2.5433,0,3.73018c1.61076,5.76482-1.01732,11.10574-6.5278,13.0556
			c-5.00182,1.7803-10.68186-0.76299-12.7165-5.76482c-2.11942-5.17137,0.16955-10.76663,5.34093-13.39471
			c1.01732-0.50865,2.03464-1.4412,2.45852-2.45852c6.01914-13.81859,11.86873-27.72197,17.88787-41.54056
			c0.76299-1.69553,0.59344-2.71285-0.59344-4.15406c-6.27347-7.6299-5.25615-18.65086,2.20419-25.00911
			c2.28897-1.94986,4.57794-4.15406,6.95169-6.01914C57.62229,0.92227,58.38528,0.24405,59.23304,0.58316z M30.49376,85.27502
			c-2.45852,1.01732-3.73017,3.89972-2.71285,6.35825c1.01732,2.62807,3.9845,3.81495,6.5278,2.79763
			c2.45853-1.01732,3.73018-3.89972,2.79763-6.35825C36.00424,85.52935,33.03706,84.17292,30.49376,85.27502z"/>
		<path class="st0" d="M61.52201,7.7044c3.56062,1.61076,6.44302,2.88241,10.08842,4.49316
			c-1.1021,2.11942-2.20419,4.32361-3.39107,6.61258c-0.59344,1.1021-4.91705,1.27165-6.27348,0.25433
			c-2.20419-1.61076-2.96718-2.45852-2.62807-4.15406C59.4026,14.14742,61.09813,9.31515,61.52201,7.7044z"/>
	</g>
	<g>
		<path class="st0" d="M26.59383,77.7299c0.33911-0.3391,0.67821-0.76299,0.84777-1.18687
			c1.18687-2.62807,2.28897-5.34093,3.47584-7.969c-2.28897-2.37375-4.06928-5.0866-5.34093-8.13856
			c-1.35643-3.22152-2.03464-6.61258-2.03464-10.08842c0-3.47585,0.67821-6.95169,2.03464-10.08842
			c1.35643-3.22151,3.30629-6.10392,5.68004-8.56244c2.45852-2.45852,5.34093-4.40839,8.56244-5.76481
			c0.59344-0.25433,1.10209-0.42388,1.69553-0.59344c-1.4412-4.23883-1.27165-8.81677,0.42389-12.88605
			c-0.93254-1.27165-1.94986-2.45852-2.96718-3.73017c-0.59344-0.76299-1.52598-1.1021-2.96718-0.59344
			c-2.11942,0.67821-4.23883,1.52598-6.1887,2.5433c-1.35643,0.67821-1.61076,1.52598-1.61076,2.45852
			c0.16955,2.03464,0.42388,4.15406,0.76299,6.10392c0.16955,0.76299-0.08478,1.69553-1.01732,2.37374
			c-1.27165,0.93254-2.45852,2.03464-3.56062,3.13674c-1.10209,1.1021-2.20419,2.28897-3.13674,3.56062
			c-0.67821,0.93254-1.61076,1.18687-2.37374,1.01732c-1.94986-0.33911-4.06928-0.67821-6.10392-0.76299
			c-1.01732-0.08477-1.86509,0.33911-2.45852,1.61076c-1.01732,2.03464-1.86509,4.06928-2.5433,6.18869
			c-0.50866,1.4412-0.08478,2.28897,0.59344,2.96718c1.61076,1.35643,3.22151,2.62807,4.91704,3.81495
			c0.33911,0.16956,0.59344,0.50866,0.76299,0.93254c0.08478,0.16956,0.16955,0.42389,0.16955,0.67822s0.08478,0.50866,0,0.76299
			c-0.25433,1.52598-0.25433,3.13674-0.33911,4.74749c0,1.61076,0.08478,3.13673,0.33911,4.74749c0,0.25433,0,0.50866,0,0.76299
			s-0.08478,0.42389-0.16955,0.67822c-0.16955,0.42389-0.42388,0.76299-0.76299,0.93254
			c-1.69553,1.18687-3.30629,2.45853-4.91704,3.81495c-0.76299,0.59344-1.1021,1.52599-0.59344,2.96718
			c0.67821,2.11942,1.52598,4.23883,2.5433,6.1887c0.67821,1.35643,1.52598,1.61076,2.45852,1.61076
			c2.03464-0.16955,4.15406-0.42388,6.10392-0.76299c0.76299-0.16956,1.69553,0.08477,2.37374,1.01731
			c0.93254,1.27165,2.03464,2.45853,3.13674,3.56062C25.23741,76.45825,25.91562,77.13647,26.59383,77.7299z"/>
		<path class="st0" d="M92.12637,64.08086c0.50866-1.4412,0.08478-2.28897-0.59343-2.96719
			c-1.61076-1.35642-3.22151-2.62807-4.91705-3.81495c-0.33911-0.16955-0.59344-0.50866-0.76299-0.93254
			c-0.08478-0.16955-0.16955-0.42388-0.16955-0.67822s-0.08478-0.50866,0-0.76299c0.25433-1.52598,0.25433-3.13674,0.3391-4.74749
			c0-1.61076-0.08478-3.13673-0.3391-4.74749c0-0.25433,0-0.50866,0-0.76299s0.08477-0.42389,0.16955-0.67822
			c0.16955-0.42388,0.42388-0.76299,0.76299-0.93254c1.69553-1.18687,3.30629-2.45852,4.91705-3.81495
			c0.76299-0.59344,1.1021-1.52598,0.59343-2.96718c-0.67822-2.11942-1.52598-4.23883-2.5433-6.18869
			c-0.67822-1.35643-1.52598-1.61076-2.45852-1.61076c-1.78031,0.08478-3.56062,0.33911-5.25615,0.59344
			c-1.61076,3.89972-4.57794,7.12124-8.39289,9.0711c0.3391,0.59344,0.59343,1.27165,0.93254,1.94986
			c1.35642,3.22151,2.03464,6.61258,2.03464,10.08842s-0.67822,6.95168-2.03464,10.08842
			c-1.35642,3.22151-3.30629,6.10391-5.68003,8.56244c-2.45853,2.45852-5.34093,4.40838-8.56244,5.76482
			c-3.22151,1.35642-6.61258,2.03464-10.08842,2.03464c-0.42388,0-0.93254,0-1.35643,0
			c-1.10209,2.5433-2.11942,5.00182-3.22151,7.54512c-0.25433,0.50866-0.33911,1.18687-0.33911,1.86509
			c0.08478,0,0.08478,0,0.16956,0c1.52598,0.25433,3.13673,0.25433,4.74749,0.3391c1.61076,0,3.13674-0.08478,4.74749-0.3391
			c0.25433,0,0.50866,0,0.76299,0c0.25433,0,0.42388,0.08477,0.67821,0.16955c0.42388,0.16955,0.76299,0.42388,0.93254,0.76299
			c1.18687,1.69553,2.45853,3.30629,3.81495,4.91705c0.59344,0.76299,1.52598,1.1021,2.96719,0.59344
			c2.11942-0.67822,4.23883-1.52599,6.1887-2.5433c1.35642-0.67822,1.61076-1.52598,1.61076-2.45852
			c-0.16956-2.03465-0.42388-4.15406-0.76299-6.10392c-0.16955-0.76299,0.08478-1.69553,1.01732-2.37375
			c1.27164-0.93254,2.45852-2.03464,3.56062-3.13673s2.20419-2.28896,3.13673-3.56062
			c0.67822-0.93254,1.61076-1.18687,2.37375-1.01732c1.94987,0.33911,4.06928,0.67822,6.10391,0.76299
			c1.01732,0.08478,1.86508-0.3391,2.45853-1.61076C90.6004,68.31969,91.44817,66.28505,92.12637,64.08086z"/>
	</g>
</g>
</svg>
