<?xml version="1.0" encoding="utf-8"?>
<!-- Generator: Adobe Illustrator 26.1.0, SVG Export Plug-In . SVG Version: 6.00 Build 0)  -->
<svg version="1.1" id="Слой_1" xmlns="http://www.w3.org/2000/svg" xmlns:xlink="http://www.w3.org/1999/xlink" x="0px" y="0px"
	 viewBox="0 0 19.84252 19.84252" style="enable-background:new 0 0 19.84252 19.84252;" xml:space="preserve">
<style type="text/css">
	.st0{fill:#606060;}
	.st1{fill:#979695;}
	.st2{fill:#E2E2E2;}
</style>
<path class="st0" d="M13.96181,4.15686h-0.46891c-0.28468,0-0.51547-0.23078-0.51547-0.51547V0.65511
	c0-0.28468,0.23078-0.51547,0.51547-0.51547h0.46891c0.28468,0,0.51547,0.23078,0.51547,0.51547V3.6414
	C14.47728,3.92608,14.24649,4.15686,13.96181,4.15686z"/>
<path class="st0" d="M3.79959,4.15686H3.33067c-0.28468,0-0.51547-0.23078-0.51547-0.51547V0.65511
	c0-0.28468,0.23078-0.51547,0.51547-0.51547h0.46891c0.28468,0,0.51547,0.23078,0.51547,0.51547V3.6414
	C4.31505,3.92608,4.08427,4.15686,3.79959,4.15686z"/>
<rect x="3.08499" y="11.42076" class="st1" width="2.1132" height="2.25097"/>
<rect x="3.08499" y="14.46046" class="st1" width="2.1132" height="2.25097"/>
<rect x="6.05481" y="14.46046" class="st1" width="2.1132" height="2.25097"/>
<rect x="6.05221" y="11.42076" class="st1" width="2.1132" height="2.25097"/>
<rect x="6.05221" y="8.39153" class="st1" width="2.1132" height="2.25097"/>
<rect x="9.01222" y="8.39153" class="st1" width="2.1132" height="2.25097"/>
<circle class="st0" cx="15.4013" cy="15.43413" r="4.40839"/>
<circle class="st2" cx="15.4013" cy="15.43413" r="3.47785"/>
<path class="st1" d="M9.87277,15.43413c0-0.33241,0.031-0.6574,0.08722-0.97367H9.01222v2.25096h1.01052
	C9.92568,16.30124,9.87277,15.87398,9.87277,15.43413z"/>
<path class="st1" d="M11.20883,11.83248v-0.41171h-2.1132v2.25096h1.06575C10.39084,12.98928,10.74949,12.36668,11.20883,11.83248z"
	/>
<path class="st1" d="M14.23904,10.02901V8.38236h-2.11319v2.25096h0.53507C13.14583,10.35592,13.67631,10.14945,14.23904,10.02901z"
	/>
<path class="st0" d="M10.5939,18.16303H1.59622V6.93075h14.13159v2.98523c0.55837,0.03254,1.09447,0.14754,1.59622,0.33369V4.67028
	c0-1.1884-0.96339-2.15178-2.15179-2.15178h-0.28735v1.05986c0,0.6277-0.50885,1.13657-1.13656,1.13657h-0.00001
	c-0.62771,0-1.13656-0.50886-1.13656-1.13657V2.5185H4.70774v1.05986c0,0.6277-0.50885,1.13657-1.13657,1.13657
	c-0.62771,0-1.13656-0.50886-1.13656-1.13657V2.5185H2.15179C0.96339,2.5185,0,3.48189,0,4.67028v13.02045
	c0,1.1884,0.96339,2.15178,2.15179,2.15178h9.91394C11.46827,19.38975,10.96652,18.81804,10.5939,18.16303z"/>
<path class="st0" d="M15.51887,15.88959h-0.23515c-0.14276,0-0.25849-0.11573-0.25849-0.25849v-2.7966
	c0-0.14276,0.11573-0.25849,0.25849-0.25849h0.23515c0.14276,0,0.25849,0.11573,0.25849,0.25849v2.7966
	C15.77737,15.77386,15.66163,15.88959,15.51887,15.88959z"/>
<path class="st0" d="M15.02523,15.63109v-0.23515c0-0.14276,0.11573-0.25849,0.25849-0.25849h2.34114
	c0.14276,0,0.2585,0.11573,0.2585,0.25849v0.23515c0,0.14276-0.11573,0.25849-0.2585,0.25849h-2.34114
	C15.14096,15.88959,15.02523,15.77386,15.02523,15.63109z"/>
</svg>
