<?xml version="1.0" encoding="utf-8"?>
<!-- Generator: Adobe Illustrator 26.1.0, SVG Export Plug-In . SVG Version: 6.00 Build 0)  -->
<svg version="1.1" id="Слой_1" xmlns="http://www.w3.org/2000/svg" xmlns:xlink="http://www.w3.org/1999/xlink" x="0px" y="0px"
	 viewBox="0 0 19.84252 19.84252" style="enable-background:new 0 0 19.84252 19.84252;" xml:space="preserve">
<style type="text/css">
	.st0{fill:#606060;}
</style>
<g>
	<path class="st0" d="M11.33538,3.66882c0.67214-0.21218,1.32187-0.4163,1.97096-0.62244
		c0.74369-0.23618,1.48242-0.48927,2.23149-0.7068c0.65414-0.18997,1.34288,0.12411,1.55526,0.78743
		c0.88294,2.75765,1.76208,5.51652,2.63498,8.27736c0.06983,0.22086,0.10869,0.45949,0.11423,0.691
		c0.01066,0.44537-0.35576,0.93422-0.78231,1.0724c-1.21635,0.39406-2.43272,0.78822-3.65209,1.1728
		c-3.41991,1.07861-6.84134,2.1524-10.26215,3.22813c-0.29588,0.09305-0.59348,0.18108-0.88712,0.28073
		c-0.5305,0.18003-1.31535-0.21286-1.47413-0.75846c-0.23631-0.812-0.5233-1.60913-0.78081-2.41512
		c-0.3791-1.18652-0.75134-2.37524-1.12598-3.56318c-0.01503-0.04767-0.02474-0.09701-0.041-0.16179
		c0.03688,0.0117,0.05974,0.01431,0.07748,0.02524c0.947,0.5837,1.99061,0.87961,3.08298,1.01764
		c1.18722,0.15001,2.37453,0.15314,3.55411-0.07379c0.93551-0.17998,1.82183-0.49575,2.63677-0.99808
		c0.62637-0.3861,1.09924-0.89396,1.29774-1.62159c0.11746-0.43056,0.11672-0.85721-0.06833-1.26962
		c-0.08525-0.18998-0.07743-0.359,0.00583-0.55229c0.19419-0.45082,0.18581-0.92334,0.03408-1.37999
		c-0.08874-0.26708-0.09311-0.49075,0.00838-0.76283c0.15362-0.41181,0.11333-0.85118-0.00471-1.27614
		C11.42612,3.93376,11.38137,3.81079,11.33538,3.66882z M14.28422,12.85246c-0.02563-0.1126-0.0373-0.18731-0.05984-0.25858
		c-0.07512-0.23748-0.14927-0.47546-0.23295-0.70998c-0.09795-0.27452-0.12999-0.28998-0.40232-0.20422
		c-2.77559,0.87402-5.55076,1.74937-8.32623,2.62379c-0.1787,0.0563-0.35977,0.10514-0.53809,0.16256
		c-0.32644,0.10511-0.65211,0.2127-0.97709,0.32225C3.65594,14.81921,3.60421,14.8898,3.63351,14.986
		c0.10661,0.35,0.21636,0.69915,0.3327,1.04602c0.03622,0.108,0.11504,0.14341,0.23599,0.1027
		c0.334-0.11244,0.67134-0.21502,1.00796-0.31956c1.48092-0.45992,2.96292-0.9164,4.44285-1.37949
		c1.26521-0.3959,2.52847-0.79809,3.79178-1.20002c0.22825-0.07262,0.45518-0.15112,0.67722-0.24055
		C14.18902,12.96811,14.23748,12.89508,14.28422,12.85246z M13.72485,8.3714c0.02752-0.0046,0.0802-0.00729,0.129-0.02245
		c0.8479-0.26352,1.6972-0.5228,2.54185-0.7964c0.29647-0.09603,0.46163-0.43021,0.3672-0.72969
		c-0.26704-0.84694-0.54234-1.69133-0.82164-2.53433c-0.08266-0.2495-0.41263-0.42402-0.66362-0.3457
		c-0.85228,0.26593-1.7028,0.53779-2.55042,0.81818c-0.28416,0.094-0.42994,0.38858-0.35654,0.68166
		c0.06503,0.25964,0.13665,0.51813,0.21814,0.77305c0.19172,0.59979,0.38703,1.19851,0.58945,1.79476
		C13.25324,8.23128,13.47365,8.37138,13.72485,8.3714z"/>
	<path class="st0" d="M5.58121,7.40452C4.46564,7.41824,3.36639,7.30325,2.30682,6.92581
		C1.73955,6.72373,1.20936,6.44796,0.74185,6.0719C0.27653,5.69759-0.03743,5.22748,0.01502,4.59101
		c0.02656-0.32234,0.14795-0.60784,0.34996-0.86236c0.44761-0.56397,1.04143-0.91553,1.6998-1.1686
		C3.3721,2.05752,4.72815,1.88063,6.12257,1.97187C7.06088,2.03327,7.98205,2.17964,8.8638,2.5214
		c0.56093,0.21741,1.08894,0.49251,1.52635,0.91482c0.1144,0.11045,0.22081,0.23243,0.31345,0.36162
		c0.42167,0.58806,0.41395,1.24869-0.00853,1.83591C10.40086,6.04267,9.99245,6.3113,9.55985,6.54102
		C8.5639,7.06991,7.4914,7.33155,6.37074,7.40208C6.10855,7.41858,5.84443,7.40452,5.58121,7.40452z"/>
	<path class="st0" d="M10.92782,8.30051c0.17957,0.5059,0.07708,0.95587-0.1973,1.37105
		c-0.30125,0.45584-0.73938,0.75866-1.21507,1.00638c-0.88738,0.46212-1.83645,0.72347-2.83025,0.80542
		c-0.97669,0.08054-1.95629,0.09106-2.92648-0.07302c-0.94773-0.16027-1.85774-0.44007-2.66995-0.97526
		C0.68681,10.17023,0.3405,9.84785,0.1398,9.39804c-0.15061-0.33755-0.19248-0.68496-0.06121-1.05241
		c0.02746,0.01465,0.05276,0.02312,0.07183,0.03904c0.94349,0.78781,2.03665,1.26437,3.23472,1.4788
		c1.59075,0.28471,3.18418,0.26324,4.76055-0.11909c1.00046-0.24265,1.91959-0.65863,2.68499-1.36921
		C10.85428,8.35326,10.88184,8.33562,10.92782,8.30051z"/>
	<path class="st0" d="M10.94045,6.29196c0.11343,0.28811,0.09257,0.57684,0.00829,0.86776
		c-0.11347,0.39169-0.37028,0.68245-0.66721,0.9421C9.73644,8.57847,9.09555,8.88194,8.40751,9.07894
		C6.37276,9.66152,4.34182,9.64955,2.32673,8.98363c-0.67179-0.222-1.28405-0.55766-1.78778-1.06853
		C0.24221,7.61414,0.03966,7.26297,0.0095,6.83719c-0.01353-0.19096,0.02706-0.38575,0.04573-0.6106
		c0.06548,0.04702,0.09365,0.06297,0.11671,0.08442c0.76813,0.71442,1.68541,1.13645,2.69685,1.37062
		c1.5481,0.35843,3.10638,0.44624,4.67438,0.14654C8.7629,7.59505,9.8829,7.13359,10.8513,6.3388
		c0.01812-0.01487,0.03688-0.02915,0.05654-0.04185C10.9145,6.29265,10.92487,6.29409,10.94045,6.29196z"/>
</g>
</svg>
