<?xml version="1.0" encoding="utf-8"?>
<!-- Generator: Adobe Illustrator 26.1.0, SVG Export Plug-In . SVG Version: 6.00 Build 0)  -->
<svg version="1.1" id="Слой_1" xmlns="http://www.w3.org/2000/svg" xmlns:xlink="http://www.w3.org/1999/xlink" x="0px" y="0px"
	 viewBox="0 0 19.84252 19.84252" style="enable-background:new 0 0 19.84252 19.84252;" xml:space="preserve">
<style type="text/css">
	.st0{fill:#606060;}
</style>
<image style="overflow:visible;" width="826" height="826" xlink:href="55F43C92.jpg"  transform="matrix(1 0 0 1 -2465.70801 -598.0733)">
</image>
<g>
	<polygon class="st0" points="14.91085,0.24005 14.69631,0 13.99494,0.65014 13.9911,0.65014 13.9911,6.70082 14.30982,6.70082 
		14.30982,0.79717 	"/>
	<polygon class="st0" points="5.06243,0.24004 5.27697,0 5.97833,0.65013 5.98218,0.65013 5.98218,6.70081 5.66345,6.70081 
		5.66345,0.79717 	"/>
	<path class="st0" d="M9.98664,1.27851c-2.21919,0-4.00446,0.45359-4.00446,0.45359v2.15006h8.00892V1.7321
		C13.9911,1.7321,12.20583,1.27851,9.98664,1.27851z M6.57312,2.71419c-0.20242,0-0.36652-0.17141-0.36652-0.38285
		S6.3707,1.9485,6.57312,1.9485S6.93964,2.1199,6.93964,2.33134S6.77554,2.71419,6.57312,2.71419z M7.58635,2.71419
		c-0.20242,0-0.36652-0.17141-0.36652-0.38285S7.38393,1.9485,7.58635,1.9485S7.95287,2.1199,7.95287,2.33134
		S7.78877,2.71419,7.58635,2.71419z M12.36302,2.71419c-0.20242,0-0.36652-0.17141-0.36652-0.38285s0.1641-0.38285,0.36652-0.38285
		s0.36652,0.17141,0.36652,0.38285S12.56544,2.71419,12.36302,2.71419z M13.37625,2.71419
		c-0.20242,0-0.36652-0.17141-0.36652-0.38285s0.16409-0.38285,0.36652-0.38285s0.36652,0.17141,0.36652,0.38285
		S13.57867,2.71419,13.37625,2.71419z"/>
	<path class="st0" d="M9.98664,5.58556c-2.8508,0-4.00446,0.90719-4.00446,0.90719v8.37274h8.00892V6.49275
		C13.9911,6.49275,12.83744,5.58556,9.98664,5.58556z M13.33731,13.7974c0,0.20685-0.16465,0.37452-0.36775,0.37452H6.95469
		c-0.20311,0-0.36776-0.16768-0.36776-0.37452v-0.00001c0-0.20685,0.16466-0.37452,0.36776-0.37452h6.01486
		C13.17266,13.42286,13.33731,13.59054,13.33731,13.7974L13.33731,13.7974z M13.33731,12.58782
		c0,0.20684-0.16465,0.37452-0.36775,0.37452H6.95469c-0.20311,0-0.36776-0.16768-0.36776-0.37452v-0.00001
		c0-0.20684,0.16466-0.37452,0.36776-0.37452h6.01486C13.17266,12.21328,13.33731,12.38096,13.33731,12.58782L13.33731,12.58782z
		 M13.33731,11.37823c0,0.20684-0.16465,0.37452-0.36775,0.37452H6.95469c-0.20311,0-0.36776-0.16768-0.36776-0.37452v-0.00001
		c0-0.20684,0.16466-0.37452,0.36776-0.37452h6.01486C13.17266,11.0037,13.33731,11.17138,13.33731,11.37823L13.33731,11.37823z
		 M13.33731,10.16865c0,0.20684-0.16465,0.37452-0.36775,0.37452H6.95469c-0.20311,0-0.36776-0.16768-0.36776-0.37452v-0.00001
		c0-0.20684,0.16466-0.37452,0.36776-0.37452h6.01486C13.17266,9.79412,13.33731,9.9618,13.33731,10.16865L13.33731,10.16865z
		 M13.33731,8.95907c0,0.20684-0.16465,0.37452-0.36775,0.37452H6.95469c-0.20311,0-0.36776-0.16768-0.36776-0.37452V8.95906
		c0-0.20684,0.16466-0.37452,0.36776-0.37452h6.01486C13.17266,8.58454,13.33731,8.75222,13.33731,8.95907L13.33731,8.95907z
		 M13.33731,7.74949c0,0.20684-0.16465,0.37452-0.36775,0.37452H6.95469c-0.20311,0-0.36776-0.16768-0.36776-0.37452V7.74948
		c0-0.20684,0.16466-0.37452,0.36776-0.37452h6.01486C13.17266,7.37496,13.33731,7.54264,13.33731,7.74949L13.33731,7.74949z"/>
	<path class="st0" d="M15.91842,4.59307h-0.6102c-0.08151,0-0.14742,0.06698-0.14819,0.1498h-0.8502V4.8802h0.84993v2.13064
		h-1.17069v0.13733h1.17069v0.00902c0,0.08351,0.06647,0.1512,0.14847,0.1512h0.6102c0.082,0,0.14847-0.06769,0.14847-0.1512
		V4.74427C16.06688,4.66076,16.00041,4.59307,15.91842,4.59307z"/>
	<path class="st0" d="M4.05731,4.59307h0.6102c0.08151,0,0.14742,0.06698,0.14819,0.1498h0.8502V4.8802H4.81597v2.13064h1.17069
		v0.13733H4.81597v0.00902c0,0.08351-0.06647,0.1512-0.14846,0.1512h-0.6102c-0.082,0-0.14846-0.06769-0.14846-0.1512V4.74427
		C3.90884,4.66076,3.97531,4.59307,4.05731,4.59307z"/>
	<path class="st0" d="M15.56019,8.95906h-1.10922v5.70251h4.22698v-2.52736C18.67795,10.38063,17.28209,8.95906,15.56019,8.95906z
		 M15.39198,11.30367c-0.41994,0-0.76038-0.34669-0.76038-0.77436c0-0.42768,0.34043-0.77437,0.76038-0.77437
		c0.41994,0,0.76037,0.34669,0.76037,0.77437C16.15235,10.95698,15.81192,11.30367,15.39198,11.30367z M16.87663,10.99192
		c-0.25088,0-0.45425-0.20712-0.45425-0.46261c0-0.2555,0.20337-0.46261,0.45425-0.46261c0.25087,0,0.45425,0.20711,0.45425,0.46261
		C17.33088,10.7848,17.1275,10.99192,16.87663,10.99192z"/>
	<path class="st0" d="M1.38608,12.13421v2.52736h4.22698V8.95906H4.50384C2.78194,8.95906,1.38608,10.38063,1.38608,12.13421z
		 M3.91168,10.52931c0-0.42768,0.34043-0.77437,0.76037-0.77437s0.76037,0.34669,0.76037,0.77437
		c0,0.42767-0.34043,0.77436-0.76037,0.77436S3.91168,10.95698,3.91168,10.52931z M2.73315,10.52931
		c0-0.2555,0.20338-0.46261,0.45425-0.46261c0.25088,0,0.45425,0.20711,0.45425,0.46261c0,0.25549-0.20337,0.46261-0.45425,0.46261
		C2.93653,10.99192,2.73315,10.7848,2.73315,10.52931z"/>
	<path class="st0" d="M2.03959,19.84252H4.7925c0.57579,0,1.04257-0.46677,1.04257-1.04257v-0.33902H0.99703v0.33902
		C0.99703,19.37575,1.4638,19.84252,2.03959,19.84252z"/>
	<path class="st0" d="M15.25296,19.84252h2.75291c0.57579,0,1.04257-0.46677,1.04257-1.04257v-0.33902h-4.83804v0.33902
		C14.21039,19.37575,14.67716,19.84252,15.25296,19.84252z"/>
	<path class="st0" d="M19.39713,15.33157H0.44539C0.19941,15.33157,0,15.53465,0,15.78516v2.22218
		c0,0.25051,0.19941,0.45359,0.44539,0.45359h18.95173c0.24599,0,0.44539-0.20308,0.44539-0.45359v-2.22218
		C19.84252,15.53465,19.64311,15.33157,19.39713,15.33157z M18.12632,16.4274c0,0.16701-0.13294,0.30239-0.29693,0.30239H2.14389
		c-0.16399,0-0.29693-0.13539-0.29693-0.30239v-0.29407c0-0.167,0.13294-0.30239,0.29693-0.30239h15.6855
		c0.16399,0,0.29693,0.13539,0.29693,0.30239V16.4274z"/>
</g>
</svg>
