<?xml version="1.0" encoding="utf-8"?>
<!-- Generator: Adobe Illustrator 26.1.0, SVG Export Plug-In . SVG Version: 6.00 Build 0)  -->
<svg version="1.1" id="Слой_1" xmlns="http://www.w3.org/2000/svg" xmlns:xlink="http://www.w3.org/1999/xlink" x="0px" y="0px"
	 viewBox="0 0 19.84252 19.84252" style="enable-background:new 0 0 19.84252 19.84252;" xml:space="preserve">
<style type="text/css">
	.st0{fill:#606060;}
</style>
<image style="overflow:visible;enable-background:new    ;" width="827" height="827" xlink:href="55F43C92.jpg"  transform="matrix(0.99879 0 0 0.99879 -2465.70801 -598.0733)">
</image>
<g>
	<path class="st0" d="M12.39075,7.85845h-4.8728c-0.16449,0-0.29791,0.1358-0.29791,0.30341
		c0,0.16754,0.13336,0.30341,0.29791,0.30341h4.8728c0.16455,0,0.29791-0.13586,0.29791-0.30341
		C12.68866,7.99425,12.5553,7.85845,12.39075,7.85845z"/>
	<path class="st0" d="M12.39075,9.81823h-4.8728c-0.16449,0-0.29791,0.13586-0.29791,0.30341
		c0,0.1676,0.13336,0.30347,0.29791,0.30347h4.8728c0.16455,0,0.29791-0.13586,0.29791-0.30347
		C12.68866,9.95409,12.5553,9.81823,12.39075,9.81823z"/>
	<path class="st0" d="M12.39075,8.83831h-4.8728c-0.16449,0-0.29791,0.13586-0.29791,0.30341v0.00006
		c0,0.16754,0.13336,0.30341,0.29791,0.30341h4.8728c0.16455,0,0.29791-0.13586,0.29791-0.30341
		C12.68866,8.97417,12.5553,8.83831,12.39075,8.83831z"/>
	<path class="st0" d="M12.72021,4.08263c0.164,0,0.29694-0.13885,0.29694-0.31018c0-0.17126-0.13293-0.31012-0.29694-0.31012
		s-0.29694,0.13885-0.29694,0.31012C12.42328,3.94378,12.55627,4.08263,12.72021,4.08263z"/>
	<path class="st0" d="M11.89941,4.08263c0.16394,0,0.29688-0.13885,0.29688-0.31018c0-0.17126-0.13293-0.31012-0.29688-0.31012
		c-0.164,0-0.29694,0.13885-0.29694,0.31012C11.60248,3.94378,11.73541,4.08263,11.89941,4.08263z"/>
	<polygon class="st0" points="13.21832,7.56347 14.1651,7.56347 14.1651,5.83733 13.47656,5.83733 13.47656,7.31231 
		13.21832,7.31231 	"/>
	<path class="st0" d="M12.39075,10.79815h-4.8728c-0.16449,0-0.29791,0.13586-0.29791,0.30341
		c0,0.1676,0.13336,0.30341,0.29791,0.30341h4.8728c0.16455,0,0.29791-0.1358,0.29791-0.30341
		C12.68866,10.93401,12.5553,10.79815,12.39075,10.79815z"/>
	<path class="st0" d="M13.73724,10.41387c0,0.34644,0.27576,0.62732,0.61597,0.62732s0.61603-0.28088,0.61603-0.62732
		c0-0.3465-0.27582-0.62738-0.61603-0.62738S13.73724,10.06737,13.73724,10.41387z"/>
	<path class="st0" d="M15.55597,10.78863c0.20325,0,0.36798-0.16779,0.36798-0.37476c0-0.20703-0.16473-0.37482-0.36798-0.37482
		s-0.36798,0.16779-0.36798,0.37482C15.18799,10.62084,15.35272,10.78863,15.55597,10.78863z"/>
	<path class="st0" d="M12.39075,12.75799h-4.8728c-0.16449,0-0.29791,0.13586-0.29791,0.30341
		c0,0.1676,0.13336,0.30341,0.29791,0.30341h4.8728c0.16455,0,0.29791-0.1358,0.29791-0.30341
		C12.68866,12.89385,12.5553,12.75799,12.39075,12.75799z"/>
	<path class="st0" d="M12.39075,11.77807h-4.8728c-0.16449,0-0.29791,0.13586-0.29791,0.30341
		c0,0.1676,0.13336,0.30341,0.29791,0.30341h4.8728c0.16455,0,0.29791-0.1358,0.29791-0.30341
		C12.68866,11.91393,12.5553,11.77807,12.39075,11.77807z"/>
	<path class="st0" d="M16.56836,15.19201v-0.23822c0-0.13525-0.10767-0.24493-0.24054-0.24493H3.62061
		c-0.13281,0-0.24054,0.10968-0.24054,0.24493v0.23822c0,0.13531,0.10773,0.245,0.24054,0.245h12.70721
		C16.46069,15.437,16.56836,15.32732,16.56836,15.19201z"/>
	<path class="st0" d="M5.66876,9.78649c-0.34021,0-0.61603,0.28088-0.61603,0.62738c0,0.34644,0.27582,0.62732,0.61603,0.62732
		s0.61597-0.28088,0.61597-0.62732C6.28473,10.06737,6.00897,9.78649,5.66876,9.78649z"/>
	<path class="st0" d="M4.466,10.03905c-0.20325,0-0.36804,0.16779-0.36804,0.37482c0,0.20697,0.16479,0.37476,0.36804,0.37476
		s0.36798-0.16779,0.36798-0.37476C4.83398,10.20684,4.66925,10.03905,4.466,10.03905z"/>
	<path class="st0" d="M16.84003,0.00249H3c-1.65686,0-3,1.3432-3,3v13.84003c0,1.65686,1.34314,3,3,3h13.84003
		c1.6568,0,3-1.34314,3-3V3.00249C19.84003,1.34569,18.49683,0.00249,16.84003,0.00249z M17.01526,11.71404v2.04742h-3.42438
		V9.14171h0.89862C15.88446,9.14171,17.01526,10.29339,17.01526,11.71404z M5.05048,5.72722
		c0-0.06763,0.05383-0.1225,0.12024-0.1225h0.49432c0.06604,0,0.11945,0.05426,0.12006,0.1214h0.68683V2.52959L5.98499,2.07824
		l0.17383-0.19446l0.56818,0.52667H6.7301v0.87653c0,0,1.44629-0.36743,3.24414-0.36743c1.79779,0,3.24408,0.36743,3.24408,0.36743
		V2.41045h0.00311l0.56824-0.52667l0.17377,0.19446l-0.48688,0.45135v3.19653h0.68878
		c0.00061-0.06714,0.05402-0.1214,0.12006-0.1214h0.49432c0.06641,0,0.12024,0.05487,0.1203,0.1225V7.682
		c0,0.06769-0.05389,0.1225-0.1203,0.1225H14.2854c-0.06647,0-0.1203-0.05481-0.1203-0.1225V7.67467h-0.94678v6.25201H6.7301
		V7.67467H5.78534V7.682c0,0.06769-0.05383,0.1225-0.1203,0.1225H5.17072c-0.06641,0-0.12024-0.05481-0.12024-0.1225V5.72722z
		 M3.00671,11.71404c0-1.42065,1.1308-2.57233,2.52576-2.57233h0.89862v4.61975H3.00671V11.71404z M17.95874,16.47198
		c0,0.20294-0.16156,0.36749-0.36084,0.36749h-0.28247v0.2746c0,0.46649-0.37817,0.84467-0.8446,0.84467H14.2406
		c-0.46649,0-0.8446-0.37817-0.8446-0.84467v-0.2746H6.61096v0.2746c0,0.46649-0.37817,0.84467-0.84467,0.84467H3.53613
		c-0.46649,0-0.8446-0.37817-0.8446-0.84467v-0.2746h-0.4469c-0.19928,0-0.36084-0.16455-0.36084-0.36749v-1.80023
		c0-0.20294,0.16156-0.36749,0.36084-0.36749H17.5979c0.19928,0,0.36084,0.16455,0.36084,0.36749V16.47198z"/>
	<polygon class="st0" points="6.7301,7.31231 6.47192,7.31231 6.47192,5.83733 5.78534,5.83733 5.78534,7.56347 6.7301,7.56347 	"/>
	<path class="st0" d="M7.20886,4.08263c0.16394,0,0.29694-0.13885,0.29694-0.31018c0-0.17126-0.133-0.31012-0.29694-0.31012
		c-0.164,0-0.29694,0.13885-0.29694,0.31012C6.91193,3.94378,7.04486,4.08263,7.20886,4.08263z"/>
	<path class="st0" d="M13.21832,7.14373V5.0288H6.7301v2.11493c0,0,0.93463-0.73492,3.24414-0.73492
		S13.21832,7.14373,13.21832,7.14373z"/>
	<path class="st0" d="M8.02966,4.08263c0.164,0,0.29694-0.13885,0.29694-0.31018c0-0.17126-0.13293-0.31012-0.29694-0.31012
		c-0.16394,0-0.29688,0.13885-0.29688,0.31012C7.73279,3.94378,7.86572,4.08263,8.02966,4.08263z"/>
</g>
</svg>
