<?xml version="1.0" encoding="utf-8"?>
<!-- Generator: Adobe Illustrator 26.1.0, SVG Export Plug-In . SVG Version: 6.00 Build 0)  -->
<svg version="1.1" id="Слой_1" xmlns="http://www.w3.org/2000/svg" xmlns:xlink="http://www.w3.org/1999/xlink" x="0px" y="0px"
	 viewBox="0 0 22.67717 22.67717" style="enable-background:new 0 0 22.67717 22.67717;" xml:space="preserve">
<style type="text/css">
	.st0{fill:#E2E2E2;}
	.st1{fill:#979695;}
	.st2{fill:#708090;}
</style>
<g>
	<path class="st0" d="M13.39696,17.40526c-1.6199,0.0001-3.23979,0.00069-4.85969-0.00049
		c-0.56735-0.00039-1.03309-0.46672-1.15495-1.14984c-0.02103-0.11783-0.03155-0.23744-0.03155-0.35891
		c0.00049-2.01929-0.00059-4.03869,0.00079-6.05798c0.00049-0.86071,0.50888-1.50835,1.18561-1.50845
		c1.6199-0.00049,3.23979,0.0001,4.85969,0c0-0.76037,0-1.24654,0-1.24654c-0.0001-0.60175-0.4166-1.02994-1.01068-1.03033
		c-2.5663-0.00167-5.1327-0.00049-7.6991-0.00206c-0.0744-0.0001-0.12511,0.02811-0.17572,0.07941L1.11855,9.561
		c-0.0625,0.06309-0.08756,0.12737-0.08747,0.21611c0.00197,1.92249,0.00147,3.84498,0.00157,5.76747
		c0,1.91424-0.00157,2.87135,0.00128,4.78559c0.00059,0.43124,0.18849,0.75604,0.57482,0.94975
		c0.1424,0.07135,0.2967,0.09267,0.45483,0.09258c2.08219-0.00049,4.16428-0.0003,6.24647-0.0003
		c1.35848,0,2.71696,0.00069,4.07554-0.00039c0.48392-0.00039,0.88479-0.32608,0.98591-0.79702
		c0.01661-0.07744,0.02594-0.15606,0.02585-0.23586c-0.0002-0.22761-0.0003-0.59713-0.00039-1.00203
		C13.39696,18.86221,13.39696,18.18558,13.39696,17.40526z"/>
	<path class="st1" d="M13.26389,17.37754c-0.06722-0.0002-0.13444-0.0001-0.20176-0.0001
		c-0.14909,0.0002-0.14928,0.0002-0.14938,0.14801c-0.0001,0.29257,0.00069,2.5152-0.00039,2.82968
		c-0.00098,0.29778-0.22338,0.52441-0.51645,0.52441c-3.45689,0.00039-6.91377,0.00039-10.37056,0
		c-0.26014,0-0.46131-0.19999-0.47517-0.46858c-0.00147-0.02732-0.00098-0.05474-0.00098-0.08206
		c-0.0001-3.76833-0.0001-6.57954,0.00039-10.34786c0-0.05631-0.00904-0.11351,0.02811-0.16599
		C1.6343,9.73495,1.69789,9.69102,1.80452,9.692c0.61875,0.0055,1.2375,0.00432,1.85615,0.00197
		C4.13181,9.6922,4.52266,9.37742,4.6228,8.92446c0.01828-0.08285,0.02595-0.16697,0.02585-0.25228
		c-0.00069-0.62357-0.00049-1.24703-0.00029-1.8705c0.0001-0.15459,0.10181-0.25729,0.25601-0.25729
		c2.49908-0.0002,4.99826-0.00039,7.49734,0.0002c0.30839,0.0001,0.51084,0.20707,0.51084,0.5188c0,0,0.0001-0.60381,0.0001,1.03427
		c0,0.03558,0.00079,0.07105,0.00108,0.10663c0.00039,0.04698,0.02388,0.07056,0.06997,0.07066
		c0.11567,0.0001,0.23134,0.0002,0.34692-0.00039c0.04245-0.00029,0.06388-0.02408,0.06486-0.06693
		c0.00069-0.03007,0.00128-0.06015,0.00128-0.09022c0-0.60077,0-0.89628,0-1.03427c-0.0001-0.60175-0.4166-1.02994-1.01068-1.03033
		C9.81988,6.05104,7.25348,6.05222,4.68708,6.05065c-0.0744,0-0.12511,0.02821-0.17572,0.07941L1.11845,9.5611
		C1.05604,9.62409,1.03098,9.68836,1.03108,9.77711c0.00197,1.92249,0.00147,3.84498,0.00147,5.76747
		c0.0001,1.91424-0.00157,2.87145,0.00128,4.78569c0.00069,0.43124,0.18859,0.75604,0.57492,0.94975
		c0.1424,0.07135,0.2966,0.09268,0.45483,0.09258c2.08219-0.00049,4.16428-0.00029,6.24647-0.00029
		c1.35848,0,2.71696,0.00069,4.07554-0.00039c0.48382-0.00039,0.88479-0.32608,0.98591-0.79703
		c0.01661-0.07754,0.02594-0.15606,0.02575-0.23596c-0.00059-0.60706-0.0002-2.22253-0.00039-2.82969
		C13.39686,17.38,13.3943,17.37803,13.26389,17.37754z"/>
	<path class="st1" d="M10.73906,11.51435h-0.72951v2.96904h0.639c0.34289,0,0.63398-0.12658,0.8729-0.37955
		c0.23891-0.25296,0.35851-0.62946,0.35851-1.1294c0-0.40814-0.10447-0.75349-0.31331-1.03613
		C11.35791,11.65567,11.08195,11.51435,10.73906,11.51435z"/>
	<path class="st1" d="M15.01312,11.46226c-0.65678,0-0.98513,0.51929-0.98513,1.55798c0,0.50406,0.08363,0.88616,0.251,1.1463
		c0.16727,0.26024,0.40677,0.39026,0.7185,0.39026c0.27645,0,0.51025-0.11223,0.7014-0.3367
		c0.19115-0.22446,0.28677-0.63153,0.28677-1.22129c0-0.47949-0.07901-0.8555-0.23695-1.12792
		C15.59089,11.59847,15.34569,11.46226,15.01312,11.46226z"/>
	<path class="st1" d="M20.52822,8.86942c-3.77845-0.00108-7.557-0.00098-11.33544-0.0001
		c-0.67673,0.00029-1.18522,0.57079-1.18571,1.3291c-0.00138,1.77911-0.00029,3.55821-0.00079,5.33732
		c0,0.10702,0.01052,0.21238,0.03155,0.31616c0.12186,0.60185,0.5876,1.01264,1.15495,1.01304
		c1.8877,0.00128,3.7754,0.00049,5.66301,0.00049s3.7752,0.00069,5.66291-0.00039c0.68607-0.00039,1.19436-0.56588,1.19485-1.32939
		c0.00138-1.77901,0.00138-3.55821,0-5.33722C21.71304,9.43874,21.20613,8.86962,20.52822,8.86942z M12.16997,14.50177
		c-0.36166,0.39792-0.87909,0.59693-1.55248,0.59693H9.22078v-4.17814h1.5681c0.57993,0,1.04547,0.20147,1.39671,0.6045
		c0.35114,0.40294,0.52676,0.90041,0.52676,1.49214C12.71236,13.60902,12.53163,14.10384,12.16997,14.50177z M16.31784,14.56751
		c-0.33365,0.39684-0.7758,0.59536-1.32654,0.59536c-0.56529,0-1.00537-0.20805-1.32025-0.62445
		c-0.31488-0.4162-0.47232-0.93049-0.47232-1.54265c0-0.60814,0.16737-1.11672,0.5019-1.52585
		c0.33463-0.40922,0.77629-0.61374,1.32497-0.61374c0.55281,0,0.98975,0.20451,1.31091,0.61374
		c0.32117,0.40913,0.48166,0.92076,0.48166,1.53499C16.81817,13.64981,16.65129,14.17057,16.31784,14.56751z M18.39247,14.14207
		c0.17031,0.25817,0.39586,0.38721,0.67654,0.38721c0.22446,0,0.41561-0.08678,0.57364-0.26024
		c0.15793-0.17346,0.24726-0.38053,0.2681-0.62131l0.71084,0.07646c-0.0457,0.41836-0.21041,0.76273-0.49404,1.03309
		c-0.28382,0.27036-0.65629,0.40559-1.1177,0.40559c-0.38859,0-0.70406-0.09582-0.94611-0.28776
		c-0.24216-0.19174-0.42868-0.45188-0.55959-0.78051c-0.1309-0.32854-0.19646-0.69069-0.19646-1.08665
		c0-0.63664,0.1538-1.15446,0.46141-1.55336c0.30751-0.39891,0.73049-0.59841,1.26875-0.59841
		c0.4219,0,0.77314,0.12756,1.05363,0.38259c0.28058,0.25503,0.45728,0.62032,0.53001,1.09579l-0.71083,0.07341
		c-0.13091-0.63054-0.41984-0.94572-0.86661-0.94572c-0.28677,0-0.50966,0.1311-0.66868,0.3933s-0.23852,0.64224-0.23852,1.14021
		C18.13675,13.5019,18.22205,13.884,18.39247,14.14207z"/>
	<path class="st1" d="M6.17666,11.47563H3.21754c-0.1539,0-0.27861-0.12471-0.27861-0.27861V11.1922
		c0-0.1539,0.12471-0.27861,0.27861-0.27861h2.95921c0.1539,0,0.27861,0.12471,0.27861,0.27861v0.00482
		C6.45527,11.35091,6.33056,11.47563,6.17666,11.47563z"/>
	<path class="st1" d="M6.17666,13.60568H3.21754c-0.1539,0-0.27861-0.12471-0.27861-0.27861v-0.00472
		c0-0.1539,0.12471-0.27861,0.27861-0.27861h2.95921c0.1539,0,0.27861,0.12471,0.27861,0.27861v0.00472
		C6.45527,13.48097,6.33056,13.60568,6.17666,13.60568z"/>
	<path class="st1" d="M6.17666,15.73573H3.21754c-0.1539,0-0.27861-0.12471-0.27861-0.27861V15.4524
		c0-0.1539,0.12471-0.27861,0.27861-0.27861h2.95921c0.1539,0,0.27861,0.12471,0.27861,0.27861v0.00482
		C6.45527,15.61102,6.33056,15.73573,6.17666,15.73573z"/>
</g>
<g>
	<path class="st2" d="M11.36135,0.43408c-0.07248,0.00341-0.14522,0.00457-0.21738,0.01072
		c-0.12544,0.0107-0.25084,0.02249-0.37566,0.03741c-0.22403,0.02678-0.44448,0.06859-0.66203,0.12134
		C9.7643,0.68648,9.43646,0.79849,9.12767,0.94925c-0.35023,0.171-0.65865,0.38469-0.91388,0.65196
		C7.98858,1.83704,7.82021,2.09983,7.70293,2.38653c-0.07826,0.1913-0.13157,0.38773-0.16458,0.58815
		C7.51083,3.14171,7.4978,3.30972,7.49621,3.47837C7.49611,3.48868,7.4962,3.49899,7.4962,3.51191c-0.0109,0-0.01981,0-0.02871,0
		c-0.25634,0-0.51268-0.00004-0.76903,0.00003c-0.06752,0.00002-0.1222,0.03049-0.14525,0.08135
		C6.53613,3.63097,6.54132,3.6662,6.57326,3.69703c0.19719,0.19034,0.39463,0.38049,0.59184,0.57081
		c0.20683,0.1996,0.4135,0.39931,0.62025,0.59898C7.92739,5.004,8.06911,5.14141,8.21162,5.27822
		c0.06218,0.0597,0.17853,0.05822,0.24023-0.00137c0.33819-0.32657,0.67652-0.65303,1.01479-0.97953
		c0.20478-0.19766,0.4093-0.39551,0.61453-0.59283c0.03469-0.03335,0.04745-0.06932,0.0272-0.11113
		c-0.02204-0.04551-0.06194-0.07311-0.11972-0.08051c-0.01126-0.00144-0.02291-0.0009-0.03438-0.0009
		C9.70175,3.5119,9.44924,3.51191,9.19672,3.51191c-0.00905,0-0.0181,0-0.02868,0c-0.00069-0.00719-0.00169-0.01279-0.0017-0.01839
		c-0.0002-0.19728,0.01158-0.39399,0.03624-0.5902c0.03115-0.24782,0.08369-0.49205,0.16596-0.73144
		c0.11783-0.34286,0.29149-0.66249,0.54928-0.94639c0.25779-0.2839,0.57546-0.50512,0.96-0.6548
		C11.03303,0.51028,11.19406,0.46457,11.36135,0.43408z"/>
</g>
</svg>
