<?xml version="1.0" encoding="utf-8"?>
<!-- Generator: Adobe Illustrator 26.1.0, SVG Export Plug-In . SVG Version: 6.00 Build 0)  -->
<svg version="1.1" id="Слой_1" xmlns="http://www.w3.org/2000/svg" xmlns:xlink="http://www.w3.org/1999/xlink" x="0px" y="0px"
	 viewBox="0 0 100 100" style="enable-background:new 0 0 100 100;" xml:space="preserve">
<style type="text/css">
	.st0{fill:#828282;}
</style>
<path d="M38.9-542.90002"/>
<path class="st0" d="M93.4762,79.61668l-6.4304-2.57219L60.10615,87.82037c-3.4663,1.38658-9.13845,1.38658-12.60474,0
	L20.56175,77.04448l-6.43041,2.57219c-3.46638,1.38651-3.46638,3.65538,0,5.04189L47.5014,98.00657
	c3.4663,1.38658,9.13845,1.38658,12.60474,0L93.4762,84.65856C96.94258,83.27206,96.94258,81.00318,93.4762,79.61668z"/>
<g>
	<path class="st0" d="M35.79527,25.73283H12.22101c-1.22252,0-2.21344-0.99092-2.21344-2.21344s0.99092-2.21344,2.21344-2.21344
		h23.57426c1.22252,0,2.21344,0.99092,2.21344,2.21344C38.00871,24.74191,37.01779,25.73283,35.79527,25.73283z"/>
	<path class="st0" d="M24.00829,37.51981c-1.22252,0-2.21344-0.99092-2.21344-2.21344V11.73242
		c0-1.22252,0.99092-2.21344,2.21344-2.21344s2.21344,0.99092,2.21344,2.21344v23.57396
		C26.22173,36.52889,25.23081,37.51981,24.00829,37.51981z"/>
	<path class="st0" d="M24.00829,46.72341c-12.79488,0-23.20402-10.40914-23.20402-23.20402S11.21341,0.31537,24.00829,0.31537
		s23.20402,10.40914,23.20402,23.20402S36.80318,46.72341,24.00829,46.72341z M24.00829,4.74225
		c-10.35386,0-18.77715,8.42328-18.77715,18.77715s8.42328,18.77715,18.77715,18.77715s18.77715-8.42328,18.77715-18.77715
		S34.36216,4.74225,24.00829,4.74225z"/>
</g>
<path class="st0" d="M93.47626,58.79071L60.10614,45.44269c-1.03217-0.41284-2.26074-0.69812-3.56616-0.86359
	C50.83984,55.69,39.2724,63.31537,25.94965,63.31537c-5.00592,0-9.76044-1.08478-14.05414-3.0174
	c-0.89062,1.2132-0.14557,2.58215,2.23578,3.53467L47.5014,77.18066c3.46631,1.38647,9.13843,1.38647,12.60474,0l33.37012-13.34802
	C96.94257,62.44611,96.94257,60.17725,93.47626,58.79071z"/>
</svg>
