<?xml version="1.0" encoding="utf-8"?>
<!-- Generator: Adobe Illustrator 26.1.0, SVG Export Plug-In . SVG Version: 6.00 Build 0)  -->
<svg version="1.1" id="Слой_1" xmlns="http://www.w3.org/2000/svg" xmlns:xlink="http://www.w3.org/1999/xlink" x="0px" y="0px"
	 viewBox="0 0 21.0462 15.5906" style="enable-background:new 0 0 21.0462 15.5906;" xml:space="preserve">
<style type="text/css">
	.st0{fill:#979695;}
</style>
<g>
	<path class="st0" d="M0.0015,9.6604c0,1.9478-0.0016,2.9217,0.0013,4.8695c0.0007,0.4388,0.1918,0.7693,0.5849,0.9664
		c0.1449,0.0726,0.3019,0.0943,0.4628,0.0943c2.1187-0.0005,4.2373-0.0003,6.356-0.0003c1.3823,0,2.7647,0.0007,4.147-0.0004
		c0.4923-0.0004,0.9002-0.3318,1.0032-0.811c0.0169-0.0788,0.0264-0.1587,0.0263-0.24c-0.0006-0.6177-0.0002-2.2615-0.0004-2.8793
		c0-0.1315-0.0026-0.1335-0.1353-0.134c-0.0684-0.0002-0.1369-0.0001-0.2053,0c-0.1517,0.0002-0.1519,0.0002-0.1519,0.1506
		c-0.0001,0.2977,0.0007,2.5593-0.0004,2.8793c-0.0011,0.303-0.2273,0.5336-0.5255,0.5336c-3.5175,0.0004-7.0349,0.0004-10.5524,0
		c-0.2647,0-0.4693-0.2035-0.4835-0.4769c-0.0014-0.0278-0.001-0.0556-0.001-0.0835c0-3.8344-0.0001-6.6949,0.0004-10.5294
		c0-0.0572-0.0092-0.1155,0.0285-0.1689c0.0576-0.0816,0.1223-0.1262,0.2308-0.1252c0.6295,0.0055,1.2591,0.0044,1.8887,0.002
		c0.4793-0.0018,0.8771-0.3221,0.979-0.783C3.6733,2.8399,3.6811,2.7543,3.681,2.6675C3.6803,2.0331,3.6805,1.3986,3.6807,0.7642
		c0.0001-0.1573,0.1036-0.2618,0.2604-0.2618C6.4841,0.5022,9.0271,0.502,11.57,0.5026c0.3139,0.0001,0.5198,0.2107,0.5199,0.5278
		c0,0,0.0001-0.6143,0.0001,1.0525c0,0.0362,0.0008,0.0723,0.0011,0.1085c0.0004,0.0478,0.0243,0.0719,0.0711,0.0719
		c0.1177,0.0001,0.2354,0.0003,0.3531-0.0004c0.0432-0.0003,0.065-0.0245,0.066-0.0681c0.0007-0.0306,0.0013-0.0612,0.0013-0.0918
		c0.0001-1.6668,0-1.0525,0-1.0525c-0.0001-0.6123-0.4239-1.048-1.0284-1.0484C8.9428,0.0004,6.3315,0.0016,3.7201,0
		C3.6444,0,3.5928,0.0287,3.5413,0.0809L0.0889,3.572C0.0254,3.6361-0.0001,3.7015,0,3.7918
		C0.002,5.748,0.0015,7.7042,0.0015,9.6604z"/>
	<g>
		<path class="st0" d="M9.8782,5.5595H9.1359v3.0211h0.6503c0.3489,0,0.645-0.1288,0.8882-0.3862
			c0.2432-0.2575,0.3648-0.6405,0.3648-1.1493c0-0.4153-0.1062-0.7667-0.3188-1.0543C10.5078,5.7033,10.2271,5.5595,9.8782,5.5595z"
			/>
		<path class="st0" d="M14.2271,5.5066c-0.6683,0-1.0024,0.5284-1.0024,1.5853c0,0.5128,0.0851,0.9017,0.2554,1.1664
			c0.1702,0.2648,0.414,0.3971,0.7312,0.3971c0.2813,0,0.5192-0.1142,0.7137-0.3426c0.1945-0.2284,0.2918-0.6426,0.2918-1.2427
			c0-0.4879-0.0804-0.8705-0.2411-1.1477C14.8151,5.6451,14.5655,5.5066,14.2271,5.5066z"/>
		<path class="st0" d="M19.839,2.8683c-3.8447-0.0011-7.6895-0.0011-11.5342-0.0001C7.6161,2.8684,7.0988,3.4489,7.0983,4.2205
			C7.0969,6.0308,7.098,7.8411,7.0975,9.6514c0,0.1089,0.0107,0.2161,0.0321,0.3217c0.124,0.6124,0.5979,1.0304,1.1752,1.0308
			c1.9208,0.0013,3.8416,0.0005,5.7623,0.0005c1.9208,0,3.8415,0.0008,5.7623-0.0004c0.698-0.0004,1.2153-0.5758,1.2158-1.3527
			c0.0014-1.8102,0.0014-3.6206,0-5.4309C21.0446,3.4476,20.5288,2.8684,19.839,2.8683z M11.3342,8.5993
			c-0.368,0.4049-0.8945,0.6074-1.5797,0.6074H8.3333V4.9553h1.5956c0.59,0,1.0637,0.205,1.4211,0.6151
			c0.3573,0.4101,0.536,0.9162,0.536,1.5183C11.8861,7.6909,11.7021,8.1944,11.3342,8.5993z M15.5547,8.6663
			C15.2152,9.0701,14.7653,9.272,14.205,9.272c-0.5752,0-1.023-0.2117-1.3434-0.6354c-0.3204-0.4235-0.4806-0.9468-0.4806-1.5697
			c0-0.6188,0.1702-1.1363,0.5107-1.5526c0.3405-0.4164,0.7899-0.6245,1.3482-0.6245c0.5625,0,1.0071,0.2081,1.3339,0.6245
			c0.3267,0.4163,0.4901,0.9369,0.4901,1.5619C16.0638,7.7324,15.8941,8.2624,15.5547,8.6663z M17.6658,8.2333
			c0.1734,0.2627,0.4028,0.394,0.6883,0.394c0.2284,0,0.4229-0.0883,0.5837-0.2648c0.1607-0.1765,0.2516-0.3872,0.2728-0.6322
			l0.7233,0.0778c-0.0465,0.4257-0.2141,0.7761-0.5027,1.0512c-0.2887,0.2751-0.6678,0.4127-1.1372,0.4127
			c-0.3954,0-0.7164-0.0975-0.9627-0.2928c-0.2464-0.1952-0.4362-0.4599-0.5694-0.7942c-0.1332-0.3343-0.1999-0.7028-0.1999-1.1057
			c0-0.6478,0.1565-1.1747,0.4695-1.5806c0.313-0.406,0.7433-0.6089,1.291-0.6089c0.4293,0,0.7867,0.1298,1.0721,0.3893
			c0.2855,0.2595,0.4653,0.6312,0.5393,1.115l-0.7233,0.0747c-0.1332-0.6416-0.4272-0.9624-0.8818-0.9624
			c-0.2918,0-0.5186,0.1334-0.6804,0.4002c-0.1618,0.2668-0.2427,0.6535-0.2427,1.1602
			C17.4056,7.5819,17.4923,7.9707,17.6658,8.2333z"/>
	</g>
</g>
</svg>
