<?xml version="1.0" encoding="utf-8"?>
<!-- Generator: Adobe Illustrator 26.1.0, SVG Export Plug-In . SVG Version: 6.00 Build 0)  -->
<svg version="1.1" id="Слой_1" xmlns="http://www.w3.org/2000/svg" xmlns:xlink="http://www.w3.org/1999/xlink" x="0px" y="0px"
	 viewBox="0 0 21.0462 15.5906" style="enable-background:new 0 0 21.0462 15.5906;" xml:space="preserve">
<style type="text/css">
	.st0{fill:#606060;}
</style>
<g>
	<path class="st0" d="M12.5827,13.51919c0-0.48303,0-1.17151,0-1.96552c-0.19116,0-0.38239-0.00006-0.57355-0.00006
		c0.00006,0.65887-0.00049,1.90747,0,2.41943c0.00018,0.07477-0.00836,0.14825-0.02356,0.22083
		c-0.09247,0.4408-0.45929,0.74561-0.90186,0.74597c-1.24274,0.00098-2.48541,0.00037-3.72809,0.00037
		c-1.90466,0-3.80927-0.00018-5.71393,0.00024c-0.14471,0.00012-0.28577-0.01984-0.41608-0.08661
		c-0.35339-0.18134-0.52527-0.48529-0.52588-0.88885c-0.00262-1.7915-0.0011-2.68732-0.00116-4.47882
		c0-1.79926,0.00043-3.59845-0.00134-5.39764c-0.00012-0.08307,0.02283-0.14319,0.0799-0.20215L3.8808,0.67532
		C3.92712,0.6274,3.97351,0.60104,4.04156,0.60104c2.3476,0.00146,4.69519,0.00037,7.04266,0.00201
		c0.5434,0.00037,0.92438,0.40106,0.9245,0.96423c0,0.11298,0.00024,0.3269,0.00037,0.75159c0.19116,0,0.38232,0,0.57349,0
		c0-0.77368,0-1.26837,0-1.26837c-0.00006-0.6123-0.42389-1.04803-1.02838-1.0484C8.94287,0.00039,6.33148,0.00161,3.72009-0.00004
		C3.64441-0.0001,3.59277,0.02859,3.54132,0.08077L0.08899,3.57186C0.02539,3.63607-0.00006,3.7015,0,3.79177
		c0.00201,1.95624,0.00153,3.91241,0.00159,5.86859c0,1.94781-0.00159,2.92169,0.00134,4.86951
		c0.00055,0.43884,0.19177,0.76929,0.5849,0.96643c0.1449,0.07257,0.30188,0.0943,0.46277,0.09418
		c2.11871-0.00049,4.2373-0.00031,6.35602-0.00031c1.38226,0,2.76459,0.00067,4.14697-0.00037
		c0.49243-0.00043,0.90033-0.33185,1.00323-0.81104c0.01691-0.0788,0.02637-0.15881,0.02631-0.23999
		C12.58289,14.30721,12.58282,13.93118,12.5827,13.51919z"/>
	<path class="st0" d="M9.8782,5.55949H9.1359v3.0211h0.6502c0.3489,0,0.6451-0.1288,0.8882-0.3862
		c0.2431-0.2574,0.3648-0.6405,0.3648-1.1492c0-0.4153-0.1063-0.7667-0.3188-1.0543C10.5079,5.70329,10.2271,5.55949,9.8782,5.55949
		z"/>
	<path class="st0" d="M14.2272,5.50648c-0.6683,0-1.0024,0.5284-1.0024,1.5853c0,0.5129,0.0851,0.9017,0.2554,1.1664
		c0.1702,0.2648,0.4139,0.3971,0.7311,0.3971c0.2813,0,0.5192-0.1142,0.7137-0.3426s0.2918-0.6426,0.2918-1.2427
		c0-0.4879-0.0804-0.8705-0.2411-1.1477C14.8151,5.64509,14.5656,5.50648,14.2272,5.50648z"/>
	<path class="st0" d="M19.839,2.86819c-3.8447-0.0011-7.6895-0.001-11.5342-0.0001c-0.6886,0.0003-1.206,0.5808-1.2065,1.3524
		c-0.0014,1.8103-0.0003,3.6206-0.0008,5.4309c0,0.1089,0.0107,0.2161,0.0321,0.3217c0.124,0.6124,0.5979,1.0304,1.1752,1.0308
		c1.9208,0.0013,3.8416,0.0005,5.7623,0.0005s3.8414,0.0007,5.7622-0.0004c0.6981-0.0004,1.2153-0.5758,1.2158-1.3527
		c0.0014-1.8102,0.0014-3.6206,0-5.4308C21.0446,3.44749,20.5288,2.86839,19.839,2.86819z M11.3342,8.59929
		c-0.368,0.4049-0.8945,0.6074-1.5797,0.6074H8.3333v-4.2514h1.5956c0.5901,0,1.0638,0.205,1.4212,0.6151
		c0.3573,0.41,0.536,0.9162,0.536,1.5183C11.8861,7.69089,11.7022,8.19439,11.3342,8.59929z M15.5548,8.66619
		c-0.3395,0.4038-0.7894,0.6058-1.3498,0.6058c-0.5752,0-1.023-0.2117-1.3434-0.6354c-0.3204-0.4235-0.4806-0.9468-0.4806-1.5697
		c0-0.6188,0.1703-1.1363,0.5107-1.5526c0.3405-0.4164,0.7899-0.6245,1.3482-0.6245c0.5625,0,1.0071,0.2081,1.3339,0.6245
		c0.3268,0.4163,0.4901,0.9369,0.4901,1.5619C16.0639,7.73239,15.8941,8.26229,15.5548,8.66619z M17.6658,8.23329
		c0.1733,0.2627,0.4028,0.394,0.6884,0.394c0.2284,0,0.4229-0.0883,0.5837-0.2648c0.1607-0.1765,0.2516-0.3872,0.2728-0.6322
		l0.7233,0.0778c-0.0465,0.4257-0.2141,0.7761-0.5027,1.0512c-0.2888,0.2751-0.6678,0.4127-1.1373,0.4127
		c-0.3954,0-0.7164-0.0975-0.9627-0.2928c-0.2464-0.1951-0.4362-0.4598-0.5694-0.7942c-0.1332-0.3343-0.1999-0.7028-0.1999-1.1057
		c0-0.6478,0.1565-1.1747,0.4695-1.5806c0.3129-0.4059,0.7433-0.6089,1.291-0.6089c0.4293,0,0.7867,0.1298,1.0721,0.3893
		c0.2855,0.2595,0.4653,0.6312,0.5393,1.115l-0.7233,0.0747c-0.1332-0.6416-0.4272-0.9623-0.8818-0.9623
		c-0.2918,0-0.5186,0.1334-0.6804,0.4002s-0.2427,0.6535-0.2427,1.1602C17.4056,7.58189,17.4924,7.97069,17.6658,8.23329z"/>
	<path class="st0" d="M7.63782,11.55319c-0.57733-0.00043-1.05121-0.47491-1.17523-1.16998
		c-0.02136-0.11993-0.0321-0.24164-0.0321-0.36523c0.00055-2.05469-0.00061-4.1095,0.00079-6.16418
		C6.43182,2.97799,6.9491,2.31899,7.6377,2.31887c1.30957-0.00037,2.61908-0.00006,3.92859,0
		c-0.00012-0.28845-0.00049-0.77008-0.00049-0.77008c0-0.29175-0.18518-0.48541-0.46729-0.48553
		C8.8125,1.06271,6.52637,1.06289,4.2403,1.06307c-0.14099,0-0.23407,0.09613-0.23413,0.24078
		C4.00598,1.88735,4.0058,2.47085,4.00641,3.05447c0.00006,0.07983-0.0069,0.15857-0.02362,0.23608
		C3.89117,3.71444,3.53363,4.00906,3.10266,4.0107C2.53674,4.0129,1.97076,4.014,1.40472,4.00887
		c-0.09753-0.00092-0.1557,0.04016-0.20746,0.11517c-0.034,0.04907-0.0257,0.1026-0.0257,0.15533
		c-0.00049,3.52667-0.00049,6.15759-0.00037,9.68433c0,0.02557-0.00049,0.05121,0.00092,0.07678
		c0.01263,0.25134,0.19666,0.43854,0.43463,0.43854c3.16211,0.00037,6.32428,0.00037,9.48645,0
		c0.26807,0,0.4715-0.2121,0.47241-0.49078c0.00085-0.2569,0.00067-1.85114,0.00073-2.43469
		C10.25684,11.55373,8.94727,11.55416,7.63782,11.55319z M5.51941,9.5715C5.51929,9.72799,5.3924,9.85488,5.23578,9.85488H2.22479
		c-0.15662,0-0.28351-0.12689-0.28351-0.28351V9.56661c0-0.15662,0.12689-0.28351,0.28351-0.28351H5.2359
		c0.15662,0,0.28351,0.12689,0.28351,0.28351V9.5715z M5.51941,7.40402C5.51929,7.56057,5.3924,7.68746,5.23578,7.68746H2.22479
		c-0.15662,0-0.28351-0.12689-0.28351-0.28345V7.39919c0-0.15662,0.12689-0.28351,0.28351-0.28351H5.2359
		c0.15662,0,0.28351,0.12689,0.28351,0.28351V7.40402z M5.51941,5.2366C5.51929,5.39321,5.3924,5.5201,5.23578,5.5201H2.22479
		c-0.15662,0-0.28351-0.12689-0.28351-0.28351V5.23171c0-0.15662,0.12689-0.28351,0.28351-0.28351H5.2359
		c0.15662,0,0.28351,0.12689,0.28351,0.28351V5.2366z"/>
</g>
</svg>
