<?xml version="1.0" encoding="utf-8"?>
<!-- Generator: Adobe Illustrator 26.1.0, SVG Export Plug-In . SVG Version: 6.00 Build 0)  -->
<svg version="1.1" id="Слой_1" xmlns="http://www.w3.org/2000/svg" xmlns:xlink="http://www.w3.org/1999/xlink" x="0px" y="0px"
	 viewBox="0 0 21.0462 15.5906" style="enable-background:new 0 0 21.0462 15.5906;" xml:space="preserve">
<style type="text/css">
	.st0{fill:#6B6B6B;}
</style>
<path class="st0" d="M15.74506,5.90994H7.39099c-0.39203,0-0.70984,0.31781-0.70984,0.7099l0.71552,8.26093
	c0,0.39203,0.31781,0.70984,0.70984,0.70984h6.92303c0.39209,0,0.7099-0.31781,0.7099-0.70984l0.71545-8.26093
	C16.4549,6.22775,16.13708,5.90994,15.74506,5.90994z M9.5033,14.49581H9.4422c-0.28003,0-0.50708-0.22705-0.50708-0.50708
	L8.47009,7.5118c0-0.28003,0.22699-0.50702,0.50702-0.50702h0.06116c0.28003,0,0.50702,0.22699,0.50702,0.50702l0.46509,6.47693
	C10.01038,14.26876,9.78333,14.49581,9.5033,14.49581z M12.10565,13.97048c0,0.2901-0.23523,0.52533-0.52533,0.52533h-0.0246
	c-0.2901,0-0.52527-0.23523-0.52527-0.52533V7.53005c0-0.2901,0.23517-0.52527,0.52527-0.52527h0.0246
	c0.2901,0,0.52533,0.23517,0.52533,0.52527V13.97048z M14.19373,13.98873c0,0.28003-0.22705,0.50708-0.50708,0.50708h-0.0611
	c-0.28003,0-0.50708-0.22705-0.50708-0.50708l0.46509-6.47693c0-0.28003,0.22699-0.50702,0.50702-0.50702h0.06116
	c0.28003,0,0.50702,0.22699,0.50702,0.50702L14.19373,13.98873z"/>
<path class="st0" d="M4.05939,1.03934c0,0,2.81789-1.31998,4.65344-0.98483c2.67809,0.48899,2.85658,2.08737,3.02814,2.08318
	s1.1398-0.46498,1.1398-0.46498l-1.19363,3.49983L8.49898,3.76557c0,0,1.17414-0.55756,1.24504-0.69147
	c0.07089-0.13391-0.32226-1.26073-1.66027-1.77232C5.8293,0.43979,4.05939,1.03934,4.05939,1.03934z"/>
<path class="st0" d="M18.7084,2.47749l-0.79602,0.5047l-1.68202-2.6529c-0.19565-0.30858-0.58432-0.41287-0.86813-0.23293l0,0
	c-0.2838,0.17994-0.35526,0.57596-0.15961,0.88455l4.7055,7.42158c0.19565,0.30858,0.58432,0.41287,0.86813,0.23293l0,0
	c0.2838-0.17994,0.35526-0.57596,0.15961-0.88455l-1.64064-2.58764l0.79602-0.5047c0.1892-0.11996,0.23684-0.38398,0.10641-0.5897
	l-0.9105-1.43606C19.15672,2.42705,18.8976,2.35753,18.7084,2.47749z"/>
</svg>
