<?xml version="1.0" encoding="utf-8"?>
<!-- Generator: Adobe Illustrator 26.1.0, SVG Export Plug-In . SVG Version: 6.00 Build 0)  -->
<svg version="1.1" id="Слой_1" xmlns="http://www.w3.org/2000/svg" xmlns:xlink="http://www.w3.org/1999/xlink" x="0px" y="0px"
	 viewBox="0 0 40 40" style="enable-background:new 0 0 40 40;" xml:space="preserve">
<style type="text/css">
	.st0{fill:#828282;}
</style>
<g>
	<path class="st0" d="M20,38.6c-3.6,0-7.1,0.1-10.7,0c-3.3-0.1-5.5-2.4-5.6-5.7c0-2.5,0.2-5,1-7.5c0.4-1.3,1-2.6,1.9-3.7
		c1.2-1.5,2.8-2.2,4.7-2.3c0.4,0,0.9,0.2,1.3,0.4c1.6,1.1,3.3,2.1,5.2,2.5c2.9,0.6,5.6,0,8.1-1.5c0.3-0.2,0.6-0.4,0.9-0.6
		c1.3-1.1,2.6-0.9,4-0.4c1.6,0.6,2.7,1.8,3.5,3.3c1,1.9,1.5,3.9,1.7,6c0.1,1.6,0.2,3.3,0,4.9c-0.4,2.6-2.5,4.5-5.2,4.5
		C27.3,38.6,23.7,38.6,20,38.6L20,38.6z"/>
	<path class="st0" d="M28.9,10.1c0.2,4.7-4.1,9.1-9.2,8.9c-4.5-0.2-8.7-4.1-8.5-9.2c0.2-4.6,4.1-8.7,9.2-8.5
		C25,1.3,28.9,5.3,28.9,10.1z"/>
</g>
</svg>
