<?xml version="1.0" encoding="utf-8"?>
<!-- Generator: Adobe Illustrator 26.1.0, SVG Export Plug-In . SVG Version: 6.00 Build 0)  -->
<svg version="1.1" id="Слой_1" xmlns="http://www.w3.org/2000/svg" xmlns:xlink="http://www.w3.org/1999/xlink" x="0px" y="0px"
	 viewBox="0 0 100 100" style="enable-background:new 0 0 100 100;" xml:space="preserve">
<style type="text/css">
	.st0{fill:#006991;}
	.st1{fill:#828282;}
</style>
<path d="M38.9-542.90002"/>
<g>
	<polygon class="st0" points="59.77004,36.38303 25.91587,39.44527 25.91587,60.78062 59.77004,65.57166 63.06133,82.99133 
		96.0558,49.99686 63.06133,17.00552 	"/>
	<path class="st1" d="M77.02029,90.11983H14.03397V9.87701h62.98317v7.97879l9.87701,9.877V4.9385
		c0-2.72339-2.2151-4.9385-4.9385-4.9385H9.09547c-2.72339,0-4.9385,2.21511-4.9385,4.9385v90.12299
		c0,2.7234,2.21511,4.93851,4.9385,4.93851h72.86332c2.7234,0,4.9385-2.21511,4.9385-4.93851V72.2421l-9.87701,9.87701
		C77.02028,82.1191,77.02028,90.11983,77.02029,90.11983z"/>
</g>
</svg>
