<?xml version="1.0" encoding="utf-8"?>
<!-- Generator: Adobe Illustrator 26.1.0, SVG Export Plug-In . SVG Version: 6.00 Build 0)  -->
<svg version="1.1" id="Слой_1" xmlns="http://www.w3.org/2000/svg" xmlns:xlink="http://www.w3.org/1999/xlink" x="0px" y="0px"
	 viewBox="0 0 100 100" style="enable-background:new 0 0 100 100;" xml:space="preserve">
<style type="text/css">
	.st0{fill:#828282;stroke:#828282;stroke-width:4;stroke-miterlimit:10;}
	.st1{fill:#828282;}
</style>
<path d="M38.9-542.90002"/>
<g>
	<path class="st0" d="M47.25391,83.81464v-8.19531c-4.70654-0.08203-9.5752-1.54199-12.41553-3.57129l1.94775-5.43652
		c2.9209,1.94727,7.14062,3.48926,11.68506,3.48926c5.76123,0,9.65576-3.32715,9.65576-7.95215
		c0-4.46289-3.16406-7.22168-9.16895-9.65625c-8.27686-3.24609-13.38916-6.97852-13.38916-14.03857
		c0-6.73486,4.7876-11.84717,12.25293-13.06445v-8.1958h5.03076v7.87109c4.86914,0.1626,8.19629,1.46094,10.5498,2.84033
		l-2.0293,5.35547c-1.7041-0.97363-5.03125-2.75879-10.22461-2.75879c-6.24805,0-8.60107,3.73291-8.60107,6.97852
		c0,4.21973,3.00244,6.32959,10.06201,9.25049c8.3584,3.4082,12.57812,7.62793,12.57812,14.84961
		c0,6.41113-4.46289,12.41602-12.82129,13.79492v8.43945H47.25391z"/>
</g>
<path class="st1" d="M50,100.0553c-27.57005,0-50-22.42995-50-50s22.42995-50,50-50s50,22.42995,50,50
	S77.57005,100.0553,50,100.0553z M50,3.90145c-25.44978,0-46.15385,20.70406-46.15385,46.15385S24.55022,96.20914,50,96.20914
	S96.15385,75.50508,96.15385,50.0553S75.44978,3.90145,50,3.90145z"/>
</svg>
