<?xml version="1.0" encoding="utf-8"?>
<!-- Generator: Adobe Illustrator 26.1.0, SVG Export Plug-In . SVG Version: 6.00 Build 0)  -->
<svg version="1.1" id="Слой_1" xmlns="http://www.w3.org/2000/svg" xmlns:xlink="http://www.w3.org/1999/xlink" x="0px" y="0px"
	 viewBox="0 0 19.84252 19.84252" style="enable-background:new 0 0 19.84252 19.84252;" xml:space="preserve">
<style type="text/css">
	.st0{fill:#E2E2E2;}
	.st1{fill:#979695;}
	.st2{fill:#606060;}
</style>
<g>
	<g>
		<path class="st0" d="M14.28202,15.36848c0-0.54206,0-1.31468,0-2.20572c-0.00007,0-0.00007,0-0.00014,0
			c0-3.83732,0-11.78683,0-11.78683c-0.00007-0.68707-0.47385-1.17605-1.14959-1.17646
			c-2.91903-0.00192-5.83827-0.00062-8.75745-0.0024C4.29024,0.19694,4.23259,0.2292,4.175,0.28777L0.31577,4.2055
			C0.24468,4.27755,0.21623,4.35091,0.2163,4.45228C0.21855,6.64752,0.218,8.84283,0.21807,11.03807
			c0,2.18586-0.00177,3.27875,0.0015,5.46461c0.00068,0.4924,0.21438,0.8633,0.65384,1.08447
			c0.16198,0.08151,0.33746,0.10589,0.51731,0.10575c2.36843-0.00055,4.73672-0.00034,7.10515-0.00034
			c1.54525,0,3.09043,0.00075,4.63574-0.00048c0.55047-0.00041,1.00644-0.37234,1.12148-0.91008
			c0.0189-0.08842,0.02948-0.17822,0.02941-0.26932C14.28222,16.25274,14.28215,15.83082,14.28202,15.36848z"/>
		<g>
			<path class="st1" d="M14.45086,13.39064c0-0.00049-0.00014-0.00042-0.00014-0.00091c0-2.40588,0-12.03776,0-12.18314
				c-0.00014-0.70322-0.48683-1.20357-1.18107-1.20406C10.27074,0.00049,7.27156,0.00182,4.27244,0
				C4.18552,0,4.12628,0.03295,4.06712,0.09281L0.10213,4.10238C0.02916,4.17598-0.00007,4.25106,0,4.3548
				c0.00231,2.24662,0.00175,4.49331,0.00175,6.73994c0.00007,2.23702-0.00182,3.35563,0.00147,5.59265
				c0.00084,0.50393,0.22039,0.88351,0.67188,1.10985c0.16641,0.08341,0.34656,0.1083,0.53148,0.10816
				c2.43329-0.00056,4.86644-0.00028,7.29974-0.00028c1.58757,0,3.17506,0.00077,4.7627-0.00049
				c0.56541-0.00049,1.03401-0.38105,1.15219-0.93138c0.01942-0.09064,0.03028-0.18239,0.03007-0.27576
				C14.45058,15.98803,14.45107,14.10017,14.45086,13.39064z M13.88462,16.71641c-0.00112,0.34796-0.26104,0.61286-0.60354,0.61286
				c-4.03971,0.00042-8.0795,0.00042-12.11914,0c-0.30401,0-0.53912-0.23377-0.55531-0.5476
				c-0.00168-0.03197-0.00112-0.064-0.00112-0.09589C0.60536,12.28205,0.60536,8.99679,0.60592,4.59313
				c0-0.06582-0.01051-0.13269,0.03288-0.19403c0.06617-0.09358,0.14048-0.14489,0.26504-0.14377
				C1.62696,4.26178,2.35002,4.26038,3.073,4.25765c0.55055-0.0021,1.0073-0.3699,1.12436-0.89928
				c0.02138-0.0968,0.03028-0.19508,0.03021-0.29483C4.22673,2.33487,4.22694,1.60628,4.22722,0.87769
				C4.22729,0.69705,4.34618,0.57697,4.5264,0.57697c2.92047-0.00021,5.84101-0.00042,8.76148,0.00028
				c0.36037,0.00007,0.59695,0.24198,0.59695,0.60627c0,0,0.00014,10.77909,0.00014,12.69338
				c0,0.00617,0.00014,0.01241,0.00021,0.01858C13.88532,14.75754,13.8856,16.426,13.88462,16.71641z"/>
			<path class="st1" d="M7.66442,5.68287H2.6972c-0.25826,0-0.46768,0.14573-0.46768,0.3256v0.00568
				c0,0.1798,0.20943,0.32553,0.46768,0.32553h4.96712c0.25826,0,0.46758-0.14573,0.46778-0.32553V6.00847
				C8.1321,5.8286,7.92278,5.68287,7.66442,5.68287z"/>
			<path class="st1" d="M7.66442,8.17224H2.6972c-0.25826,0-0.46768,0.14573-0.46768,0.3256v0.00547
				c0,0.17987,0.20943,0.3256,0.46768,0.3256h4.96712c0.25826,0,0.46758-0.14573,0.46778-0.3256V8.49784
				C8.1321,8.31797,7.92278,8.17224,7.66442,8.17224z"/>
			<path class="st1" d="M7.66442,10.6614H2.6972c-0.25826,0-0.46768,0.14573-0.46768,0.3256v0.00554
				c0,0.17987,0.20943,0.3256,0.46768,0.3256h4.96712c0.25826,0,0.46758-0.14573,0.46778-0.32546V10.987
				C8.1321,10.80713,7.92278,10.6614,7.66442,10.6614z"/>
		</g>
	</g>
	<g>
		<g>
			<circle class="st2" cx="14.27863" cy="14.278" r="5.23856"/>
			<path class="st1" d="M14.27905,19.84252c-3.06818,0-5.56474-2.49656-5.56474-5.56474s2.49656-5.56474,5.56474-5.56474
				s5.56347,2.49656,5.56347,5.56474S17.34723,19.84252,14.27905,19.84252z M14.27905,9.36487
				c-2.70917,0-4.91291,2.20374-4.91291,4.91291s2.20374,4.91291,4.91291,4.91291c2.70789,0,4.91164-2.20374,4.91164-4.91291
				S16.98695,9.36487,14.27905,9.36487z"/>
		</g>
		<g>
			<path class="st0" d="M15.39959,17.6025h-2.10076v-0.29137c0.06775-0.0056,0.13754-0.01172,0.20987-0.01732
				c0.07183-0.00611,0.13448-0.01783,0.18746-0.03566c0.08201-0.02598,0.14314-0.07233,0.18287-0.13856
				s0.0596-0.15231,0.0596-0.25776v-2.68453c0-0.09373-0.02139-0.17982-0.06367-0.25776
				c-0.04279-0.07794-0.10239-0.14314-0.1788-0.19612c-0.05603-0.03515-0.13703-0.0652-0.24298-0.09016
				c-0.10595-0.02496-0.20274-0.04075-0.29087-0.04636v-0.29138l1.53533-0.0973l0.06164,0.06215v3.54796
				c0,0.1029,0.01987,0.18797,0.0596,0.25572c0.03922,0.06775,0.10137,0.11767,0.18593,0.15027
				c0.06418,0.02649,0.12735,0.04788,0.18848,0.06367c0.06164,0.0163,0.1299,0.02751,0.20631,0.03311V17.6025z M14.84791,11.48209
				c0,0.16759-0.05552,0.31379-0.16555,0.4391c-0.11054,0.1248-0.24655,0.18746-0.40803,0.18746
				c-0.15027,0-0.28068-0.0596-0.39071-0.1788c-0.11054-0.1192-0.16555-0.25521-0.16555-0.40803
				c0-0.16199,0.05502-0.30309,0.16555-0.42382c0.11003-0.12073,0.24044-0.18084,0.39071-0.18084
				c0.16759,0,0.30513,0.05654,0.41261,0.16963C14.79392,11.20039,14.84791,11.33182,14.84791,11.48209z"/>
		</g>
	</g>
</g>
</svg>
