<?xml version="1.0" encoding="utf-8"?>
<!-- Generator: Adobe Illustrator 26.1.0, SVG Export Plug-In . SVG Version: 6.00 Build 0)  -->
<svg version="1.1" id="Слой_1" xmlns="http://www.w3.org/2000/svg" xmlns:xlink="http://www.w3.org/1999/xlink" x="0px" y="0px"
	 viewBox="0 0 19.84252 19.84252" style="enable-background:new 0 0 19.84252 19.84252;" xml:space="preserve">
<style type="text/css">
	.st0{fill:#606060;}
</style>
<g>
	<path class="st0" d="M-13.28815-20.71036h-4.8728c-0.16449,0-0.29791,0.1358-0.29791,0.30341
		c0,0.16754,0.13336,0.30341,0.29791,0.30341h4.8728c0.16455,0,0.29791-0.13586,0.29791-0.30341
		C-12.99024-20.57455-13.1236-20.71036-13.28815-20.71036z"/>
	<path class="st0" d="M-13.28815-18.75058h-4.8728c-0.16449,0-0.29791,0.13586-0.29791,0.30341
		c0,0.1676,0.13336,0.30347,0.29791,0.30347h4.8728c0.16455,0,0.29791-0.13586,0.29791-0.30347
		C-12.99024-18.61472-13.1236-18.75058-13.28815-18.75058z"/>
	<path class="st0" d="M-13.28815-19.7305h-4.8728c-0.16449,0-0.29791,0.13586-0.29791,0.30341v0.00006
		c0,0.16754,0.13336,0.30341,0.29791,0.30341h4.8728c0.16455,0,0.29791-0.13586,0.29791-0.30341
		C-12.99024-19.59464-13.1236-19.7305-13.28815-19.7305z"/>
	<path class="st0" d="M-12.95868-24.48618c0.164,0,0.29694-0.13885,0.29694-0.31018c0-0.17126-0.13293-0.31012-0.29694-0.31012
		s-0.29694,0.13885-0.29694,0.31012C-13.25562-24.62503-13.12262-24.48618-12.95868-24.48618z"/>
	<path class="st0" d="M-13.77948-24.48618c0.16394,0,0.29688-0.13885,0.29688-0.31018c0-0.17126-0.13293-0.31012-0.29688-0.31012
		c-0.164,0-0.29694,0.13885-0.29694,0.31012C-14.07642-24.62503-13.94349-24.48618-13.77948-24.48618z"/>
	<polygon class="st0" points="-12.46058,-21.00534 -11.5138,-21.00534 -11.5138,-22.73148 -12.20234,-22.73148 -12.20234,-21.2565 
		-12.46058,-21.2565 	"/>
	<path class="st0" d="M-13.28815-17.77066h-4.8728c-0.16449,0-0.29791,0.13586-0.29791,0.30341
		c0,0.1676,0.13336,0.30341,0.29791,0.30341h4.8728c0.16455,0,0.29791-0.1358,0.29791-0.30341
		C-12.99024-17.6348-13.1236-17.77066-13.28815-17.77066z"/>
	<path class="st0" d="M-11.94166-18.15494c0,0.34644,0.27576,0.62732,0.61597,0.62732s0.61603-0.28088,0.61603-0.62732
		c0-0.3465-0.27582-0.62738-0.61603-0.62738S-11.94166-18.50143-11.94166-18.15494z"/>
	<path class="st0" d="M-10.12293-17.78018c0.20325,0,0.36798-0.16779,0.36798-0.37476c0-0.20703-0.16473-0.37482-0.36798-0.37482
		s-0.36798,0.16779-0.36798,0.37482C-10.49091-17.94797-10.32618-17.78018-10.12293-17.78018z"/>
	<path class="st0" d="M-13.28815-15.81082h-4.8728c-0.16449,0-0.29791,0.13586-0.29791,0.30341
		c0,0.1676,0.13336,0.30341,0.29791,0.30341h4.8728c0.16455,0,0.29791-0.1358,0.29791-0.30341
		C-12.99024-15.67496-13.1236-15.81082-13.28815-15.81082z"/>
	<path class="st0" d="M-13.28815-16.79074h-4.8728c-0.16449,0-0.29791,0.13586-0.29791,0.30341
		c0,0.1676,0.13336,0.30341,0.29791,0.30341h4.8728c0.16455,0,0.29791-0.1358,0.29791-0.30341
		C-12.99024-16.65488-13.1236-16.79074-13.28815-16.79074z"/>
	<path class="st0" d="M-9.11054-13.3768v-0.23822c0-0.13525-0.10767-0.24493-0.24054-0.24493h-12.70722
		c-0.13281,0-0.24054,0.10968-0.24054,0.24493v0.23822c0,0.13531,0.10773,0.245,0.24054,0.245h12.70722
		C-9.21821-13.13181-9.11054-13.24149-9.11054-13.3768z"/>
	<path class="st0" d="M-20.01014-18.78232c-0.34021,0-0.61603,0.28088-0.61603,0.62738c0,0.34644,0.27582,0.62732,0.61603,0.62732
		s0.61597-0.28088,0.61597-0.62732C-19.39417-18.50143-19.66993-18.78232-20.01014-18.78232z"/>
	<path class="st0" d="M-21.2129-18.52975c-0.20325,0-0.36804,0.16779-0.36804,0.37482c0,0.20697,0.16479,0.37476,0.36804,0.37476
		s0.36798-0.16779,0.36798-0.37476C-20.84492-18.36197-21.00965-18.52975-21.2129-18.52975z"/>
	<path class="st0" d="M-8.83887-28.56631H-22.6789c-1.65686,0-3,1.3432-3,3v13.84003c0,1.65686,1.34314,3,3,3h13.84003
		c1.6568,0,3-1.34314,3-3v-13.84003C-5.83887-27.22311-7.18207-28.56631-8.83887-28.56631z M-8.66364-16.85477v2.04742h-3.42438
		v-4.61975h0.89862C-9.79444-19.42709-8.66364-18.27542-8.66364-16.85477z M-20.62842-22.84158
		c0-0.06763,0.05383-0.1225,0.12024-0.1225h0.49432c0.06604,0,0.11945,0.05426,0.12006,0.1214h0.68683v-3.19653l-0.48694-0.45135
		l0.17383-0.19446l0.56818,0.52667h0.00311v0.87653c0,0,1.44629-0.36743,3.24414-0.36743c1.79779,0,3.24408,0.36743,3.24408,0.36743
		v-0.87653h0.00311l0.56824-0.52667l0.17377,0.19446l-0.48688,0.45135v3.19653h0.68878
		c0.00061-0.06714,0.05402-0.1214,0.12006-0.1214h0.49432c0.06641,0,0.12024,0.05487,0.1203,0.1225v1.95477
		c0,0.06769-0.05389,0.1225-0.1203,0.1225h-0.49432c-0.06647,0-0.1203-0.05481-0.1203-0.1225v-0.00732h-0.94678v6.25201h-6.48822
		v-6.25201h-0.94476v0.00732c0,0.06769-0.05383,0.1225-0.1203,0.1225h-0.49432c-0.06641,0-0.12024-0.05481-0.12024-0.1225V-22.84158
		z M-22.67219-16.85477c0-1.42065,1.1308-2.57233,2.52576-2.57233h0.89862v4.61975h-3.42438V-16.85477z M-7.72016-12.09683
		c0,0.20294-0.16156,0.36749-0.36084,0.36749h-0.28247v0.2746c0,0.46649-0.37817,0.84467-0.8446,0.84467h-2.23022
		c-0.46649,0-0.8446-0.37817-0.8446-0.84467v-0.2746h-6.78504v0.2746c0,0.46649-0.37817,0.84467-0.84467,0.84467h-2.23016
		c-0.46649,0-0.8446-0.37817-0.8446-0.84467v-0.2746h-0.4469c-0.19928,0-0.36084-0.16455-0.36084-0.36749v-1.80023
		c0-0.20294,0.16156-0.36749,0.36084-0.36749H-8.081c0.19928,0,0.36084,0.16455,0.36084,0.36749V-12.09683z"/>
	<polygon class="st0" points="-18.9488,-21.2565 -19.20698,-21.2565 -19.20698,-22.73148 -19.89356,-22.73148 -19.89356,-21.00534 
		-18.9488,-21.00534 	"/>
	<path class="st0" d="M-18.47004-24.48618c0.16394,0,0.29694-0.13885,0.29694-0.31018c0-0.17126-0.133-0.31012-0.29694-0.31012
		c-0.164,0-0.29694,0.13885-0.29694,0.31012C-18.76697-24.62503-18.63404-24.48618-18.47004-24.48618z"/>
	<path class="st0" d="M-12.46058-21.42508v-2.11493h-6.48822v2.11493c0,0,0.93463-0.73492,3.24414-0.73492
		S-12.46058-21.42508-12.46058-21.42508z"/>
	<path class="st0" d="M-17.64924-24.48618c0.164,0,0.29694-0.13885,0.29694-0.31018c0-0.17126-0.13293-0.31012-0.29694-0.31012
		c-0.16394,0-0.29688,0.13885-0.29688,0.31012C-17.94611-24.62503-17.81318-24.48618-17.64924-24.48618z"/>
</g>
<g>
	<path class="st0" d="M19.79327,8.93627c0.01558,0.35186,0.03116,0.70372,0.04673,1.05557
		c-0.00702,0.11574-0.01402,0.23149-0.02102,0.34724c-0.00205,0.11766-0.0041,0.23532-0.00616,0.35298
		c-0.03701,0.11364-0.01958,0.23358-0.0403,0.34911c-0.01649,0.1182-0.03297,0.23641-0.04946,0.35461
		c-0.04039,0.24143-0.08077,0.48285-0.12115,0.72428c-0.04843,0.1045-0.06275,0.21829-0.08941,0.32871
		c-0.03117,0.11611-0.06234,0.23221-0.0935,0.34832c-0.07922,0.23428-0.15845,0.46856-0.23767,0.70284
		c-0.06018,0.11176-0.11104,0.22727-0.14071,0.35127c-0.02173,0.03611-0.04812,0.07025-0.06442,0.10867
		c-0.08579,0.20224-0.1806,0.40009-0.2822,0.59477c-0.0253,0.05367-0.06317,0.10182-0.07152,0.16293
		c-0.07234,0.0412-0.07618,0.12634-0.11934,0.18625c-0.06915,0.11732-0.1534,0.2257-0.20792,0.35168
		c-0.00749,0.00854-0.01499,0.01708-0.02249,0.02561c-0.07148,0.10833-0.14295,0.21668-0.21442,0.32502
		c-0.04547,0.06325-0.09094,0.1265-0.1364,0.18976c-0.04029,0.05374-0.08059,0.10749-0.12088,0.16123
		c-0.56722,0.7355-1.22927,1.37498-1.96372,1.94116c-0.06929,0.0481-0.13857,0.0962-0.20786,0.14429
		c-0.05075,0.03373-0.10502,0.063-0.14286,0.11305c-0.23344,0.14181-0.46688,0.28361-0.70032,0.42542
		c-0.2428,0.12304-0.48559,0.24607-0.72839,0.36911c-0.1098,0.05443-0.23039,0.08646-0.33118,0.15962
		c-0.12066,0.0254-0.23291,0.07375-0.34368,0.12613c-0.12576,0.04513-0.25152,0.09025-0.37728,0.13538
		c-0.2251,0.06413-0.4502,0.12827-0.67529,0.19241c-0.11813,0.02434-0.23626,0.04868-0.35439,0.07302
		c-0.11578,0.02248-0.23155,0.04496-0.34733,0.06744c-0.0872,0.01456-0.17483,0.02694-0.2615,0.04416
		c-0.15438,0.03068-0.31486,0.0184-0.46646,0.06754c-0.10843,0.0127-0.22028-0.01945-0.3263,0.0249
		c-0.11757,0.00216-0.23515,0.00431-0.35272,0.00647c-0.0375,0.00001-0.075,0.00002-0.11251,0.00002c-0.00921,0-0.01841,0-0.02762,0
		c-0.01418-0.00001-0.02835-0.00002-0.04253-0.00002c-0.0404,0-0.08081,0-0.12121,0
		c-0.01805-0.00241-0.03454-0.00066-0.04509,0.01693c-0.11709-0.01557-0.23462-0.02206-0.35271-0.01691
		c-0.11544-0.00777-0.23088-0.01554-0.34632-0.02332c-0.11906,0.00357-0.23462-0.04097-0.35452-0.02577
		c-0.0233-0.00087-0.0466-0.00174-0.06991-0.00261c-0.00699-0.01992-0.01397-0.01991-0.02095,0
		c-0.00833,0.0003-0.01666,0.0006-0.02498,0.00089c-0.07219-0.04663-0.15768-0.02457-0.23485-0.04552
		c-0.11684-0.0154-0.23028-0.05434-0.34989-0.0505c-0.11264-0.04342-0.23169-0.0549-0.34996-0.07024
		c-0.11288-0.04473-0.2307-0.07017-0.35001-0.08982c-0.23477-0.07018-0.46953-0.14036-0.7043-0.21054
		c-0.11426-0.04674-0.22607-0.10053-0.34937-0.12121c-0.2338-0.10127-0.46759-0.20254-0.70139-0.30381
		c-0.22558-0.11748-0.45116-0.23496-0.67674-0.35244c-0.2422-0.15551-0.4844-0.31101-0.7266-0.46652
		c-0.01503-0.00813-0.03007-0.01626-0.04511-0.02439c-0.09045-0.09267-0.20795-0.14981-0.30568-0.23292
		c-0.05853-0.03317-0.09341-0.09883-0.16207-0.11807c-0.05005-0.06919-0.12947-0.10427-0.18876-0.16272
		c-0.27804-0.24476-0.55922-0.4858-0.80716-0.76291c-0.1465-0.16374-0.3023-0.31915-0.45393-0.4783
		c-0.02861-0.07636-0.09081-0.12746-0.141-0.18759c-0.04049-0.05342-0.08099-0.10683-0.12148-0.16024
		c-0.0691-0.08667-0.11632-0.1911-0.20942-0.2583c0.00249-0.04056-0.03045-0.06271-0.04815-0.09278
		c-0.15468-0.24244-0.30937-0.48488-0.46405-0.72732c-0.11819-0.22554-0.23638-0.45108-0.35456-0.67662
		c-0.10133-0.23487-0.20267-0.46973-0.304-0.7046c-0.0389-0.11609-0.0778-0.23217-0.1167-0.34826
		c-0.0548-0.09557-0.0482-0.21448-0.11587-0.30517c-0.00133-0.01497-0.00266-0.02994-0.00399-0.04491
		C0.382,12.6745,0.34565,12.54826,0.3093,12.42203c-0.02005-0.10926-0.03227-0.22035-0.07537-0.32425
		c-0.00607-0.12132-0.05028-0.23506-0.0702-0.35363c-0.02464-0.12346-0.0218-0.25211-0.07003-0.37112
		c-0.00521-0.05541,0.02598-0.11571-0.02221-0.16534c-0.00137-0.054-0.00273-0.10799-0.0041-0.16199
		c-0.01467-0.11817-0.02933-0.23634-0.044-0.35452c0.01157-0.1177-0.00678-0.23372-0.01965-0.35005
		c-0.00123-0.11731-0.00247-0.23463-0.0037-0.35194C0.00002,9.87309,0.00001,9.75698,0,9.64087
		c0.00781-0.11788,0.01561-0.23576,0.02342-0.35364C0.0312,9.17112,0.03899,9.05501,0.04678,8.9389
		c0.03118-0.23486,0.06236-0.46972,0.09356-0.70458c0.0234-0.11612,0.04678-0.23225,0.07017-0.34837
		c0.01555-0.11919,0.07044-0.2301,0.07395-0.35182c0.04077-0.12259,0.08642-0.24396,0.09397-0.37488
		c0.02873-0.02279,0.0375-0.05591,0.04783-0.08894C0.4877,6.87378,0.54994,6.6775,0.61191,6.48113
		C0.6578,6.36392,0.70369,6.24672,0.74958,6.12951C0.77345,6.12069,0.77387,6.1011,0.77208,6.0805
		c0.04065-0.09212,0.0813-0.18425,0.12194-0.27638c0.06071-0.12593,0.12142-0.25186,0.18213-0.3778
		c0.01594-0.03866,0.03189-0.07733,0.04784-0.11599C1.17042,5.232,1.21684,5.15367,1.26326,5.07534
		c0.06562-0.11525,0.14962-0.2205,0.19003-0.34947c0.096-0.10511,0.16884-0.22575,0.23489-0.35092
		C1.75293,4.3263,1.77775,4.24771,1.82803,4.18822C1.85971,4.14189,1.8914,4.09556,1.92308,4.04923
		C1.97296,3.98624,2.02229,3.9228,2.07283,3.86034c0.14476-0.17888,0.29-0.35737,0.43506-0.53601
		C2.74387,3.09225,2.95701,2.8373,3.20982,2.62206c0.33417-0.31866,0.70623-0.59036,1.07405-0.86731
		c0.08576-0.0546,0.17151-0.1092,0.25727-0.1638c0.03326-0.0205,0.07526-0.02892,0.09465-0.06857
		c0.22953-0.11849,0.43858-0.27345,0.67514-0.37942c0.07515-0.03823,0.15159-0.07415,0.22517-0.11518
		c0.15501-0.08644,0.33086-0.12963,0.47807-0.2319c0.1236-0.03055,0.23983-0.07948,0.35112-0.14076
		c0.23418-0.07926,0.46836-0.15852,0.70254-0.23778C7.1883,0.40242,7.30168,0.36117,7.41606,0.32368
		C7.65044,0.27049,7.88482,0.2173,8.1192,0.16411C8.23801,0.16336,8.35222,0.131,8.46854,0.11318
		C8.58637,0.09757,8.7042,0.08196,8.82203,0.06635c0.1157-0.00861,0.2314-0.01723,0.3471-0.02584
		C9.28761,0.03259,9.4061,0.02468,9.52458,0.01677C9.64098,0.01181,9.7591,0.04291,9.87368,0
		c0.11753,0.00559,0.23505,0.01118,0.35258,0.01677c0.11633,0.0022,0.23267,0.0044,0.349,0.0066
		c0.11495,0.03626,0.23676,0.01235,0.35267,0.0402c0.11633,0.01001,0.23266,0.02001,0.34899,0.03002
		c0.11727,0.02212,0.23453,0.04423,0.3518,0.06635c0.23685,0.02788,0.46533,0.09756,0.69922,0.14024
		c0.11361,0.04699,0.23466,0.06592,0.35333,0.09381c0.10401,0.04615,0.21294,0.07618,0.32412,0.0988
		c0.03266,0.01394,0.06532,0.02788,0.09797,0.04182c0.0923,0.03111,0.18461,0.06221,0.27692,0.09331
		c0.11786,0.04688,0.23571,0.09376,0.35357,0.14065c0.22496,0.10306,0.44992,0.20612,0.67489,0.30918
		c0.24179,0.13267,0.48359,0.26534,0.72538,0.398c0.03402,0.04995,0.08226,0.07849,0.13986,0.09291
		c0.06171,0.05987,0.1311,0.10825,0.21089,0.14107c0.22649,0.17101,0.45299,0.34202,0.67948,0.51303
		c0.0232,0.01542,0.0464,0.03085,0.06961,0.04627c0.09372,0.08596,0.18743,0.17191,0.28114,0.25787
		c0.03882,0.03104,0.07765,0.06208,0.11648,0.09312c0.07812,0.07816,0.15624,0.15631,0.23436,0.23447
		c0.04678,0.0468,0.09356,0.0936,0.14034,0.1404c0.07812,0.07815,0.15624,0.15631,0.23436,0.23446
		c0.03323,0.03708,0.04547,0.09094,0.09308,0.11653c0.0791,0.09255,0.15821,0.1851,0.23731,0.27764
		c0.00959,0.03594,0.03646,0.05613,0.06669,0.07326c0.16345,0.22658,0.34346,0.44103,0.49462,0.6766
		c0.03741,0.0694,0.08451,0.13162,0.13929,0.18815c0.00887,0.06679,0.05381,0.11362,0.09109,0.16469
		c0.14472,0.21882,0.24118,0.46593,0.39721,0.67812c0.09032,0.25053,0.22061,0.48299,0.32786,0.72586
		c0.03965,0.11963,0.07387,0.24142,0.13993,0.35049c0.07232,0.23318,0.14465,0.46635,0.21697,0.69953
		c0.03646,0.12615,0.07292,0.2523,0.10938,0.37845c0.01661,0.11021,0.03333,0.22039,0.07549,0.32465
		c0.03897,0.23487,0.07793,0.46974,0.11688,0.7046C19.76047,8.70424,19.75619,8.82304,19.79327,8.93627z M2.41791,8.23342
		c-0.02343,0.1185-0.04685,0.23701-0.07028,0.35551C2.34046,8.70604,2.29346,8.81747,2.2982,8.93627
		c0.00035,0.11801-0.04666,0.23236-0.02724,0.35185C2.22646,9.40274,2.25661,9.5224,2.24725,9.63939
		C2.22181,9.75625,2.23643,9.87496,2.23081,9.99274c-0.01578,0.11716,0.02049,0.23123,0.02058,0.34744
		c-0.01684,0.11951,0.01904,0.23553,0.02342,0.35364c0.0073,0.11722,0.01626,0.23422,0.04675,0.34833
		c0.01104,0.12761,0.02649,0.25445,0.06494,0.37734c0.02972,0.232,0.09678,0.45488,0.1652,0.67744
		c0.0223,0.13015,0.07446,0.25111,0.11545,0.37551c0.08372,0.23011,0.1586,0.4639,0.28216,0.6774
		c0.09838,0.25549,0.23492,0.49128,0.37435,0.72557c0.07555,0.11174,0.12456,0.24163,0.22828,0.3341
		c0.13922,0.25734,0.32385,0.48068,0.52014,0.6953c0.05571,0.07627,0.10924,0.15446,0.18602,0.21225
		c0.04376,0.04946,0.077,0.10943,0.1397,0.13998c0.05316,0.08758,0.12729,0.15415,0.21113,0.211
		c0.0302,0.06352,0.09254,0.09427,0.14142,0.13874c0.05711,0.07721,0.13878,0.12679,0.21068,0.18737
		C5.0405,15.8603,5.1165,15.93127,5.2002,15.99154c0.1517,0.10924,0.28799,0.24149,0.46289,0.31685
		c0.09265,0.09521,0.2076,0.15624,0.32556,0.21267c0.07808,0.0489,0.1529,0.10432,0.23494,0.1453
		c0.16151,0.08069,0.31299,0.18391,0.49166,0.22762c0.21068,0.13015,0.44616,0.20077,0.67711,0.28224
		c0.12077,0.05266,0.24706,0.08736,0.37536,0.11554c0.2289,0.07723,0.46195,0.13665,0.7025,0.16385
		c0.11237,0.04816,0.23406,0.04687,0.35183,0.06639c0.11576,0.01467,0.23153,0.02933,0.34729,0.044
		c0.11845,0.00782,0.2369,0.01564,0.35535,0.02345c0.11574,0.0009,0.23148,0.0018,0.34721,0.0027
		c0.11812-0.00093,0.23623-0.00185,0.35435-0.00278c0.1169,0.01385,0.23039-0.02293,0.34633-0.02332
		c0.11903-0.00213,0.23713-0.0125,0.3533-0.03992c0.11881-0.00084,0.23459-0.0225,0.34937-0.05098
		c0.23715-0.04434,0.47652-0.07908,0.70429-0.16378c0.11947-0.02903,0.23971-0.05567,0.34996-0.11321
		c0.25319-0.06421,0.49487-0.15835,0.72627-0.27928c0.24049-0.08914,0.46397-0.2112,0.67838-0.35082
		c0.26355-0.12232,0.49771-0.2902,0.72533-0.46825c0.0685-0.01979,0.10373-0.08517,0.16234-0.11851
		c0.05019-0.05233,0.12869-0.07238,0.1629-0.14294c0.10773-0.04241,0.1678-0.14401,0.25811-0.20805
		c0.03894-0.02312,0.07005-0.05408,0.09307-0.09313c0.09925-0.08854,0.20139-0.17418,0.28163-0.28173
		c0.03054-0.01557,0.05365-0.03856,0.0691-0.0692c0.20766-0.18711,0.37912-0.40508,0.53905-0.63288
		c0.19004-0.21523,0.33946-0.4586,0.48694-0.70332c0.00941-0.02225,0.01881-0.04451,0.02821-0.06678
		c0.07806-0.0804,0.11208-0.1862,0.16273-0.2824c0.06733-0.10248,0.11748-0.21367,0.16519-0.32609
		c0.02623-0.02634,0.04164-0.05782,0.04521-0.09496c0.0436-0.09188,0.09313-0.18129,0.11743-0.28124
		c0.04548-0.11752,0.09095-0.23504,0.13643-0.35256c0.08286-0.22868,0.15211-0.46141,0.20761-0.69827
		c0.02428-0.1182,0.04856-0.2364,0.07283-0.35461c0.02246-0.11581,0.04491-0.23162,0.06737-0.34743
		c0.01576-0.11855,0.03152-0.2371,0.04728-0.35565c0.00763-0.11544,0.01525-0.23088,0.02287-0.34632
		c0.00094-0.11818,0.00187-0.23636,0.00281-0.35453c-0.00091-0.11578-0.00182-0.23155-0.00273-0.34733
		c0.00903-0.11913-0.01131-0.23655-0.0207-0.35461c-0.00243-0.11818-0.00986-0.23575-0.04299-0.35015
		c-0.00066-0.1196-0.02843-0.2353-0.05056-0.35182c-0.01013-0.1188-0.03339-0.23495-0.07022-0.34836
		c-0.04824-0.24857-0.10745-0.49406-0.20523-0.72867c-0.02795-0.11286-0.05694-0.22535-0.11838-0.32604
		c-0.07853-0.24561-0.1856-0.47859-0.31087-0.70353c0.00346-0.04174-0.0218-0.07307-0.04078-0.10561
		c-0.11596-0.19871-0.23326-0.39665-0.35011-0.59484c-0.06557-0.08379-0.10771-0.18441-0.18603-0.25904
		c-0.00636-0.0436-0.03468-0.07083-0.06949-0.0932c-0.07374-0.13328-0.16671-0.25168-0.27619-0.35731
		c-0.00485-0.01054-0.00772-0.02268-0.01482-0.03138c-0.40772-0.50011-0.87151-0.9409-1.39499-1.31844
		c-0.0367-0.02707-0.06761-0.06424-0.11786-0.06771c-0.06718-0.07009-0.13933-0.13322-0.23293-0.16626
		c-0.2113-0.15734-0.44204-0.2817-0.67679-0.39925c-0.06592-0.03177-0.13297-0.06143-0.19755-0.09572
		c-0.17061-0.09058-0.34686-0.16746-0.5308-0.22657c-0.11084-0.0566-0.22744-0.09659-0.34937-0.12121
		c-0.22404-0.10468-0.46722-0.14312-0.70401-0.20369c-0.11227-0.03927-0.23077-0.04775-0.34645-0.07017
		c-0.11612-0.02706-0.23355-0.04539-0.35256-0.05335c-0.11416-0.03259-0.23228-0.03087-0.34911-0.04024
		c-0.11861-0.0054-0.23534-0.03944-0.35536-0.02348c-0.11568-0.00076-0.23137-0.00153-0.34705-0.00229
		C9.74848,2.24808,9.62119,2.22432,9.497,2.26667C9.38084,2.27759,9.26194,2.24935,9.14793,2.29112
		C9.03672,2.27996,8.92898,2.31036,8.8194,2.31872c-0.11882,0.01077-0.23561,0.03231-0.35,0.06641
		c-0.12031,0.01-0.23644,0.03985-0.35167,0.07399c-0.07658-0.01124-0.14375,0.0265-0.21204,0.04785
		C7.74224,2.55806,7.57205,2.58933,7.41689,2.66592c-0.12524,0.01909-0.23705,0.07642-0.35236,0.1238
		C6.82423,2.88154,6.58631,2.97856,6.36438,3.1105C6.29914,3.14319,6.23139,3.17173,6.16913,3.20935
		C5.998,3.31275,5.81521,3.39807,5.66303,3.53131C5.59,3.55368,5.53531,3.60537,5.47545,3.64878
		c-0.06284,0.0463-0.12567,0.0926-0.18851,0.1389C5.19489,3.85952,5.10284,3.93136,5.0108,4.0032
		C4.97485,4.01281,4.95464,4.03971,4.93749,4.06997C4.81265,4.15449,4.70624,4.25881,4.61058,4.37466
		C4.47044,4.46846,4.37099,4.60298,4.25972,4.72567C4.14238,4.82903,4.04742,4.95185,3.95468,5.0766
		C3.92439,5.08973,3.90832,5.11229,3.90886,5.14584C3.81531,5.21278,3.76778,5.31741,3.69787,5.40371
		c-0.17716,0.22818-0.32886,0.47278-0.4679,0.72556C3.20473,6.15584,3.18917,6.18695,3.18566,6.22372
		C3.11791,6.29798,3.09439,6.39686,3.04295,6.4802C2.99318,6.59782,2.91983,6.70481,2.8857,6.82947
		C2.8691,6.86221,2.85251,6.89496,2.8359,6.92767c-0.03405,0.09226-0.08644,0.17809-0.0975,0.2784
		C2.67421,7.29839,2.65219,7.40626,2.62545,7.51239C2.57933,7.63323,2.52639,7.75197,2.51148,7.88243
		c-0.01401,0.02312-0.03263,0.0446-0.02646,0.07483C2.46265,8.04931,2.44028,8.14137,2.41791,8.23342z"/>
	<path class="st0" d="M9.17341,15.6119c-0.04821-0.00875-0.09643-0.0175-0.14463-0.02626
		c-0.06896-0.02326-0.13793-0.04651-0.20691-0.06976c-0.10919-0.06359-0.21838-0.12719-0.32757-0.19078
		c-0.01524-0.03123-0.04012-0.05316-0.06878-0.07147c-0.21083-0.20048-0.38281-0.42834-0.49285-0.69987
		c-0.02337-0.11729-0.04673-0.23458-0.0701-0.35187c0.01342-0.11762,0.02685-0.23524,0.04028-0.35287
		c0.01648-0.11578,0.03295-0.23156,0.04943-0.34734c0.01685-0.11727,0.03371-0.23455,0.05056-0.35182
		c0.0446-0.11215,0.03758-0.23372,0.06362-0.34926c0.01653-0.11818,0.03305-0.23636,0.04957-0.35453
		c0.00404-0.03036,0.00775-0.06076,0.01216-0.09106c0.02965-0.20365,0.09186-0.4017,0.10475-0.60825
		c0.02347-0.11791,0.04692-0.23581,0.07037-0.35371c0.01728-0.10806,0.03456-0.21613,0.05183-0.32419
		c0.03957-0.12282,0.05014-0.25062,0.06494-0.3777c0.05052-0.22342,0.09503-0.44792,0.12211-0.67558
		c0.03698-0.12315,0.05481-0.2496,0.065-0.37737c0.03453-0.11357,0.05114-0.22954,0.04674-0.34833
		c0.0112-0.38975-0.17294-0.53492-0.53447-0.54024C8.00749,8.70445,7.88553,8.71403,7.77041,8.686
		c-0.27765-0.03969-0.4201-0.20709-0.40291-0.45169c0.0172-0.04565,0.03441-0.09129,0.05161-0.13694
		c0.10163-0.08607,0.2199-0.13273,0.35126-0.14835c0.11635-0.00563,0.2327-0.01126,0.34905-0.01689
		c0.03179,0.01678,0.06559,0.00969,0.09919,0.00948c0.38939-0.00248,0.77878-0.0053,1.16818-0.00601
		c0.47412-0.00087,0.94823,0.00045,1.42235,0.00026c0.16503-0.00007,0.3236,0.02483,0.46696,0.11332
		c0.04668,0.06231,0.09336,0.12461,0.14004,0.18692c0.03368,0.1156,0.0183,0.23535,0.02985,0.35282
		c-0.00869,0.11578-0.01738,0.23157-0.02607,0.34735c-0.02251,0.11821-0.04501,0.23642-0.06752,0.35463
		c-0.02045,0.11593-0.05617,0.22953-0.05317,0.34904c-0.06943,0.22987-0.09095,0.46885-0.13384,0.70376
		c-0.01339,0.10863-0.05808,0.21196-0.05478,0.32342c-0.03132,0.12375-0.0633,0.24739-0.0687,0.37588
		c-0.04897,0.11162-0.04396,0.23349-0.06638,0.35015c-0.02249,0.11821-0.04498,0.23641-0.06746,0.35462
		c-0.00134,0.02275-0.00267,0.04551-0.00402,0.06826c-0.05156,0.08736-0.02817,0.19237-0.06656,0.28284
		c-0.01636,0.11575-0.03271,0.23149-0.04907,0.34724c-0.03746,0.11508-0.05195,0.23473-0.0702,0.35363
		c-0.02245,0.11581-0.04491,0.23163-0.06736,0.34744c-0.02455,0.11654-0.0545,0.23227-0.05334,0.35271
		c-0.03043,0.11564-0.05174,0.23189-0.02378,0.35148c-0.02322,0.12325,0.0152,0.23757,0.05094,0.35228
		c0.03276,0.16631,0.13773,0.25995,0.29883,0.29707c0.12233,0.01413,0.23938-0.0118,0.35524-0.0468
		c0.12252-0.02858,0.24056-0.06885,0.34912-0.13385c0.06166-0.01944,0.12634-0.03377,0.16275-0.09605
		c0.06959-0.01613,0.13111-0.04895,0.18809-0.09114c0.11672-0.01576,0.22991-0.07733,0.35171-0.02712
		c0.03771,0.03277,0.07542,0.06555,0.11313,0.09832c0.04811,0.12442-0.00559,0.23567-0.04506,0.34876
		c-0.03728,0.05109-0.08223,0.09794-0.09109,0.16476c-0.07535,0.04957-0.13298,0.11745-0.19098,0.18496
		c-0.04621,0.03933-0.09243,0.07866-0.13864,0.11799c-0.10191,0.07766-0.20383,0.15533-0.30574,0.23299
		c-0.01504,0.00814-0.03009,0.01627-0.04513,0.02441c-0.12513,0.06191-0.25027,0.12381-0.37541,0.18571
		c-0.22637,0.08797-0.4614,0.14445-0.69877,0.19241c-0.10997,0.0078-0.21994,0.0156-0.32992,0.0234
		c-0.11667-0.00122-0.23333-0.00246-0.34999-0.0037c-0.11723-0.00658-0.23446-0.01315-0.35169-0.01971
		C9.40523,15.64136,9.28932,15.62663,9.17341,15.6119z"/>
	<path class="st0" d="M10.92705,4.32515c0.05379,0.02487,0.10177,0.06304,0.16283,0.0713
		c0.06208,0.04763,0.12416,0.09525,0.18625,0.14287c0.0623,0.06231,0.1246,0.12462,0.1869,0.18693
		c0.05146,0.05908,0.07322,0.14095,0.14272,0.18621c0.00817,0.0611,0.04645,0.10902,0.0712,0.16287
		c0.03767,0.10967,0.07535,0.21934,0.11304,0.329c0.01401,0.12455-0.01834,0.25205,0.02379,0.37482
		c-0.02215,0.1173-0.04429,0.2346-0.06644,0.3519c-0.02954,0.11877-0.10617,0.22018-0.12612,0.34253
		c-0.09167,0.11139-0.1834,0.22272-0.27512,0.33405c-0.03946,0.02251-0.06878,0.05547-0.09465,0.09197
		c-0.20367,0.1498-0.41925,0.27357-0.67514,0.30927c-0.1162,0.03278-0.23583,0.01413-0.35359,0.02357
		C9.98457,7.21422,9.75966,7.14946,9.54747,7.04003c-0.24167-0.148-0.43163-0.3477-0.58424-0.58476
		C8.92259,6.35539,8.88196,6.25549,8.84133,6.1556c0.00228-0.02012,0.00069-0.03885-0.0184-0.0513
		C8.80687,5.99562,8.79082,5.88694,8.77476,5.77826C8.78134,5.66851,8.78791,5.55875,8.79448,5.449
		c0.05644-0.25858,0.16971-0.49025,0.33094-0.6992c0.02237-0.02452,0.04474-0.04904,0.06711-0.07357
		c0.18878-0.20131,0.41965-0.33473,0.67945-0.42146c0.11772-0.02346,0.23545-0.0469,0.35318-0.07035
		c0.11618,0.00785,0.23235,0.01571,0.34852,0.02355C10.69067,4.24942,10.81505,4.2686,10.92705,4.32515z"/>
</g>
</svg>
