<?xml version="1.0" encoding="utf-8"?>
<!-- Generator: Adobe Illustrator 26.1.0, SVG Export Plug-In . SVG Version: 6.00 Build 0)  -->
<svg version="1.1" id="Слой_1" xmlns="http://www.w3.org/2000/svg" xmlns:xlink="http://www.w3.org/1999/xlink" x="0px" y="0px"
	 viewBox="0 0 19.84252 19.84252" style="enable-background:new 0 0 19.84252 19.84252;" xml:space="preserve">
<style type="text/css">
	.st0{fill:#606060;}
</style>
<path class="st0" d="M-12.53104,19.84585c-1.1377,0-6.46045-9.26807-6.46045-12.08594c0-3.5625,2.89795-6.46094,6.46045-6.46094
	s6.46045,2.89844,6.46045,6.46094C-6.07059,10.57779-11.39334,19.84585-12.53104,19.84585z M-12.53104,2.29898
	c-3.01074,0-5.46045,2.44971-5.46045,5.46094c0,2.70166,4.20898,9.20215,5.46045,10.83887
	c1.25146-1.63672,5.46045-8.13721,5.46045-10.83887C-7.07059,4.74869-9.5203,2.29898-12.53104,2.29898z"/>
<path class="st0" d="M13.38158,18.54688c-0.26465,0-0.39844,0-1.69238-1.9209c-0.1543-0.22852-0.09375-0.54004,0.13574-0.69434
	c0.22852-0.15234,0.53906-0.09473,0.69434,0.13574c0.37793,0.56152,0.66797,0.9668,0.86621,1.22754
	c1.25586-1.64551,5.45703-8.13672,5.45703-10.83447C18.84252,3.44971,16.39232,1,13.38158,1
	c-0.50781,0-1.01172,0.06982-1.49707,0.20752c-0.26855,0.07617-0.54297-0.07959-0.61816-0.34424
	c-0.0752-0.26562,0.0791-0.54248,0.34473-0.61768C12.18529,0.08252,12.781,0,13.38158,0c3.5625,0,6.46094,2.89795,6.46094,6.46045
	C19.84252,9.27832,14.51928,18.54688,13.38158,18.54688z"/>
<path class="st0" d="M6.29822,1.30211C2.81978,1.30211,0,4.12196,0,7.6004s6.03264,12.24212,6.29828,12.24212
	c0.26558,0,6.29822-8.76368,6.29822-12.24212S9.77666,1.30211,6.29822,1.30211z M6.22334,10.32531
	c-1.73445,0-3.1405-1.40605-3.1405-3.1405c0-1.73451,1.40605-3.14056,3.1405-3.14056c1.73451,0,3.1405,1.40605,3.1405,3.14056
	C9.36384,8.91926,7.95786,10.32531,6.22334,10.32531z"/>
</svg>
