<?xml version="1.0" encoding="utf-8"?>
<!-- Generator: Adobe Illustrator 26.1.0, SVG Export Plug-In . SVG Version: 6.00 Build 0)  -->
<svg version="1.1" id="Слой_1" xmlns="http://www.w3.org/2000/svg" xmlns:xlink="http://www.w3.org/1999/xlink" x="0px" y="0px"
	 viewBox="0 0 85.03937 24.37795" style="enable-background:new 0 0 85.03937 24.37795;" xml:space="preserve">
<style type="text/css">
	.st0{fill:#FFFFFF;}
</style>
<g>
	<path class="st0" d="M12.50622,0C5.51136,0,0,5.37156,0,12.18898s5.51136,12.18898,12.50622,12.18898
		s12.50622-5.37156,12.50622-12.18898S19.50285,0,12.50622,0z M17.8054,17.14694H7.41922V7.23101H17.8054V17.14694z"/>
	<g>
		<path class="st0" d="M32.00729,3.30531c6.99485-0.2068,13.14277-0.2068,18.22977,0
			c-0.21217,3.09851-0.42437,5.16476-0.63654,5.78516h-5.72355c0.42437,6.81742,0.42437,10.74312,0.21218,11.77538
			c-1.48349,0.2068-3.60352,0.4136-6.14791,0.4136V9.29552H31.7951L32.00729,3.30531L32.00729,3.30531z"/>
		<path class="st0" d="M65.0755,3.30531c1.69567,4.13251,3.81569,9.70912,6.35831,16.52654l-6.99485,0.6204l-1.90785-7.02422
			l-3.8157,0.2068l-1.27131,7.43781c-2.96697,0-5.29919-0.2068-6.78267-0.6204c0.84873-3.51211,2.96697-9.29727,6.14613-17.35374
			C59.98671,3.09851,62.74328,3.09851,65.0755,3.30531z M61.89456,10.32952c-0.63654-1.65265-1.05913-2.89171-1.69567-3.51211
			l-1.05913,3.71891L61.89456,10.32952z"/>
		<path class="st0" d="M83.51566,2.47811l1.48348,4.33756c-2.7548,0.2068-4.66264,0.6204-5.29919,1.65265
			c-0.84873,1.03226-0.63654,1.85945,0.2122,2.47985c1.05912,0.8272,2.12003,1.65265,3.39133,2.68491
			c1.27132,1.03226,1.90785,2.47985,1.69568,4.13251c-0.2122,1.65265-1.27132,2.89171-3.39134,3.51211
			c-2.12003,0.6204-5.08701,0.6204-9.11488-0.2068L72.06858,17.352c3.17915,0,5.08701-0.2068,5.93573-0.6204
			c0.84874-0.4136,0.63654-1.03226-0.42436-1.65265c-1.05913-0.6204-2.33221-1.44585-3.39134-2.27305
			c-1.05913-0.8272-1.69567-1.85945-1.69567-3.30531c0-1.23905,0.42436-2.47985,1.48348-3.92571
			C75.03732,4.33756,78.21648,3.30531,83.51566,2.47811z"/>
	</g>
</g>
</svg>
