<?xml version="1.0" encoding="utf-8"?>
<!-- Generator: Adobe Illustrator 26.1.0, SVG Export Plug-In . SVG Version: 6.00 Build 0)  -->
<svg version="1.1" id="Слой_1" xmlns="http://www.w3.org/2000/svg" xmlns:xlink="http://www.w3.org/1999/xlink" x="0px" y="0px"
	 viewBox="0 0 99.2477 79.38916" style="enable-background:new 0 0 99.2477 79.38916;" xml:space="preserve">
<style type="text/css">
	.st0{fill:#616160;}
</style>
<g>
	<path class="st0" d="M56.09285,62.80947c0-4.84523,0-9.61818,0-14.46972c12.38176,0,24.75002,0,37.19635,0
		c0-0.29878,0-0.51961,0-0.74044c0-12.63161,0.00152-25.26322-0.00528-37.89482c-0.00028-0.53426-0.04512-1.07348-0.12605-1.60168
		c-0.18106-1.18151-0.93533-1.87654-2.15913-2.01687c-0.38873-0.04457-0.78269-0.06034-1.17426-0.06056
		c-6.2848-0.00359-12.5696,0.00499-18.85439-0.00433C61.87593,6.00755,52.78178,5.9794,43.68762,5.96253
		C39.8842,5.95548,36.08074,5.9566,32.27734,5.96739c-0.47181,0.00134-0.9498,0.05093-1.4138,0.13769
		c-1.12352,0.21008-1.83692,0.99923-1.95017,2.1552c-0.08006,0.81716-0.11482,1.63875-0.17475,2.53207
		c-1.13598,0-2.28697,0.00002-3.43796-0.00001c-0.66156-0.00002-1.32502,0.02702-1.98335-0.01912
		c-0.16646-0.01167-0.43027-0.23755-0.45764-0.39775c-0.8267-4.83837,2.13508-9.19135,6.94719-10.21306
		c0.5404-0.11474,1.10597-0.15535,1.65991-0.15556C51.31348-0.00082,71.1602-0.00144,91.00693,0.00201
		c3.94568,0.00069,7.65083,3.24323,8.1123,7.16682c0.15362,1.3061,0.12542,2.63734,0.12594,3.9571
		c0.00563,14.34679,0.00046,28.69359-0.00181,43.04038c-0.00079,4.99442-3.63313,8.69801-8.62078,8.70726
		c-11.20547,0.02078-22.41101,0.00701-33.61652,0.00375C56.7204,62.87724,56.43475,62.8359,56.09285,62.80947z M61.00742,59.4278
		c2.09463,0.02474,3.86004-1.71624,3.87518-3.82156c0.01485-2.06543-1.77171-3.85249-3.85961-3.86071
		c-2.00646-0.0079-3.80772,1.75615-3.83069,3.75152C57.16762,57.64232,58.87613,59.40263,61.00742,59.4278z"/>
	<path class="st0" d="M29.61774,79.38934c0.2202-0.54884,0.38326-1.01158,0.58909-1.45446
		c0.27692-0.59587,0.77007-0.96019,1.3942-1.1278c2.06583-0.55476,2.9874-2.76607,1.94522-4.63531
		c-0.50569-0.90698-1.28712-1.41374-2.24462-1.70592c-0.21027-0.06416-0.42402-0.11687-0.64645-0.17767
		c0-0.76869,0-1.50677,0-2.3158c6.1515,0,12.27652,0,18.43415,0c0-14.44925,0-28.82747,0-43.25194
		c-12.36409,0-24.71568,0-37.13001,0c0,1.43821,0,2.89491,0,4.39995c-1.55855,0-3.05512,0-4.63343,0c0-0.21628,0-0.43554,0-0.6548
		c0-3.43187-0.00013-6.86374,0.00004-10.29561c0.00015-3.13917,1.98646-5.04926,5.11313-5.04125
		c5.74532,0.01473,11.49079-0.04329,17.2362-0.04385c6.303-0.00062,12.606,0.02699,18.90898,0.04806
		c1.32393,0.00443,2.57511,0.25881,3.62033,1.1532c1.12729,0.96461,1.60757,2.24969,1.62355,3.6694
		c0.047,4.175,0.03275,8.35075,0.03176,12.5262c-0.0022,9.24073-0.01217,18.48147-0.01658,27.72221
		c-0.00255,5.35454,0.0005,10.70908-0.00083,16.06363c-0.00078,3.12401-1.98362,5.12018-5.08995,5.12117
		c-6.14015,0.00197-12.28031,0.00057-18.42046,0.00057C30.1264,79.38934,29.92076,79.38934,29.61774,79.38934z M31.88659,19.231
		c0.0103-0.76819-0.53091-1.32476-1.29745-1.33432c-0.83152-0.01037-1.30984,0.45289-1.31814,1.27662
		c-0.00874,0.86782,0.42128,1.33707,1.2351,1.34778C31.37149,20.53246,31.87547,20.06149,31.88659,19.231z"/>
	<path class="st0" d="M0.00047,55.38678c0-6.73799-0.00148-13.47598,0.0008-20.21397c0.0008-2.35161,1.4002-3.73001,3.79797-3.73168
		c6.15958-0.00431,12.31918-0.00385,18.47876,0.00108c0.92838,0.00074,1.85682,0.03203,2.78508,0.05553
		c2.01958,0.05114,3.29688,1.60532,3.29482,3.57554c-0.00138,1.32286-0.00015,2.64573-0.00014,3.9686
		c0,12.15381,0.00202,24.30762-0.00349,36.46144c-0.00049,1.08836-0.16841,2.12868-1.01112,2.94374
		c-0.69797,0.67507-1.56274,0.92997-2.48108,0.93224c-7.11035,0.01761-14.22078,0.01889-21.33115,0.00407
		c-2.22225-0.00463-3.53155-1.43079-3.52932-3.72061c0.00658-6.75865,0.00235-13.51731,0.00235-20.27597
		C0.0028,55.38678,0.00163,55.38678,0.00047,55.38678z M3.4782,39.86251c0,10.41372,0,20.79052,0,31.17019
		c7.17223,0,14.29083,0,21.41788,0c0-10.41842,0-20.79788,0-31.17019C17.73098,39.86251,10.61014,39.86251,3.4782,39.86251z
		 M16.51608,75.28434c-0.00451-1.34344-1.05703-2.39871-2.38378-2.39c-1.33034,0.00874-2.47595,1.13315-2.46377,2.41817
		c0.01219,1.28574,1.18114,2.40625,2.4967,2.39326C15.46834,77.69289,16.52052,76.60912,16.51608,75.28434z M16.49245,35.02945
		c-1.59162,0-3.1114,0-4.65637,0c0,0.40337,0,0.76519,0,1.1552c1.56226,0,3.09812,0,4.65637,0
		C16.49245,35.78389,16.49245,35.42015,16.49245,35.02945z"/>
	<path class="st0" d="M68.02447,65.50309c0.27289,2.12977,0.44817,4.18195,0.81542,6.19919
		c0.51543,2.83111,2.60339,3.99982,5.12781,4.21703c0.69668,0.05994,1.39863,0.11786,2.08217,0.2559
		c0.81242,0.16405,1.23206,0.68172,1.29475,1.44308c0.05426,0.65903-0.24747,1.15163-0.99148,1.47721
		c-0.35007,0.15319-0.74693,0.28047-1.12293,0.28139c-6.84083,0.01651-13.6817,0.01205-20.52256,0.0107
		c-0.07839-0.00002-0.15678-0.01802-0.3181-0.0378c0.16961-0.30566,0.30258-0.57713,0.46383-0.83059
		c0.84114-1.32211,1.19217-2.76115,1.17346-4.32848c-0.03378-2.83071-0.00895-5.66212-0.00557-8.49324
		c0.00007-0.05756,0.03706-0.11508,0.06429-0.19438C60.10825,65.50309,64.13113,65.50309,68.02447,65.50309z"/>
</g>
</svg>
