<?xml version="1.0" encoding="utf-8"?>
<!-- Generator: Adobe Illustrator 26.1.0, SVG Export Plug-In . SVG Version: 6.00 Build 0)  -->
<svg version="1.1" id="Слой_1" xmlns="http://www.w3.org/2000/svg" xmlns:xlink="http://www.w3.org/1999/xlink" x="0px" y="0px"
	 viewBox="0 0 100 100" style="enable-background:new 0 0 100 100;" xml:space="preserve">
<style type="text/css">
	.st0{fill:#828282;}
</style>
<path d="M38.9-542.90002"/>
<g>
	<path class="st0" d="M65.58232,46.32298c-0.09631,1.00018-0.92217,1.40581-1.36121,2.05727
		c-2.0202,2.99774-4.28245,5.83012-6.44817,8.71838c-1.93168,2.57612-3.97444,5.09835-5.95521,7.65261
		c-3.76511,4.85519-7.44677,9.77505-11.20496,14.63568c-0.68212,0.88221-0.45767,1.25076,0.49702,1.46363
		c0.28191,0.06286,0.57488,0.10674,0.86288,0.10722c5.32721,0.00885,10.65446,0.02134,15.98162,0.00438
		c1.34388-0.00429,2.26142-0.64819,2.60323-2.00912c0.51111-2.03503,1.37075-3.93622,2.4656-5.70602
		c1.80591-2.91927,3.71689-5.77343,5.57509-8.66052c3.05943-4.75346,5.51049-9.74909,6.43941-15.40792
		c2.06095-12.555-3.82337-23.80881-14.99374-28.65359c-0.935-0.40553-1.25303-0.37123-1.5795,0.68003
		c-2.39248,7.70399-4.86553,15.38294-7.29591,23.07523c-0.6168,1.9522-0.58826,1.96262,1.52829,2.01882
		c0.53188,0.01412,1.06407,0.02262,1.59613,0.02288C58.04457,46.32388,61.79624,46.32298,65.58232,46.32298z M39.7346,79.31522
		c0.57766-0.29227,0.56511-0.83713,0.71896-1.27654c2.57329-7.34875,5.10863-14.71096,7.72626-22.04383
		c0.40089-1.12306,0.24101-1.48868-0.94205-1.66536c-3.68262-0.54996-7.34707-1.22079-11.02742-1.7872
		c-1.11177-0.17112-1.32735-0.49005-0.58767-1.40726c0.8767-1.08714,1.67715-2.23628,2.49913-3.36691
		C44.57033,38.8982,51.008,30.02035,57.47422,21.16336c0.70819-0.97002,0.80424-1.40833-0.58086-1.78193
		c-18.19449-4.9077-36.04389,10.47565-31.83277,30.74253c1.18639,5.70974,3.8537,10.70074,6.99134,15.50619
		c2.29844,3.52019,4.78096,6.92796,6.49555,10.8035C38.96715,77.38222,39.03509,78.4881,39.7346,79.31522z M49.83524,82.44596
		c-2.85344,0-5.70691-0.00526-8.56033,0.00195c-1.77349,0.00449-2.2029,0.44923-2.20382,2.23686
		c-0.00086,1.66663,0.47363,2.18105,2.13189,2.18484c5.75526,0.01315,11.51057,0.01391,17.26583,0.00105
		c1.58173-0.00353,2.07362-0.57057,2.0714-2.25872c-0.00219-1.66037-0.4713-2.15123-2.14466-2.15955
		C55.54217,82.43821,52.68868,82.4485,49.83524,82.44596z M49.60515,93.43674c0,0.00259,0,0.0052,0.00001,0.00779
		c2.7546,0,5.50981,0.03415,8.26355-0.01439c1.38298-0.02435,1.82205-0.63145,1.82-2.2138
		c-0.00204-1.57651-0.44841-2.22044-1.8138-2.22934c-5.41221-0.0353-10.82491-0.02388-16.23725,0.00488
		c-1.38796,0.00736-1.76295,0.91943-1.72224,2.15582c0.05266,1.59934,0.53971,2.26727,1.8609,2.28103
		C44.38567,93.45592,46.99551,93.43674,49.60515,93.43674z M49.69099,95.57638c0-0.0027,0-0.00539,0-0.00809
		c-1.39818,0-2.79637-0.00381-4.19453,0.00108c-1.38086,0.00483-1.80981,0.80449-1.79633,2.0653
		c0.01878,1.75938,0.3769,2.32837,1.78893,2.34611c2.89228,0.03638,5.78534,0.01022,8.67809,0.00881
		c1.43944-0.00069,1.7443-0.91879,1.74019-2.1199c-0.00558-1.62852-0.42746-2.2448-1.73287-2.28316
		C52.68117,95.54266,51.18558,95.57638,49.69099,95.57638z M65.21845,19.53112c0.70244,0.0291,1.02716-0.39502,1.25691-0.98877
		c0.64848-1.6758,1.75207-3.09633,2.63411-4.64154c1.21558-2.12951,2.41454-4.26926,3.57232-6.43049
		c0.29788-0.55605,0.46504-1.25819-0.32995-1.60957c-0.74011-0.32713-1.13237,0.13527-1.47923,0.75188
		c-1.24712,2.21696-2.53115,4.41316-3.80309,6.61613c-0.84495,1.46342-1.71056,2.91522-2.53394,4.39063
		C63.91756,18.72683,64.22601,19.53178,65.21845,19.53112z M24.33867,30.08609c0.06213-0.59494-0.3217-0.87549-0.86849-1.10073
		c-1.7446-0.7187-3.26953-1.83019-4.88764-2.77709c-2.03444-1.19053-4.10669-2.31752-6.18006-3.4397
		c-0.57069-0.30887-1.23892-0.49065-1.63939,0.25713c-0.44412,0.82932,0.13202,1.21406,0.77612,1.56458
		c0.88791,0.48322,1.75412,1.0063,2.62966,1.51225c2.78603,1.60997,5.56104,3.23946,8.36352,4.82024
		C23.64901,31.55261,24.37251,31.20005,24.33867,30.08609z M77.18893,59.4025c-0.58387,0.04822-1.13885-0.09731-1.2701,0.58737
		c-0.1312,0.68443,0.0186,1.29538,0.71361,1.55981c0.95654,0.36394,1.80586,0.90209,2.68084,1.41378
		c2.78528,1.62886,5.58595,3.232,8.4001,4.81043c0.58602,0.3287,1.29713,0.63054,1.76982-0.19655
		c0.48146-0.84248-0.12405-1.18884-0.7568-1.5513c-3.00204-1.71983-5.98904-3.46588-8.9854-5.19567
		C78.86916,60.32706,77.98413,59.84663,77.18893,59.4025z M12.12508,68.6309c0.13047-0.04202,0.37928-0.07674,0.58032-0.19364
		c3.74801-2.17957,7.49115-4.36748,11.23294-6.55771c0.56331-0.32973,1.14531-0.69938,0.63052-1.4629
		c-0.45098-0.66887-1.08932-0.52871-1.67157-0.19838c-1.00663,0.57106-1.9735,1.2127-2.98424,1.77593
		c-2.69679,1.50278-5.39396,3.0063-8.12329,4.44836c-0.69718,0.36836-0.86385,0.86362-0.76023,1.52979
		C11.11299,68.50888,11.55474,68.60643,12.12508,68.6309z M89.2207,22.92374c-0.03645-0.31155-0.03312-0.67441-0.41517-0.83023
		c-0.53007-0.21619-1.02687-0.12138-1.52043,0.16832c-2.16728,1.27212-4.34546,2.52567-6.51649,3.79145
		c-1.54395,0.90018-3.09042,1.79651-4.61929,2.72179c-0.45932,0.27798-0.89908,0.62776-0.54891,1.28806
		c0.35275,0.6651,0.89021,0.65223,1.48645,0.41473c0.17876-0.0712,0.34588-0.1734,0.51424-0.26863
		c3.61308-2.04381,7.11446-4.28677,10.8583-6.09699C88.95881,23.87075,89.09356,23.42715,89.2207,22.92374z M35.43678,18.84786
		c0.00792-0.46785-0.28267-0.80769-0.49743-1.18321c-1.96508-3.43594-3.95473-6.8584-5.86679-10.32366
		c-0.44911-0.81393-0.92406-1.54986-1.844-1.00969c-0.87773,0.51538-0.38893,1.35473,0.00247,2.0387
		c1.12699,1.96938,2.25218,3.93989,3.39354,5.90095c0.97061,1.6677,1.96073,3.32405,2.94649,4.98289
		c0.30926,0.52041,0.76026,0.73904,1.34907,0.53329C35.35371,19.63562,35.44682,19.26118,35.43678,18.84786z M50.73078,7.70217
		c0.01676-0.00002,0.03352-0.00004,0.05028-0.00006c0-2.12511-0.00553-4.25025,0.00301-6.37531
		c0.00294-0.734-0.31538-1.27497-1.04513-1.32395c-0.78907-0.05297-0.82177,0.64469-0.90146,1.21444
		c-0.02657,0.19002-0.0159,0.38567-0.01692,0.57878c-0.02178,4.10259,0.15893,8.20621-0.09,12.30815
		c-0.04298,0.70814,0.13057,1.42155,1.04256,1.44129c0.88128,0.01908,0.95005-0.6722,0.95342-1.32497
		C50.73775,12.0478,50.73078,9.87496,50.73078,7.70217z M87.74994,44.06025c-0.00016-0.03088-0.00034-0.06177-0.00051-0.09266
		c-2.1223,0-4.24459-0.00177-6.36687,0.00099c-0.7148,0.00093-1.4611,0.09758-1.5004,0.9824
		c-0.03707,0.83453,0.65163,0.95711,1.32709,0.95771c4.24809,0.00375,8.49619,0.00808,12.74427,0.00793
		c0.6744-0.00003,1.33669-0.1448,1.37291-0.954c0.04107-0.91809-0.72576-0.88941-1.34568-0.89511
		C91.90397,44.0484,89.82691,44.06025,87.74994,44.06025z M12.63371,46.53864c-0.00001,0.00291-0.00001,0.00581-0.00002,0.00872
		c2.03103,0,4.06213-0.01023,6.09304,0.00548c0.72414,0.00561,1.47412-0.03978,1.52879-0.92876
		c0.06339-1.03063-0.82817-0.9076-1.46728-0.91167c-4.11045-0.02617-8.2211-0.02462-12.33168-0.02359
		c-0.69098,0.00017-1.49508-0.00402-1.45135,0.96987c0.04308,0.95941,0.86021,0.87629,1.53761,0.87806
		C8.5731,46.54202,10.60342,46.53864,12.63371,46.53864z"/>
</g>
</svg>
