<?xml version="1.0" encoding="utf-8"?>
<!-- Generator: Adobe Illustrator 26.1.0, SVG Export Plug-In . SVG Version: 6.00 Build 0)  -->
<svg version="1.1" id="Слой_1" xmlns="http://www.w3.org/2000/svg" xmlns:xlink="http://www.w3.org/1999/xlink" x="0px" y="0px"
	 viewBox="0 0 19.84252 19.84252" style="enable-background:new 0 0 19.84252 19.84252;" xml:space="preserve">
<style type="text/css">
	.st0{fill:none;}
	.st1{fill:#606060;}
	.st2{fill:#009640;}
</style>
<line class="st0" x1="-10.61009" y1="4.22486" x2="-10.52752" y2="4.34872"/>
<g>
	<g>
		<rect y="4.85789" class="st1" width="16.05963" height="2.1055"/>
	</g>
	<path class="st1" d="M5.26376,11.12165H1.66499c-0.19381,0-0.35092-0.15711-0.35092-0.35092l0,0
		c0-0.19381,0.15711-0.35092,0.35092-0.35092h3.59877c0.19381,0,0.35092,0.15711,0.35092,0.35092l0,0
		C5.61468,10.96454,5.45757,11.12165,5.26376,11.12165z"/>
	<path class="st1" d="M7.49312,11.12165H6.53655c-0.19381,0-0.35092-0.15711-0.35092-0.35092l0,0
		c0-0.19381,0.15711-0.35092,0.35092-0.35092h0.95657c0.19381,0,0.35092,0.15711,0.35092,0.35092l0,0
		C7.84404,10.96454,7.68693,11.12165,7.49312,11.12165z"/>
	<g>
		<path class="st2" d="M15.81729,9.4978c1.80597,0,3.27523,1.46926,3.27523,3.27523s-1.46926,3.27523-3.27523,3.27523
			s-3.27523-1.46926-3.27523-3.27523S14.01132,9.4978,15.81729,9.4978 M15.81729,8.7478c-2.22307,0-4.02523,1.80216-4.02523,4.02523
			s1.80216,4.02523,4.02523,4.02523s4.02523-1.80216,4.02523-4.02523S18.04036,8.7478,15.81729,8.7478L15.81729,8.7478z"/>
	</g>
	<path class="st1" d="M11.79205,12.773c0-0.13672,0.02692-0.26587,0.04022-0.39905H1c-0.13788,0-0.25-0.11218-0.25-0.25V3.84411
		c0-0.13782,0.11212-0.25,0.25-0.25h14.05963c0.13788,0,0.25,0.11218,0.25,0.25V8.799
		c0.16809-0.02142,0.33374-0.05121,0.50763-0.05121c0.08301,0,0.16058,0.01947,0.24237,0.02441V3.8441c0-0.55225-0.44769-1-1-1H1
		c-0.55231,0-1,0.44775-1,1v8.27985c0,0.55225,0.44769,1,1,1h10.82745C11.81714,13.0064,11.79205,12.89324,11.79205,12.773z"/>
	<path class="st2" d="M15.2793,14.87598c-0.01172,0-0.02344,0-0.03613-0.00098c-0.16504-0.0127-0.31445-0.10547-0.39746-0.25
		l-0.88672-1.54004c-0.1377-0.23926-0.05566-0.54492,0.18457-0.68262c0.2373-0.1377,0.54395-0.05566,0.68262,0.18457
		l0.51758,0.89844l1.64355-2.09277c0.1709-0.21777,0.48828-0.25293,0.70215-0.08496c0.21777,0.1709,0.25488,0.48535,0.08496,0.70215
		l-2.10156,2.6748C15.57715,14.80566,15.43164,14.87598,15.2793,14.87598z"/>
</g>
</svg>
