<?xml version="1.0" encoding="utf-8"?>
<!-- Generator: Adobe Illustrator 26.1.0, SVG Export Plug-In . SVG Version: 6.00 Build 0)  -->
<svg version="1.1" id="Слой_1" xmlns="http://www.w3.org/2000/svg" xmlns:xlink="http://www.w3.org/1999/xlink" x="0px" y="0px"
	 viewBox="0 0 19.84252 19.84252" style="enable-background:new 0 0 19.84252 19.84252;" xml:space="preserve">
<style type="text/css">
	.st0{fill:#606060;}
	.st1{fill:none;}
</style>
<g>
	<rect y="4.85789" class="st0" width="16.05963" height="2.1055"/>
</g>
<path class="st0" d="M5.26376,11.12165H1.66499c-0.19381,0-0.35092-0.15711-0.35092-0.35092l0,0
	c0-0.19381,0.15711-0.35092,0.35092-0.35092h3.59877c0.19381,0,0.35092,0.15711,0.35092,0.35092l0,0
	C5.61468,10.96454,5.45757,11.12165,5.26376,11.12165z"/>
<path class="st0" d="M7.49312,11.12165H6.53655c-0.19381,0-0.35092-0.15711-0.35092-0.35092l0,0
	c0-0.19381,0.15711-0.35092,0.35092-0.35092h0.95657c0.19381,0,0.35092,0.15711,0.35092,0.35092l0,0
	C7.84404,10.96454,7.68693,11.12165,7.49312,11.12165z"/>
<path class="st0" d="M11.79205,12.773c0-0.13672,0.02692-0.26587,0.04022-0.39905H1c-0.13788,0-0.25-0.11218-0.25-0.25V3.84411
	c0-0.13782,0.11212-0.25,0.25-0.25h14.05963c0.13788,0,0.25,0.11218,0.25,0.25V8.799
	c0.16809-0.02142,0.33374-0.05121,0.50763-0.05121c0.08301,0,0.16058,0.01947,0.24237,0.02441v-4.9281c0-0.55225-0.44769-1-1-1H1
	c-0.55231,0-1,0.44775-1,1v8.27985c0,0.55225,0.44769,1,1,1h10.82745C11.81714,13.0064,11.79205,12.89324,11.79205,12.773z"/>
<line class="st1" x1="-10.61009" y1="4.22486" x2="-10.52752" y2="4.34872"/>
<path class="st0" d="M4.26758,12.773c0-0.13672-0.02692-0.26587-0.04022-0.39905h10.83228c0.13788,0,0.25-0.11218,0.25-0.25V3.84411
	c0-0.13782-0.11212-0.25-0.25-0.25H1c-0.13788,0-0.25,0.11218-0.25,0.25V8.799C0.58191,8.77758,0.41626,8.74779,0.24237,8.74779
	C0.15936,8.74779,0.08179,8.76726,0,8.77221l0-4.9281c0-0.55225,0.44769-1,1-1h14.05963c0.55231,0,1,0.44775,1,1v8.27985
	c0,0.55225-0.44769,1-1,1H4.23218C4.24249,13.0064,4.26758,12.89324,4.26758,12.773z"/>
</svg>
