<?xml version="1.0" encoding="utf-8"?>
<!-- Generator: Adobe Illustrator 26.1.0, SVG Export Plug-In . SVG Version: 6.00 Build 0)  -->
<svg version="1.1" id="Слой_1" xmlns="http://www.w3.org/2000/svg" xmlns:xlink="http://www.w3.org/1999/xlink" x="0px" y="0px"
	 viewBox="0 0 100 100" style="enable-background:new 0 0 100 100;" xml:space="preserve">
<style type="text/css">
	.st0{fill:#616160;}
</style>
<path class="st0" d="M7.24772,26.97637c1.54978,0.00418,3.0996,0.00077,4.64939,0.00071
	c1.5498-0.00006,3.09961,0.00258,4.64939-0.00065c2.69803-0.00562,4.76645-2.09086,4.83066-4.8658
	c0.06528-2.8213-1.91728-5.15303-4.58799-5.2146c-3.23625-0.07459-6.47645-0.06603-9.71321-0.00361
	c-2.76183,0.05326-4.71563,2.34412-4.65532,5.30647C2.47546,24.89178,4.57211,26.96919,7.24772,26.97637z"/>
<path class="st0" d="M7.33947,56.99722c3.01659,0.00505,6.03322,0.00635,9.0498-0.00175
	c2.85873-0.00766,4.9592-2.11002,4.99528-4.98312c0.03643-2.9017-2.05616-5.08886-4.93349-5.13048
	c-1.49414-0.02162-2.98887-0.00381-4.48333-0.00272c-1.57747,0.00109-3.15553-0.02685-4.73226,0.00718
	c-2.87032,0.06198-4.84989,2.23029-4.81504,5.22965C2.45247,54.87397,4.58226,56.99259,7.33947,56.99722z"/>
<path class="st0" d="M16.67848,87.14136c2.6452-0.0258,4.69133-2.20921,4.70244-4.99704
	c0.01129-2.83199-2.03685-5.0443-4.72555-5.06088c-3.15434-0.01945-6.30895-0.01909-9.46331-0.00263
	c-2.72518,0.01423-4.76862,2.1726-4.77304,5.00156c-0.00451,2.88905,2.02567,5.03828,4.79613,5.06112
	c1.54946,0.01278,3.0991,0.0023,4.64866,0.00153C13.46871,87.14425,15.07374,87.15701,16.67848,87.14136z"/>
<g>
	<path class="st0" d="M66.66504,38.04443c-0.28711-0.2959-0.7002-0.44385-1.23926-0.44385
		c-0.49805,0-0.89258,0.15674-1.18164,0.47021c-0.29102,0.31348-0.44727,0.74854-0.4707,1.30518h3.38379
		C67.11621,38.78418,66.95215,38.34033,66.66504,38.04443z"/>
	<path class="st0" d="M70.85742,60.33887c-0.52734,0-0.91699,0.17969-1.16895,0.54102
		c-0.25195,0.35938-0.37793,0.91797-0.37793,1.67383c0,0.69727,0.13672,1.23926,0.4082,1.62598
		c0.27344,0.38672,0.65234,0.58008,1.13867,0.58008s0.86816-0.19434,1.14648-0.58496
		c0.27832-0.38867,0.41797-0.92969,0.41797-1.62109c0-0.75-0.12891-1.30664-0.38672-1.66992S71.38477,60.33887,70.85742,60.33887z"
		/>
	<path class="st0" d="M83.0918,59.60059c-0.49805,0-0.89258,0.15723-1.18164,0.4707
		c-0.29102,0.31348-0.44727,0.74805-0.4707,1.30469h3.38379c-0.04102-0.5918-0.20508-1.03516-0.49219-1.33203
		C84.04395,59.74902,83.63086,59.60059,83.0918,59.60059z"/>
	<path class="st0" d="M97.55426,49.9978c0-15.00562,0.00006-30.01123-0.00006-45.01691
		c-0.00006-2.96533-1.47229-4.43921-4.43384-4.43921c-24.7785-0.00006-49.55695-0.00006-74.33545,0.00024
		c-0.41522,0-0.83185-0.01685-1.24548,0.00983c-1.92566,0.12415-3.4989,1.72217-3.52191,3.64453
		c-0.03119,2.60211,0.00452,5.20496-0.01886,7.80719c-0.00476,0.5282,0.18994,0.65771,0.67865,0.64343
		c1.0235-0.03003,2.04938,0.01782,3.07263-0.01532c1.50446-0.04877,2.82635,0.43628,4.03949,1.28094
		c4.20978,2.93115,5.41547,8.84174,2.64026,13.2243c-1.68988,2.66864-3.9967,4.33246-7.3399,4.1286
		c-0.82745-0.05048-1.66107,0.00842-2.49103-0.01331c-0.40833-0.01074-0.59912,0.09106-0.59717,0.54846
		c0.01465,3.43292,0.01318,6.86603,0.0033,10.29901c-0.00116,0.39606,0.13947,0.53125,0.53076,0.52448
		c1.0517-0.01831,2.10449,0.01471,3.15594-0.0108c1.46594-0.03564,2.77722,0.40125,3.98291,1.20807
		c5.02228,3.36066,5.69946,10.80371,1.37207,15.09546c-1.56317,1.55023-3.38196,2.45984-5.64868,2.33075
		c-0.93829-0.05347-1.88257,0.00751-2.8233-0.01562c-0.43463-0.01074-0.57361,0.14771-0.57214,0.57764
		c0.01196,3.46063,0.01215,6.92139-0.00287,10.38208c-0.00201,0.46399,0.1402,0.63416,0.61658,0.62036
		c1.0235-0.02954,2.04944,0.01947,3.07263-0.01526c1.62689-0.05524,3.04456,0.48755,4.32196,1.44269
		c3.92145,2.93219,5.10114,8.50848,2.62335,12.73224c-1.69525,2.88983-4.08569,4.69763-7.64935,4.45642
		c-0.79919-0.05408-1.60583,0.01074-2.4079-0.01489c-0.43408-0.01385-0.58276,0.14294-0.57489,0.57391
		c0.02081,1.1347,0.00403,2.27008,0.0069,3.40521c0.00629,2.49591,1.54852,4.03851,4.03204,4.03845
		c25.05554-0.00018,50.11108-0.02295,75.1665,0.03253c2.72681,0.00598,4.38251-1.86584,4.37354-4.3656
		C97.52716,80.06458,97.55426,65.03113,97.55426,49.9978z M45.53613,66.49121c0,1.66406-0.40723,2.84473-1.22168,3.54199
		s-2.18848,1.0459-4.12207,1.0459c-1.3418,0-2.41406-0.24609-3.2168-0.73828s-1.26855-1.18652-1.39746-2.08301h3.76172
		c0.04688,0.22852,0.15674,0.39258,0.32959,0.49219s0.43506,0.14941,0.78662,0.14941c0.55664,0,0.93311-0.12305,1.12939-0.36914
		s0.29443-0.78809,0.29443-1.62598v-0.51855c-0.32227,0.31055-0.70459,0.54395-1.14697,0.69922
		c-0.44238,0.1543-0.94775,0.23242-1.51611,0.23242c-1.28906,0-2.32178-0.44043-3.09814-1.32227s-1.16455-2.05566-1.16455-3.52051
		c0-1.54102,0.37061-2.76855,1.11182-3.68262s1.72998-1.37109,2.96631-1.37109c0.69141,0,1.29346,0.12207,1.80615,0.36523
		s0.95654,0.61914,1.33154,1.12891v-1.23926h3.36621V66.49121z M47.23242,40.58887c0,1.62305-0.52344,2.8623-1.56836,3.71777
		c-1.0459,0.85547-2.5625,1.2832-4.54883,1.2832c-1.99805,0-3.52441-0.4292-4.5791-1.2876s-1.58203-2.09619-1.58203-3.71338V32.2832
		h4.15723v7.98047c0,0.73828,0.15381,1.26416,0.46143,1.57764s0.82178,0.47021,1.54248,0.47021
		c0.70312,0,1.20557-0.15381,1.50732-0.46143s0.45264-0.83643,0.45264-1.58643V32.2832h4.15723V40.58887z M57.82324,67.22949
		h-3.47168v-1.40625c-0.44531,0.5625-0.94238,0.98047-1.48926,1.25195c-0.54883,0.27344-1.16797,0.40918-1.85938,0.40918
		c-0.58008,0-1.09863-0.09668-1.55566-0.29004s-0.84375-0.48047-1.16016-0.86133c-0.28125-0.33984-0.48047-0.75391-0.59766-1.24414
		c-0.11719-0.48828-0.17578-1.31055-0.17578-2.46484v-4.94824h3.79688v4.93066c0,0.72656,0.09668,1.22949,0.29004,1.50781
		s0.52734,0.41699,1.00195,0.41699s0.83008-0.16113,1.06836-0.4834c0.23633-0.32227,0.35547-0.80859,0.35547-1.45898v-4.91309
		h3.79688V67.22949z M57.65137,44.7373c-0.85156,0.55664-2.11328,0.83496-3.7832,0.83496
		c-1.54688,0-2.72656-0.27832-3.53711-0.83496c-0.8125-0.55664-1.25879-1.39453-1.34082-2.51367h3.69141
		c0,0.4043,0.10352,0.70605,0.31152,0.90527s0.52051,0.29883,0.93652,0.29883c0.39844,0,0.7041-0.06738,0.91895-0.20215
		c0.21289-0.13477,0.32031-0.33105,0.32031-0.58887c0-0.42773-0.47168-0.74414-1.41504-0.94922
		c-0.08203-0.01758-0.14648-0.03223-0.19336-0.04395c-1.78711-0.38086-2.95312-0.79102-3.49805-1.23047
		s-0.81738-1.08398-0.81738-1.93359c0-1.02539,0.40039-1.80615,1.19922-2.34229c0.80078-0.53613,1.96777-0.8042,3.50293-0.8042
		c1.42383,0,2.52637,0.25195,3.30957,0.75586c0.78125,0.50391,1.23145,1.25391,1.34863,2.25h-3.41895
		c-0.0293-0.28711-0.1543-0.51562-0.37305-0.68555c-0.2207-0.16992-0.49707-0.25488-0.83105-0.25488
		s-0.58887,0.05713-0.76465,0.17139s-0.26367,0.27979-0.26367,0.49658c0,0.38086,0.43066,0.66211,1.29199,0.84375
		c0.22852,0.04688,0.40137,0.08203,0.51855,0.10547c1.73438,0.39844,2.8623,0.82178,3.38379,1.27002
		s0.78223,1.10596,0.78223,1.97314C58.93066,43.35449,58.50488,44.18066,57.65137,44.7373z M63.7998,67.22949h-3.83203v-9.55371
		h3.83203V67.22949z M63.7998,56.7002h-3.83203v-2.7334h3.83203V56.7002z M61.41406,44.20557
		c-0.96484-0.91113-1.44629-2.13721-1.44629-3.67822c0-1.60547,0.49219-2.87256,1.47656-3.80127s2.32324-1.39307,4.0166-1.39307
		c1.69922,0,3.03027,0.50537,3.99414,1.51611s1.44629,2.4126,1.44629,4.20557v0.22852l-7.12793,0.00879
		c0.01758,0.60938,0.17871,1.07959,0.4834,1.41064s0.72949,0.49658,1.27441,0.49658c0.36914,0,0.67676-0.06885,0.92285-0.20654
		s0.41309-0.33545,0.50098-0.59326h3.63867c-0.26367,1.04297-0.84277,1.83252-1.73633,2.36865s-2.07227,0.8042-3.53711,0.8042
		C63.67969,45.57227,62.37695,45.1167,61.41406,44.20557z M76.0957,67.22949h-3.36621v-1.16895
		c-0.41016,0.50977-0.87402,0.88965-1.39355,1.1377c-0.51758,0.24902-1.09961,0.37402-1.74414,0.37402
		c-1.22461,0-2.21484-0.46387-2.9707-1.39355c-0.75586-0.92773-1.13379-2.15723-1.13379-3.68652
		c0-1.51758,0.37891-2.74805,1.1377-3.69141s1.73633-1.41504,2.93164-1.41504c0.57422,0,1.09375,0.1084,1.56055,0.3252
		c0.46484,0.2168,0.88867,0.54492,1.26953,0.98438V54.2832h3.70898V67.22949z M76.29785,41.30957v3.91992H72.4834v-9.55371h3.50684
		v1.74023c0.25195-0.69141,0.61328-1.19678,1.08594-1.51611c0.4707-0.31934,1.09961-0.479,1.88477-0.479h0.34277v3.78809
		c-0.14062-0.01172-0.27539-0.02197-0.4043-0.03076s-0.25195-0.01318-0.36914-0.01318c-0.76758,0-1.33105,0.17285-1.69238,0.51855
		C76.47852,40.0293,76.29785,40.57129,76.29785,41.30957z M88.56738,63.2832l-7.12793,0.00879
		c0.01758,0.60938,0.17871,1.08008,0.4834,1.41016c0.30469,0.33203,0.72949,0.49707,1.27441,0.49707
		c0.36914,0,0.67676-0.06836,0.92285-0.20605s0.41309-0.33594,0.50098-0.59375h3.63867
		c-0.26367,1.04297-0.84277,1.83203-1.73633,2.36914c-0.89355,0.53516-2.07227,0.80371-3.53711,0.80371
		c-1.64062,0-2.94336-0.45508-3.90625-1.36621c-0.96484-0.91113-1.44629-2.1377-1.44629-3.67871
		c0-1.60547,0.49219-2.87207,1.47656-3.80176c0.98438-0.92773,2.32324-1.39258,4.0166-1.39258
		c1.69922,0,3.03027,0.50586,3.99414,1.51562c0.96387,1.01172,1.44629,2.41309,1.44629,4.20605V63.2832z"/>
	<path class="st0" d="M40.2627,60.22461c-0.51562,0-0.89941,0.18066-1.15137,0.54004
		c-0.25195,0.36133-0.37793,0.90137-0.37793,1.62207c0,0.76758,0.12598,1.33789,0.37793,1.70996s0.63574,0.55762,1.15137,0.55762
		c0.54492,0,0.94775-0.18164,1.2085-0.54492s0.39111-0.93164,0.39111-1.70508c0-0.69141-0.13916-1.22754-0.41748-1.6084
		S40.77246,60.22461,40.2627,60.22461z"/>
</g>
</svg>
